<svg width="16.000000" height="16.000000" viewBox="0 0 16 16" fill="none" xmlns="http://www.w3.org/2000/svg" xmlns:xlink="http://www.w3.org/1999/xlink">
	<desc>
			Created with Pixso.
	</desc>
	<g opacity="0.000000">
		<rect width="16.000000" height="16.000000" fill="#000000"/>
	</g>
	<mask id="path-1-inside-1" fill="white">
		<path d="M11.125 2.875L11.125 1.875C11.125 1.80615 11.0687 1.75 11 1.75L10.125 1.75C10.0563 1.75 10 1.80615 10 1.875L10 2.875L6 2.875L6 1.875C6 1.80615 5.94375 1.75 5.875 1.75L5 1.75C4.93125 1.75 4.875 1.80615 4.875 1.875L4.875 2.875L2.25 2.875C1.97344 2.875 1.75 3.09839 1.75 3.375L1.75 13.75C1.75 14.0266 1.97344 14.25 2.25 14.25L13.75 14.25C14.0266 14.25 14.25 14.0266 14.25 13.75L14.25 3.375C14.25 3.09839 14.0266 2.875 13.75 2.875L11.125 2.875ZM2.875 4L4.875 4L4.875 4.75C4.875 4.81885 4.93125 4.875 5 4.875L5.875 4.875C5.94375 4.875 6 4.81885 6 4.75L6 4L10 4L10 4.75C10 4.81885 10.0563 4.875 10.125 4.875L11 4.875C11.0687 4.875 11.125 4.81885 11.125 4.75L11.125 4L13.125 4L13.125 6.125L2.875 6.125L2.875 4ZM2.875 13.125L2.875 7.1875L13.125 7.1875L13.125 13.125L2.875 13.125Z" fill-rule="evenodd" fill-opacity="0.000000"/>
	</mask>
	<path d="M11.125 2.875L11.125 1.875C11.125 1.80615 11.0687 1.75 11 1.75L10.125 1.75C10.0563 1.75 10 1.80615 10 1.875L10 2.875L6 2.875L6 1.875C6 1.80615 5.94375 1.75 5.875 1.75L5 1.75C4.93125 1.75 4.875 1.80615 4.875 1.875L4.875 2.875L2.25 2.875C1.97344 2.875 1.75 3.09839 1.75 3.375L1.75 13.75C1.75 14.0266 1.97344 14.25 2.25 14.25L13.75 14.25C14.0266 14.25 14.25 14.0266 14.25 13.75L14.25 3.375C14.25 3.09839 14.0266 2.875 13.75 2.875L11.125 2.875ZM2.875 4L4.875 4L4.875 4.75C4.875 4.81885 4.93125 4.875 5 4.875L5.875 4.875C5.94375 4.875 6 4.81885 6 4.75L6 4L10 4L10 4.75C10 4.81885 10.0563 4.875 10.125 4.875L11 4.875C11.0687 4.875 11.125 4.81885 11.125 4.75L11.125 4L13.125 4L13.125 6.125L2.875 6.125L2.875 4ZM2.875 13.125L2.875 7.1875L13.125 7.1875L13.125 13.125L2.875 13.125Z" fill-rule="evenodd" fill="#887E7E" fill-opacity="1.000000"/>
	<defs/>
</svg>
