<svg width="16.000000" height="16.000000" viewBox="0 0 16 16" fill="none" xmlns="http://www.w3.org/2000/svg" xmlns:xlink="http://www.w3.org/1999/xlink">
	<desc>
			Created with Pixso.
	</desc>
	<g opacity="0.000000">
		<rect width="16.000000" height="16.000000" fill="#000000"/>
	</g>
	<path d="M8.80938 8L12.9109 3.11084C12.9797 3.02979 12.9219 2.90625 12.8156 2.90625L11.5687 2.90625C11.4953 2.90625 11.425 2.93896 11.3766 2.99536L7.99375 7.02808L4.61094 2.99536C4.56406 2.93896 4.49375 2.90625 4.41875 2.90625L3.17188 2.90625C3.06562 2.90625 3.00781 3.02979 3.07656 3.11084L7.17812 8L3.07656 12.8892C3.00781 12.9702 3.06562 13.0938 3.17188 13.0938L4.41875 13.0938C4.49219 13.0938 4.5625 13.061 4.61094 13.0046L7.99375 8.97192L11.3766 13.0046C11.4234 13.061 11.4938 13.0938 11.5687 13.0938L12.8156 13.0938C12.9219 13.0938 12.9797 12.9702 12.9109 12.8892L8.80938 8Z" fill-rule="evenodd" fill="#000000"/>
	<defs/>
</svg>
