<svg width="16.000000" height="16.000000" viewBox="0 0 16 16" fill="none" xmlns="http://www.w3.org/2000/svg" xmlns:xlink="http://www.w3.org/1999/xlink">
	<desc>
			Created with Pixso.
	</desc>
	<g opacity="0.000000">
		<rect width="16.000000" height="16.000000" fill="#000000"/>
	</g>
	<g opacity="0.000000">
		<rect width="16.000000" height="16.000000" fill="#000000"/>
	</g>
	<mask id="path-1-inside-1" fill="white">
		<path d="M8.41094 2.70154C8.475 2.62036 8.41719 2.5 8.3125 2.5L7.10469 2.5C7.02813 2.5 6.95469 2.53589 6.90781 2.59534L2.91875 7.69214C2.77657 7.87341 2.77657 8.12817 2.91875 8.30933L6.90781 13.4047C6.95469 13.4656 7.02813 13.5 7.10469 13.5L8.3125 13.5C8.41719 13.5 8.475 13.3796 8.41094 13.2985L4.26406 8L8.41094 2.70154ZM13.1609 2.70154C13.225 2.62036 13.1672 2.5 13.0625 2.5L11.8547 2.5C11.7781 2.5 11.7047 2.53589 11.6578 2.59534L7.66875 7.69214C7.52657 7.87341 7.52657 8.12817 7.66875 8.30933L11.6578 13.4047C11.7047 13.4656 11.7781 13.5 11.8547 13.5L13.0625 13.5C13.1672 13.5 13.225 13.3796 13.1609 13.2985L9.01406 8L13.1609 2.70154Z" fill-rule="evenodd" fill-opacity="0.000000"/>
	</mask>
	<path d="M8.41094 2.70154C8.475 2.62036 8.41719 2.5 8.3125 2.5L7.10469 2.5C7.02813 2.5 6.95469 2.53589 6.90781 2.59534L2.91875 7.69214C2.77657 7.87341 2.77657 8.12817 2.91875 8.30933L6.90781 13.4047C6.95469 13.4656 7.02813 13.5 7.10469 13.5L8.3125 13.5C8.41719 13.5 8.475 13.3796 8.41094 13.2985L4.26406 8L8.41094 2.70154ZM13.1609 2.70154C13.225 2.62036 13.1672 2.5 13.0625 2.5L11.8547 2.5C11.7781 2.5 11.7047 2.53589 11.6578 2.59534L7.66875 7.69214C7.52657 7.87341 7.52657 8.12817 7.66875 8.30933L11.6578 13.4047C11.7047 13.4656 11.7781 13.5 11.8547 13.5L13.0625 13.5C13.1672 13.5 13.225 13.3796 13.1609 13.2985L9.01406 8L13.1609 2.70154Z" fill-rule="evenodd" fill="#000000" fill-opacity="1.000000"/>
	<defs/>
</svg>
