<svg width="16.000000" height="16.000000" viewBox="0 0 16 16" fill="none" xmlns="http://www.w3.org/2000/svg" xmlns:xlink="http://www.w3.org/1999/xlink">
	<desc>
			Created with Pixso.
	</desc>
	<g opacity="0.000000">
		<rect width="16.000000" height="16.000000" fill="#000000"/>
	</g>
	<mask id="path-1-inside-1" fill="white">
		<path d="M4.34219 2.59534C4.29531 2.53436 4.22187 2.5 4.14531 2.5L2.9375 2.5C2.83281 2.5 2.775 2.6203 2.83906 2.70154L6.98594 8L2.83906 13.2985C2.775 13.3797 2.83281 13.5 2.9375 13.5L4.14531 13.5C4.22187 13.5 4.29531 13.4641 4.34219 13.4047L8.33125 8.30939C8.47344 8.12659 8.47344 7.87341 8.33125 7.6922L4.34219 2.59534ZM9.09219 2.59534C9.04531 2.53436 8.97188 2.5 8.89531 2.5L7.6875 2.5C7.58281 2.5 7.525 2.6203 7.58907 2.70154L11.7359 8L7.58907 13.2985C7.525 13.3797 7.58281 13.5 7.6875 13.5L8.89531 13.5C8.97188 13.5 9.04531 13.4641 9.09219 13.4047L13.0813 8.30939C13.2234 8.12659 13.2234 7.87341 13.0813 7.6922L9.09219 2.59534Z" fill-rule="evenodd" fill-opacity="0.000000"/>
	</mask>
	<path d="M4.34219 2.59534C4.29531 2.53436 4.22187 2.5 4.14531 2.5L2.9375 2.5C2.83281 2.5 2.775 2.6203 2.83906 2.70154L6.98594 8L2.83906 13.2985C2.775 13.3797 2.83281 13.5 2.9375 13.5L4.14531 13.5C4.22187 13.5 4.29531 13.4641 4.34219 13.4047L8.33125 8.30939C8.47344 8.12659 8.47344 7.87341 8.33125 7.6922L4.34219 2.59534ZM9.09219 2.59534C9.04531 2.53436 8.97188 2.5 8.89531 2.5L7.6875 2.5C7.58281 2.5 7.525 2.6203 7.58907 2.70154L11.7359 8L7.58907 13.2985C7.525 13.3797 7.58281 13.5 7.6875 13.5L8.89531 13.5C8.97188 13.5 9.04531 13.4641 9.09219 13.4047L13.0813 8.30939C13.2234 8.12659 13.2234 7.87341 13.0813 7.6922L9.09219 2.59534Z" fill-rule="evenodd" fill="#000000" fill-opacity="1.000000"/>
	<defs/>
</svg>
