<svg width="16.000000" height="16.000000" viewBox="0 0 16 16" fill="none" xmlns="http://www.w3.org/2000/svg" xmlns:xlink="http://www.w3.org/1999/xlink">
	<desc>
			Created with Pixso.
	</desc>
	<g opacity="0.000000">
		<rect width="16.000000" height="16.000000" fill="#000000"/>
	</g>
	<mask id="path-1-inside-1" fill="white">
		<path d="M8.59375 2.5C8.59375 2.41675 8.55208 2.375 8.46875 2.375L7.53125 2.375C7.44792 2.375 7.40625 2.41675 7.40625 2.5L7.40625 7.40625L2.75 7.40625C2.66667 7.40625 2.625 7.448 2.625 7.53125L2.625 8.46875C2.625 8.552 2.66667 8.59375 2.75 8.59375L7.40625 8.59375L7.40625 13.5C7.40625 13.5833 7.44792 13.625 7.53125 13.625L8.46875 13.625C8.55208 13.625 8.59375 13.5833 8.59375 13.5L8.59375 8.59375L13.25 8.59375C13.3333 8.59375 13.375 8.552 13.375 8.46875L13.375 7.53125C13.375 7.448 13.3333 7.40625 13.25 7.40625L8.59375 7.40625L8.59375 2.5Z" fill-rule="evenodd" fill-opacity="0.000000"/>
	</mask>
	<path d="M8.59375 2.5C8.59375 2.41675 8.55208 2.375 8.46875 2.375L7.53125 2.375C7.44792 2.375 7.40625 2.41675 7.40625 2.5L7.40625 7.40625L2.75 7.40625C2.66667 7.40625 2.625 7.448 2.625 7.53125L2.625 8.46875C2.625 8.552 2.66667 8.59375 2.75 8.59375L7.40625 8.59375L7.40625 13.5C7.40625 13.5833 7.44792 13.625 7.53125 13.625L8.46875 13.625C8.55208 13.625 8.59375 13.5833 8.59375 13.5L8.59375 8.59375L13.25 8.59375C13.3333 8.59375 13.375 8.552 13.375 8.46875L13.375 7.53125C13.375 7.448 13.3333 7.40625 13.25 7.40625L8.59375 7.40625L8.59375 2.5Z" fill-rule="evenodd" fill="#424250" fill-opacity="1.000000"/>
	<defs/>
</svg>
