<svg width="16.000000" height="16.000000" viewBox="0 0 16 16" fill="none" xmlns="http://www.w3.org/2000/svg" xmlns:xlink="http://www.w3.org/1999/xlink">
	<desc>
			Created with Pixso.
	</desc>
	<g opacity="0.000000">
		<rect width="16.000000" height="16.000000" fill="#000000"/>
	</g>
	<mask id="path-1-inside-1" fill="white">
		<path d="M10.1547 9.2937C10.7844 8.47974 11.125 7.48438 11.125 6.4375C11.125 5.18433 10.6359 4.00928 9.75156 3.12354C8.86719 2.23755 7.68906 1.75 6.4375 1.75C5.18594 1.75 4.00781 2.23901 3.12344 3.12354C2.2375 4.00781 1.75 5.18433 1.75 6.4375C1.75 7.68896 2.23906 8.86719 3.12344 9.75146C4.00781 10.6375 5.18438 11.125 6.4375 11.125C7.48438 11.125 8.47813 10.7844 9.29219 10.1562L13.35 14.2124C13.4 14.2625 13.4813 14.2625 13.5312 14.2124L14.2125 13.5327C14.2625 13.4829 14.2625 13.4016 14.2125 13.3516L10.1547 9.2937ZM6.4375 9.9375C5.50312 9.9375 4.625 9.57349 3.9625 8.9126C3.30156 8.25 2.9375 7.37183 2.9375 6.4375C2.9375 5.50317 3.30156 4.62354 3.9625 3.9624C4.625 3.30151 5.50312 2.9375 6.4375 2.9375C7.37188 2.9375 8.25156 3.30005 8.9125 3.9624C9.57344 4.625 9.9375 5.50317 9.9375 6.4375C9.9375 7.37183 9.57344 8.25146 8.9125 8.9126C8.25 9.57349 7.37188 9.9375 6.4375 9.9375Z" fill-rule="evenodd" fill-opacity="0.000000"/>
	</mask>
	<path d="M10.1547 9.2937C10.7844 8.47974 11.125 7.48438 11.125 6.4375C11.125 5.18433 10.6359 4.00928 9.75156 3.12354C8.86719 2.23755 7.68906 1.75 6.4375 1.75C5.18594 1.75 4.00781 2.23901 3.12344 3.12354C2.2375 4.00781 1.75 5.18433 1.75 6.4375C1.75 7.68896 2.23906 8.86719 3.12344 9.75146C4.00781 10.6375 5.18438 11.125 6.4375 11.125C7.48438 11.125 8.47813 10.7844 9.29219 10.1562L13.35 14.2124C13.4 14.2625 13.4813 14.2625 13.5312 14.2124L14.2125 13.5327C14.2625 13.4829 14.2625 13.4016 14.2125 13.3516L10.1547 9.2937ZM6.4375 9.9375C5.50312 9.9375 4.625 9.57349 3.9625 8.9126C3.30156 8.25 2.9375 7.37183 2.9375 6.4375C2.9375 5.50317 3.30156 4.62354 3.9625 3.9624C4.625 3.30151 5.50312 2.9375 6.4375 2.9375C7.37188 2.9375 8.25156 3.30005 8.9125 3.9624C9.57344 4.625 9.9375 5.50317 9.9375 6.4375C9.9375 7.37183 9.57344 8.25146 8.9125 8.9126C8.25 9.57349 7.37188 9.9375 6.4375 9.9375Z" fill-rule="evenodd" fill="#887E7E" fill-opacity="1.000000"/>
	<defs/>
</svg>
