<svg width="32.000000" height="32.000000" viewBox="0 0 32 32" fill="none" xmlns="http://www.w3.org/2000/svg" xmlns:xlink="http://www.w3.org/1999/xlink">
	<desc>
			Created with Pixso.
	</desc>
	<path d="M20.4348 6.21563L10.2762 15.407C10.092 15.5687 10 15.7619 10 15.9865C10 16.2111 10.092 16.4133 10.2762 16.593L20.4348 25.7844C20.6189 25.9281 20.8337 26 21.0793 26C21.3248 26 21.5397 25.9191 21.7238 25.7574C21.908 25.5957 22 25.407 22 25.1914C22 24.9757 21.908 24.7871 21.7238 24.6253L12.1483 16L21.7238 7.37466C21.908 7.21294 22 7.02426 22 6.80863C22 6.59299 21.908 6.40431 21.7238 6.24259C21.5397 6.08086 21.3248 6 21.0793 6C20.8337 6 20.6189 6.07188 20.4348 6.21563Z" fill-rule="evenodd" fill="#20232A"/>
	<defs/>
</svg>
