<svg width="32.000000" height="32.000000" viewBox="0 0 32 32" fill="none" xmlns="http://www.w3.org/2000/svg" xmlns:xlink="http://www.w3.org/1999/xlink">
	<desc>
			Created with Pixso.
	</desc>
	<path d="M10.2762 6.21564C10.092 6.39532 10 6.59299 10 6.80862C10 7.02426 10.092 7.21295 10.2762 7.37466L19.8517 16L10.2762 24.6253C10.092 24.787 10 24.9757 10 25.1914C10 25.407 10.092 25.5957 10.2762 25.7574C10.4603 25.9191 10.6752 26 10.9208 26C11.1663 26 11.3811 25.9281 11.5652 25.7844L21.7238 16.593C21.908 16.4313 22 16.2336 22 16C22 15.7664 21.908 15.5687 21.7238 15.407L11.5652 6.21564C11.3811 6.07187 11.1663 6 10.9208 6C10.6752 6 10.4603 6.07187 10.2762 6.21564Z" fill-rule="evenodd" fill="#000000"/>
	<defs/>
</svg>
