<svg width="16.000000" height="16.000000" viewBox="0 0 16 16" fill="none" xmlns="http://www.w3.org/2000/svg" xmlns:xlink="http://www.w3.org/1999/xlink">
	<desc>
			Created with Pixso.
	</desc>
	<rect width="16.000000" height="16.000000" fill="#E5E5E5"/>
	<circle cx="8.000000" cy="8.000000" r="6.000000" fill="#C4C8D0"/>
	<circle cx="8.000000" cy="8.000000" r="6.000000" stroke="#C4C8D0"/>
	<path d="M5.98938 6.69644C5.79138 6.49845 5.79138 6.18732 5.98938 5.98933C6.18738 5.79134 6.49841 5.79134 6.69641 5.98933L10.0106 9.30355C10.2086 9.50154 10.2086 9.81267 10.0106 10.0107C9.81262 10.2086 9.50159 10.2086 9.30359 10.0107L5.98938 6.69644Z" fill-rule="evenodd" fill="#FFFFFF"/>
	<path d="M9.30359 5.98933C9.50159 5.79134 9.81262 5.79134 10.0106 5.98933C10.2086 6.18732 10.2086 6.49845 10.0106 6.69644L6.69641 10.0107C6.49841 10.2086 6.18738 10.2086 5.98938 10.0107C5.79138 9.81267 5.79138 9.50154 5.98938 9.30355L9.30359 5.98933Z" fill-rule="evenodd" fill="#FFFFFF"/>
	<defs/>
</svg>
