<svg width="17.000000" height="17.000000" viewBox="0 0 17 17" fill="none" xmlns="http://www.w3.org/2000/svg" xmlns:xlink="http://www.w3.org/1999/xlink">
	<desc>
			Created with Pixso.
	</desc>
	<circle cx="8.303101" cy="8.054321" r="6.000000" fill="#C4C8D0"/>
	<circle cx="8.303101" cy="8.054321" r="6.000000" stroke="#C4C8D0"/>
	<path d="M6.29248 6.75076C6.09448 6.55277 6.09448 6.24165 6.29248 6.04366C6.49048 5.84566 6.80151 5.84566 6.99951 6.04366L10.3137 9.35787C10.5117 9.55586 10.5117 9.86699 10.3137 10.065C10.1157 10.263 9.80469 10.263 9.60669 10.065L6.29248 6.75076Z" fill-rule="evenodd" fill="#FFFFFF"/>
	<path d="M9.60669 6.04366C9.80469 5.84566 10.1157 5.84566 10.3137 6.04366C10.5117 6.24165 10.5117 6.55277 10.3137 6.75076L6.99951 10.065C6.80151 10.263 6.49048 10.263 6.29248 10.065C6.09448 9.86699 6.09448 9.55586 6.29248 9.35787L9.60669 6.04366Z" fill-rule="evenodd" fill="#FFFFFF"/>
	<defs/>
</svg>
