<svg width="20.000000" height="20.000000" viewBox="0 0 20 20" fill="none" xmlns="http://www.w3.org/2000/svg" xmlns:xlink="http://www.w3.org/1999/xlink">
	<desc>
			Created with Pixso.
	</desc>
	<rect width="20.000000" height="20.000000" fill="#E5E5E5"/>
	<path d="M9.49878 15.369L4.24268 15.3688C3.55231 15.3688 2.99268 14.8092 2.99268 14.1188L2.99268 5.88118C2.99268 5.19082 3.55231 4.63118 4.24268 4.63118L9.48035 4.63118C10.1219 4.63097 10.6505 5.11409 10.722 5.73639L10.73 5.87181L10.7297 7.49904L12.2297 7.49931L12.2303 5.88082C12.2303 4.36192 10.999 3.13068 9.4801 3.13118L4.24268 3.13118C2.72388 3.13118 1.49268 4.36239 1.49268 5.88118L1.49268 14.1188C1.49268 15.6376 2.72388 16.8688 4.24268 16.8688L9.48083 16.8692C10.9997 16.8689 12.2307 15.6373 12.23 14.1184L12.2297 12.499L10.7297 12.4993L10.73 14.119C10.7303 14.8033 10.1807 15.3592 9.49878 15.369Z" fill-rule="evenodd" fill="#FFB200"/>
	<path d="M13.727 12.9697C13.4341 13.2626 13.4341 13.7374 13.727 14.0303C14.0199 14.3232 14.4948 14.3232 14.7877 14.0303L18.2877 10.5303C18.5806 10.2374 18.5806 9.76256 18.2877 9.46967L14.7877 5.96967C14.4948 5.67678 14.0199 5.67678 13.727 5.96967C13.4341 6.26256 13.4341 6.73744 13.727 7.03033L16.6967 10L13.727 12.9697Z" fill-rule="evenodd" fill="#FFB200"/>
	<path d="M17.7509 9.25L7.69177 9.25L7.69177 10.75L17.7509 10.75L17.7509 9.25Z" fill-rule="evenodd" fill="#FFB200"/>
	<defs/>
</svg>
