<svg width="16.000000" height="16.000000" viewBox="0 0 16 16" fill="none" xmlns="http://www.w3.org/2000/svg" xmlns:xlink="http://www.w3.org/1999/xlink">
	<desc>
			Created with Pixso.
	</desc>
	<rect width="16.000000" height="16.000000" fill="#E5E5E5"/>
	<circle cx="8.000000" cy="8.000000" r="6.000000" fill="#B5ABAB"/>
	<path d="M5.98938 6.69645C5.79138 6.49846 5.79138 6.18733 5.98938 5.98934C6.18738 5.79135 6.49841 5.79135 6.69641 5.98934L10.0106 9.30356C10.2086 9.50155 10.2086 9.81267 10.0106 10.0107C9.81262 10.2087 9.50159 10.2087 9.30359 10.0107L5.98938 6.69645Z" fill-rule="evenodd" fill="#FFFFFF"/>
	<path d="M9.30359 5.98934C9.50159 5.79135 9.81262 5.79135 10.0106 5.98934C10.2086 6.18733 10.2086 6.49846 10.0106 6.69645L6.69641 10.0107C6.49841 10.2087 6.18738 10.2087 5.98938 10.0107C5.79138 9.81267 5.79138 9.50155 5.98938 9.30356L9.30359 5.98934Z" fill-rule="evenodd" fill="#FFFFFF"/>
	<defs/>
</svg>
