<svg width="56.000000" height="56.000000" viewBox="0 0 56 56" fill="none" xmlns="http://www.w3.org/2000/svg" xmlns:xlink="http://www.w3.org/1999/xlink">
	<desc>
			Created with Pixso.
	</desc>
	<path d="M37.1398 33.9494L37.0988 33.9071L29.2937 25.4469L29.2937 25.4469C28.9261 25.1393 28.4633 24.969 27.9841 24.9649L27.9841 24.9649C27.53 24.9492 27.087 25.1065 26.7446 25.4052L18.7993 33.835L18.7993 33.835C18.5518 34.1841 18.4106 34.5974 18.3928 35.0249L18.3928 35.0249C18.4366 35.8551 19.1139 36.5107 19.9449 36.5275L19.9449 36.5275C20.4241 36.4983 20.876 36.2949 21.2156 35.9557L26.432 30.4577L26.432 45.945L26.432 45.945C26.3739 46.718 26.9534 47.3918 27.7263 47.4502L27.7263 47.4502C27.8121 47.4569 27.8986 47.4554 27.9841 47.4456L27.9841 47.4456C28.7915 47.5117 29.4998 46.9108 29.5659 46.1033C29.5659 46.1028 29.566 46.1022 29.566 46.1016L29.566 46.1016C29.5706 46.0495 29.5721 45.9972 29.5707 45.945L29.5707 30.4564L34.7871 35.955L34.7871 35.955C35.0612 36.2875 35.4587 36.4942 35.8884 36.5275L35.8884 36.5275C36.7753 36.5821 37.5411 35.9136 37.6072 35.0276L37.6072 35.0276C37.61 34.6184 37.4403 34.227 37.1398 33.9494L37.1398 33.9494Z" fill-rule="evenodd" fill="#00BE76"/>
	<path d="M46.6788 21.0687L46.1725 20.9318L45.9795 20.4585L45.9795 20.4585C43.0004 13.2041 35.9108 8.48892 28.0687 8.54623C20.1836 8.54623 12.9305 13.333 10.0219 20.4585L9.82947 20.9298L9.32446 21.068L9.32446 21.068C4.29065 22.4609 0.769165 26.9942 0.664551 32.2161C0.664551 38.6674 6.15137 43.9168 12.9021 43.9168L12.9021 43.9168C13.8 43.9665 14.5695 43.2815 14.6241 42.3838C14.6241 41.4524 13.9479 40.8502 12.9021 40.8502C12.7177 40.8502 12.5352 40.8429 12.3534 40.8323L12.3534 40.8323C7.5094 40.8151 3.59644 36.8743 3.61365 32.0303C3.63037 27.3367 7.33911 23.4881 12.0288 23.2978C14.8429 14.4178 24.3245 9.5008 33.2031 12.3156L33.2031 12.3156C38.4424 13.9739 42.5453 18.0807 44.1986 23.3216L44.1986 23.3216C44.8589 23.3776 45.5107 23.5087 46.1414 23.7122L46.1599 23.7122L46.1599 23.7188L46.1599 23.7188C50.1234 25.0069 52.6305 28.9094 52.1544 33.0497C52.1432 33.1647 52.1279 33.2791 52.1107 33.3921L52.1107 33.3921C51.9938 34.1996 51.7572 34.9852 51.4087 35.723L51.4087 35.723C50.0239 38.731 47.063 40.7026 43.7537 40.8204C43.5375 40.835 43.3193 40.8456 43.0985 40.8456L43.0985 40.8456C42.2548 40.8132 41.5444 41.4711 41.5121 42.3149C41.5121 42.3156 41.5121 42.3163 41.512 42.3171L41.512 42.3792L41.512 42.3792C41.5789 43.2171 42.2589 43.8742 43.0985 43.9122C49.8467 43.9122 55.3354 38.6621 55.3354 32.2115L55.3354 32.2114C55.2885 26.9716 51.7444 22.4097 46.6788 21.0686L46.6788 21.0687Z" fill-rule="evenodd" fill="#00BE76"/>
	<defs/>
</svg>
