<svg width="18.000000" height="18.000000" viewBox="0 0 18 18" fill="none" xmlns="http://www.w3.org/2000/svg" xmlns:xlink="http://www.w3.org/1999/xlink">
	<desc>
			Created with Pixso.
	</desc>
	<mask id="path-1-inside-1" fill="white">
		<path d="M14 2C15.1046 2 16 2.89539 16 4L16 14C16 15.1046 15.1046 16 14 16L4 16C2.89545 16 2 15.1046 2 14L2 4C2 2.89539 2.89545 2 4 2L14 2ZM7.82843 12.4852L7.12134 11.7782L5 9.65686L6.41418 8.24268L8.53552 10.364L12.7782 6.12134L14.1924 7.53552L8.53552 13.1924L7.82843 12.4852Z" fill-rule="evenodd" fill-opacity="0.000000"/>
	</mask>
	<path d="M14 2C15.1046 2 16 2.89539 16 4L16 14C16 15.1046 15.1046 16 14 16L4 16C2.89545 16 2 15.1046 2 14L2 4C2 2.89539 2.89545 2 4 2L14 2ZM7.82843 12.4852L7.12134 11.7782L5 9.65686L6.41418 8.24268L8.53552 10.364L12.7782 6.12134L14.1924 7.53552L8.53552 13.1924L7.82843 12.4852Z" fill-rule="evenodd" fill="#190D4A" fill-opacity="1.000000"/>
	<defs/>
</svg>
