<svg width="18.000000" height="18.000000" viewBox="0 0 18 18" fill="none" xmlns="http://www.w3.org/2000/svg" xmlns:xlink="http://www.w3.org/1999/xlink">
	<desc>
			Created with Pixso.
	</desc>
	<mask id="path-1-inside-1" fill="white">
		<path d="M16 4C16 2.89545 15.1046 2 14 2L4 2C2.89545 2 2 2.89545 2 4L2 14C2 15.1046 2.89545 16 4 16L14 16C15.1046 16 16 15.1046 16 14L16 4ZM5 8L5 10L13 10L13 8L5 8Z" fill-rule="evenodd" fill-opacity="0.000000"/>
	</mask>
	<path d="M16 4C16 2.89545 15.1046 2 14 2L4 2C2.89545 2 2 2.89545 2 4L2 14C2 15.1046 2.89545 16 4 16L14 16C15.1046 16 16 15.1046 16 14L16 4ZM5 8L5 10L13 10L13 8L5 8Z" fill-rule="evenodd" fill="#190D4A" fill-opacity="1.000000"/>
	<defs/>
</svg>
