<svg width="18.000000" height="18.000000" viewBox="0 0 18 18" fill="none" xmlns="http://www.w3.org/2000/svg" xmlns:xlink="http://www.w3.org/1999/xlink">
	<desc>
			Created with Pixso.
	</desc>
	<mask id="path-1-inside-1" fill="white">
		<path d="M0 9C0 13.9661 4.03394 18 9 18C13.9661 18 18 13.9661 18 9C18 4.03395 13.9661 4.42313e-13 9 4.42313e-13C4.03394 4.42313e-13 0 4.03395 0 9ZM7.62402 11.9142C7.87799 12.2682 8.40399 12.2682 8.65802 11.9142L12.87 6.07425C12.946 5.96825 12.87 5.82025 12.74 5.82025L11.802 5.82025C11.596 5.82025 11.404 5.92025 11.284 6.08625L8.14001 10.4462L6.716 8.47025C6.59601 8.30225 6.40198 8.20425 6.198 8.20425L5.26001 8.20425C5.13 8.20425 5.05402 8.35225 5.13 8.45825L7.62402 11.9142Z" fill-rule="evenodd" fill-opacity="0.000000"/>
	</mask>
	<path d="M0 9C0 13.9661 4.03394 18 9 18C13.9661 18 18 13.9661 18 9C18 4.03395 13.9661 4.42313e-13 9 4.42313e-13C4.03394 4.42313e-13 0 4.03395 0 9ZM7.62402 11.9142C7.87799 12.2682 8.40399 12.2682 8.65802 11.9142L12.87 6.07425C12.946 5.96825 12.87 5.82025 12.74 5.82025L11.802 5.82025C11.596 5.82025 11.404 5.92025 11.284 6.08625L8.14001 10.4462L6.716 8.47025C6.59601 8.30225 6.40198 8.20425 6.198 8.20425L5.26001 8.20425C5.13 8.20425 5.05402 8.35225 5.13 8.45825L7.62402 11.9142Z" fill-rule="evenodd" fill="#27BA9B" fill-opacity="1.000000"/>
	<defs/>
</svg>
