<svg width="20.000000" height="20.000000" viewBox="0 0 20 20" fill="none" xmlns="http://www.w3.org/2000/svg" xmlns:xlink="http://www.w3.org/1999/xlink">
	<desc>
			Created with Pixso.
	</desc>
	<path d="M4.71997 16.1156C6.29395 17.6355 8.39153 18.5005 10.624 18.5005C15.3187 18.5005 19.1245 14.6947 19.1245 10C19.1245 5.3053 15.3187 1.49951 10.624 1.49951C5.92934 1.49951 2.12354 5.3053 2.12354 10C2.12354 10.2761 2.3474 10.5 2.62354 10.5C2.89967 10.5 3.12354 10.2761 3.12354 10C3.12354 5.85754 6.48161 2.49951 10.624 2.49951C14.7664 2.49951 18.1245 5.85754 18.1245 10C18.1245 14.1425 14.7664 17.5005 10.624 17.5005C8.65331 17.5005 6.80397 16.7378 5.4146 15.3962C5.21594 15.2045 4.89941 15.21 4.7076 15.4086C4.51578 15.6073 4.52132 15.9238 4.71997 16.1156Z" fill-rule="evenodd" fill="#27BA9B"/>
	<circle cx="10.624023" cy="10.000000" r="1.232476" fill="#27BA9B"/>
	<path d="M2.55554 12.9426L0.827332 10.3097C0.740036 10.1768 0.835449 10 0.994537 10L4.45094 10C4.61003 10 4.70544 10.1768 4.61815 10.3097L2.88994 12.9426C2.81096 13.063 2.63454 13.063 2.55554 12.9426Z" fill-rule="evenodd" fill="#27BA9B"/>
	<defs/>
</svg>
