<svg width="20.000000" height="20.000000" viewBox="0 0 20 20" fill="none" xmlns="http://www.w3.org/2000/svg" xmlns:xlink="http://www.w3.org/1999/xlink">
	<desc>
			Created with Pixso.
	</desc>
	<path d="M17.0019 3.25623C17.2461 3.79706 17.1404 4.43274 16.7347 4.8656L16.6748 4.9245L12.068 8.60773C11.9993 8.6673 11.9596 8.75348 11.959 8.84436L11.959 16.1323C11.9711 16.9485 11.3195 17.6201 10.5033 17.6327L10.4662 17.6327C10.2089 17.6327 9.97231 17.5738 9.74442 17.455L7.7774 16.3591C7.29327 16.1002 6.9926 15.5942 6.9967 15.0452L6.9967 8.80511C6.9944 8.71216 6.95033 8.62524 6.87677 8.56848L2.32996 4.9245L2.2809 4.8656C1.85565 4.44037 1.75642 3.80902 1.99413 3.25623C2.22528 2.71106 2.76393 2.35889 3.35709 2.36761L15.628 2.36761C16.2201 2.36761 16.7576 2.71539 17.0019 3.25623ZM16.0665 4.09998C16.1432 3.97015 16.1541 3.80859 16.0905 3.66785C16.0079 3.4848 15.8267 3.36761 15.628 3.36761L3.34238 3.36749C3.15674 3.36475 2.98746 3.47522 2.91281 3.65125C2.834 3.83453 2.86087 4.0177 3.02628 4.20105L7.48776 7.77686C7.79976 8.01764 7.9866 8.38623 7.9967 8.80511L7.99667 15.0527C7.99535 15.2301 8.09251 15.3936 8.26407 15.4855L10.2068 16.5682C10.2645 16.5983 10.3185 16.6169 10.3761 16.626L10.4879 16.6328C10.7521 16.6287 10.963 16.4114 10.959 16.1323L10.959 8.8371C10.9617 8.45886 11.1271 8.10004 11.4435 7.82672L16.0126 4.17358L16.0665 4.09998Z" fill-rule="evenodd" fill="#424250" fill-opacity="1.000000"/>
	<path d="M13.9587 10.5L17.0413 10.5C17.3174 10.5 17.5413 10.2761 17.5413 10C17.5413 9.72388 17.3174 9.5 17.0413 9.5L13.9587 9.5C13.6826 9.5 13.4587 9.72388 13.4587 10C13.4587 10.2761 13.6826 10.5 13.9587 10.5Z" fill-rule="evenodd" fill="#424250"/>
	<path d="M13.9587 12.6924L17.0413 12.6924C17.3174 12.6924 17.5413 12.4685 17.5413 12.1924C17.5413 11.9163 17.3174 11.6924 17.0413 11.6924L13.9587 11.6924C13.6826 11.6924 13.4587 11.9163 13.4587 12.1924C13.4587 12.4685 13.6826 12.6924 13.9587 12.6924Z" fill-rule="evenodd" fill="#424250"/>
	<path d="M13.9587 14.8848L17.0413 14.8848C17.3174 14.8848 17.5413 14.6609 17.5413 14.3848C17.5413 14.1086 17.3174 13.8848 17.0413 13.8848L13.9587 13.8848C13.6826 13.8848 13.4587 14.1086 13.4587 14.3848C13.4587 14.6609 13.6826 14.8848 13.9587 14.8848Z" fill-rule="evenodd" fill="#424250"/>
	<defs/>
</svg>
