<svg width="20.000000" height="20.000000" viewBox="0 0 20 20" fill="none" xmlns="http://www.w3.org/2000/svg" xmlns:xlink="http://www.w3.org/1999/xlink">
	<desc>
			Created with Pixso.
	</desc>
	<path d="M12.0833 10.8982C13.2105 10.1906 14.5441 9.89032 15.7504 10.0658C16.1907 10.1301 16.5875 9.796 16.5875 9.35612L16.5875 2.75365C16.5858 2.06422 16.0148 1.49998 15.3164 1.49998L3.13974 1.49998C2.44312 1.49998 1.87085 2.06464 1.87085 2.75365L1.87085 17.1649C1.87085 17.8543 2.44144 18.4185 3.13974 18.4185L10.7116 18.4185C11.3182 18.4185 11.6464 17.7333 11.2784 17.2575C10.1999 15.8605 9.87881 13.8738 10.8779 12.2767L10.8779 12.2771C11.1951 11.7763 11.5749 11.2121 12.0833 10.8982ZM13.894 3.9426C14.221 3.9426 14.5213 4.15408 14.5987 4.4675C14.7086 4.91119 14.3551 5.32104 13.9207 5.32104L4.30713 5.32104C3.98059 5.32104 3.6803 5.10956 3.60287 4.79614C3.49503 4.35203 3.84653 3.9426 4.28088 3.9426L13.894 3.9426ZM13.9203 7.32631C14.3001 7.32631 14.6177 7.6393 14.6177 8.01489C14.5534 8.39091 14.3005 8.70432 13.9207 8.70432L4.30713 8.70432C3.98059 8.70432 3.6803 8.49284 3.60287 8.17943C3.49503 7.73531 3.84653 7.32588 4.28088 7.32588L4.28091 7.32631L13.9203 7.32631ZM7.388 12.0876L4.4357 12.0876C4.10873 12.0876 3.80844 11.8761 3.73105 11.5627C3.62149 11.119 3.97296 10.7092 4.40906 10.7092L7.29916 10.7092C7.6955 10.7092 8.03513 11.0323 8.02243 11.4269C8.01102 11.7911 7.75977 12.0876 7.388 12.0876Z" fill-rule="evenodd" fill="#332929" fill-opacity="1.000000"/>
	<path d="M18.8692 14.1227C18.6129 12.4612 17.0986 11.1851 15.269 11.1851C13.4796 11.1851 11.9918 12.4059 11.6875 14.0135L13.4147 12.2863C13.61 12.0911 13.9266 12.0911 14.1218 12.2863C14.3171 12.4816 14.3171 12.7982 14.1218 12.9934L12.4926 14.6227L14.1218 16.252C14.3171 16.4472 14.3171 16.7638 14.1218 16.9591C13.9266 17.1543 13.61 17.1543 13.4147 16.9591L11.6877 15.232C11.9922 16.84 13.4799 18.0599 15.269 18.0599L15.269 18.0603C17.0986 18.0603 18.6129 16.7841 18.8692 15.1227L14.7026 15.1227C14.4091 15.1227 14.1711 14.8988 14.1711 14.6227C14.1711 14.3465 14.4091 14.1227 14.7026 14.1227L18.8692 14.1227Z" fill-rule="evenodd" fill="#332929" fill-opacity="1.000000"/>
	<defs/>
</svg>
