<svg width="12.000000" height="12.000000" viewBox="0 0 12 12" fill="none" xmlns="http://www.w3.org/2000/svg" xmlns:xlink="http://www.w3.org/1999/xlink">
	<desc>
			Created with Pixso.
	</desc>
	<rect width="12.000000" height="12.000000" fill="#E5E5E5"/>
	<path d="M12 6C12 9.31371 9.31372 12 6 12C2.68628 12 0 9.31371 0 6C0 2.68629 2.68628 0 6 0C9.31372 0 12 2.68629 12 6ZM1 6C1 8.76142 3.23853 11 6 11C8.76147 11 11 8.76142 11 6C11 3.23858 8.76147 1 6 1C3.23853 1 1 3.23858 1 6Z" fill-rule="evenodd" fill="#887E7E" fill-opacity="1.000000"/>
	<path d="M9.02905 5.75342L6.02905 5.75342L6.02905 2.75342L5.02905 2.75342L5.02905 6.75342L9.02905 6.75342L9.02905 5.75342Z" fill-rule="evenodd" fill="#887E7E"/>
	<defs/>
</svg>
