<svg width="32.000000" height="32.000000" viewBox="0 0 32 32" fill="none" xmlns="http://www.w3.org/2000/svg" xmlns:xlink="http://www.w3.org/1999/xlink">
	<desc>
			Created with Pixso.
	</desc>
	<rect width="32.000000" height="32.000000" fill="#E5E5E5"/>
	<path d="M25.4316 16.2896C23.5691 16.0186 21.5098 16.4823 19.7693 17.5749C18.9841 18.0595 18.3977 18.9308 17.908 19.704L17.908 19.7034C16.3652 22.1695 16.8611 25.2371 18.5264 27.3944C19.0945 28.1291 18.5879 29.1871 17.6511 29.1871L5.95923 29.1871C4.8811 29.1871 4 28.3159 4 27.2513L4 4.9987C4 3.93479 4.88354 3.06289 5.95923 3.06289L24.7615 3.06289C25.8398 3.06289 26.7217 3.93413 26.7241 4.9987L26.7241 15.1937C26.7241 15.8729 26.1116 16.3889 25.4316 16.2896ZM23.6533 7.64508C23.5337 7.16113 23.0701 6.83457 22.5652 6.83457L7.72144 6.83457C7.05054 6.83457 6.50781 7.46678 6.67456 8.15254C6.79395 8.63649 7.25781 8.96305 7.76196 8.96305L22.6064 8.96305C23.2771 8.96305 23.823 8.33018 23.6533 7.64508ZM23.6826 13.1227C23.6826 12.5427 23.1921 12.0594 22.6057 12.0594L7.72144 12.0594L7.72144 12.0588C7.05054 12.0588 6.50781 12.691 6.67456 13.3767C6.79395 13.8607 7.25781 14.1872 7.76196 14.1872L22.6064 14.1872C23.1929 14.1872 23.5835 13.7033 23.6826 13.1227ZM7.96045 19.4114L12.519 19.4114C13.0933 19.4114 13.4812 18.9536 13.4988 18.3913C13.5183 17.7819 12.9939 17.283 12.3818 17.283L7.91919 17.283C7.24585 17.283 6.70312 17.9158 6.87231 18.6009C6.99194 19.0849 7.45557 19.4114 7.96045 19.4114ZM24.6885 18.0178C27.5137 18.0178 29.8518 19.9882 30.2476 22.5538L23.814 22.5538C23.3606 22.5538 22.9934 22.8995 22.9934 23.3259C22.9934 23.7523 23.3606 24.0979 23.814 24.0979L30.2476 24.0979C29.8518 26.6633 27.5137 28.634 24.6885 28.634L24.6885 28.6333C21.9258 28.6333 19.6287 26.7496 19.1584 24.2667L21.8252 26.9335C22.1267 27.235 22.6157 27.235 22.9172 26.9335C23.2188 26.632 23.2188 26.1432 22.9172 25.8417L20.4014 23.3259L22.9172 20.8101C23.2188 20.5086 23.2188 20.0198 22.9172 19.7183C22.6157 19.4167 22.1267 19.4167 21.8252 19.7183L19.1582 22.3853C19.6279 19.9029 21.9253 18.0178 24.6885 18.0178Z" fill-rule="evenodd" fill="#FFFFFF" fill-opacity="1.000000"/>
	<defs/>
</svg>
