<svg width="24.000000" height="24.000000" viewBox="0 0 24 24" fill="none" xmlns="http://www.w3.org/2000/svg" xmlns:xlink="http://www.w3.org/1999/xlink">
	<desc>
			Created with Pixso.
	</desc>
	<circle cx="12.000000" cy="8.702141" r="2.887343" stroke="#B5ABAB" stroke-width="1.700000"/>
	<path d="M16.319 16.7584Q16.319 15.8792 15.9799 15.0776Q15.6521 14.3027 15.054 13.7045Q14.4558 13.1063 13.6809 12.7785Q12.8793 12.4395 12 12.4395Q11.1207 12.4395 10.3191 12.7785Q9.54419 13.1063 8.94604 13.7045Q8.3479 14.3027 8.02014 15.0776Q7.68103 15.8792 7.68103 16.7584C7.68103 17.2344 7.30701 17.6084 6.83105 17.6084C6.3551 17.6084 5.98108 17.2344 5.98108 16.7584Q5.98108 15.5345 6.45435 14.4153Q6.91138 13.335 7.74402 12.5024Q8.57666 11.6698 9.65686 11.2128Q10.776 10.7395 12 10.7395Q13.224 10.7395 14.3431 11.2128Q15.4235 11.6698 16.2561 12.5024Q17.0887 13.335 17.5457 14.4153Q18.0189 15.5345 18.0189 16.7584C18.0189 17.2344 17.645 17.6084 17.1689 17.6084C16.693 17.6084 16.319 17.2344 16.319 16.7584Z" fill-rule="evenodd" fill="#B5ABAB"/>
	<circle cx="11.998535" cy="12.000000" r="10.513660" stroke="#B5ABAB" stroke-width="1.700000"/>
	<defs/>
</svg>
