<svg width="18.000000" height="18.000000" viewBox="0 0 18 18" fill="none" xmlns="http://www.w3.org/2000/svg" xmlns:xlink="http://www.w3.org/1999/xlink">
	<desc>
			Created with Pixso.
	</desc>
	<rect width="18.000000" height="18.000000" fill="#E5E5E5"/>
	<path d="M14.9382 3.37439L14.9382 11.3622C14.9382 12.1906 14.2667 12.8622 13.4382 12.8622L4.56177 12.8622C3.73334 12.8622 3.06177 12.1906 3.06177 11.3622L3.06177 3.37439C3.06177 2.54596 3.73334 1.87439 4.56177 1.87439L13.4382 1.87439C14.2667 1.87439 14.9382 2.54596 14.9382 3.37439ZM4.56177 2.87439C4.28564 2.87439 4.06177 3.09824 4.06177 3.37439L4.06177 11.3622C4.06177 11.6383 4.28564 11.8622 4.56177 11.8622L13.4382 11.8622C13.7144 11.8622 13.9382 11.6383 13.9382 11.3622L13.9382 3.37439C13.9382 3.09824 13.7144 2.87439 13.4382 2.87439L4.56177 2.87439Z" fill-rule="evenodd" fill="#424250" fill-opacity="1.000000"/>
	<mask id="path-1-inside-1" fill="white">
		<path d="M6.76172 10.2423L2.23706 10.2423C1.96094 10.2423 1.73706 10.4662 1.73706 10.7423L1.73706 15.1256C1.73706 15.4017 1.96094 15.6256 2.23706 15.6256L15.7629 15.6256C16.0391 15.6256 16.2629 15.4017 16.2629 15.1256L16.2629 10.7423C16.2629 10.4662 16.0391 10.2423 15.7629 10.2423L11.2383 10.2423L10.7383 12.2423L7.26172 12.2423L6.76172 10.2423Z" fill-rule="evenodd" fill-opacity="0.000000"/>
	</mask>
	<path d="M6.76172 10.2423L2.23706 10.2423C1.96094 10.2423 1.73706 10.4662 1.73706 10.7423L1.73706 15.1256C1.73706 15.4017 1.96094 15.6256 2.23706 15.6256L15.7629 15.6256C16.0391 15.6256 16.2629 15.4017 16.2629 15.1256L16.2629 10.7423C16.2629 10.4662 16.0391 10.2423 15.7629 10.2423L11.2383 10.2423L10.7383 12.2423L7.26172 12.2423L6.76172 10.2423Z" fill-rule="evenodd" fill="#DFDFDF" fill-opacity="1.000000"/>
	<path d="M11.238 9.74231L15.7629 9.74231C16.3152 9.74231 16.7629 10.19 16.7629 10.7423L16.7629 15.1256C16.7629 15.6779 16.3152 16.1256 15.7629 16.1256L2.23706 16.1256C1.68475 16.1256 1.23706 15.6779 1.23706 15.1256L1.23706 10.7423C1.23706 10.19 1.68475 9.74231 2.23706 9.74231L6.76105 9.74231C6.99042 9.74231 7.19037 9.89838 7.24609 10.1209L7.65198 11.7423L10.3478 11.7423L10.753 10.1211C10.8086 9.89848 11.0086 9.74231 11.238 9.74231ZM2.23706 15.1256L15.7629 15.1256L15.7629 10.7423L11.6285 10.7423L11.2233 12.3635C11.1677 12.5861 10.9677 12.7423 10.7383 12.7423L7.26172 12.7423C7.03235 12.7423 6.8324 12.5862 6.77673 12.3637L6.37079 10.7423L2.23706 10.7423L2.23706 15.1256Z" fill-rule="evenodd" fill="#424250" fill-opacity="1.000000"/>
	<path d="M6.51062 5.6969L11.4894 5.6969C11.7655 5.6969 11.9894 5.47305 11.9894 5.1969C11.9894 4.92075 11.7655 4.6969 11.4894 4.6969L6.51062 4.6969C6.2345 4.6969 6.01062 4.92075 6.01062 5.1969C6.01062 5.47305 6.2345 5.6969 6.51062 5.6969Z" fill-rule="evenodd" fill="#424250"/>
	<path d="M7.51062 8.28674L10.6285 8.28674C10.9047 8.28674 11.1285 8.06289 11.1285 7.78674C11.1285 7.5106 10.9047 7.28674 10.6285 7.28674L7.51062 7.28674C7.2345 7.28674 7.01062 7.5106 7.01062 7.78674C7.01062 8.06289 7.2345 8.28674 7.51062 8.28674Z" fill-rule="evenodd" fill="#424250"/>
	<defs/>
</svg>
