<svg width="16.000000" height="16.000000" viewBox="0 0 16 16" fill="none" xmlns="http://www.w3.org/2000/svg" xmlns:xlink="http://www.w3.org/1999/xlink">
	<desc>
			Created with Pixso.
	</desc>
	<circle cx="8.000000" cy="8.000000" r="5.178711" fill="#B5ABAB"/>
	<path d="M6.37039 10.3367L10.3367 6.3704C10.532 6.17514 10.532 5.85855 10.3367 5.66329C10.1414 5.46803 9.82486 5.46803 9.62961 5.66329L5.6633 9.6296C5.46803 9.82486 5.46803 10.1414 5.6633 10.3367C5.85855 10.532 6.17514 10.532 6.37039 10.3367Z" fill-rule="evenodd" fill="#FFFFFF"/>
	<path d="M5.6633 6.3704L9.62961 10.3367C9.82486 10.532 10.1414 10.532 10.3367 10.3367C10.532 10.1414 10.532 9.82486 10.3367 9.6296L6.37039 5.66329C6.17514 5.46803 5.85855 5.46803 5.6633 5.66329C5.46803 5.85855 5.46803 6.17514 5.6633 6.3704Z" fill-rule="evenodd" fill="#FFFFFF"/>
	<defs/>
</svg>
