<svg width="24.000000" height="24.000000" viewBox="0 0 24 24" fill="none" xmlns="http://www.w3.org/2000/svg" xmlns:xlink="http://www.w3.org/1999/xlink">
	<desc>
			Created with Pixso.
	</desc>
	<path d="M12.001 0.752804C8.89502 0.752804 6.37695 3.27019 6.37622 6.37605L6.37622 8.62675L5.81299 8.62675C3.94946 8.62675 2.43848 10.1371 2.43774 12.0007L2.43774 19.8746C2.43774 21.7388 3.94897 23.25 5.81299 23.25L18.187 23.25C20.0508 23.25 21.5618 21.7397 21.5625 19.876L21.5625 12.0021C21.5625 10.1384 20.052 8.62747 18.1885 8.62675L17.627 8.62675L17.627 6.37855C17.6292 3.27213 15.1125 0.752153 12.0061 0.75L12.0005 0.75L12.001 0.752804ZM17.627 10.313L17.627 8.62675L15.9377 8.62675L15.9377 6.37605C15.9377 4.20171 14.175 2.43907 12.0007 2.43907C9.82642 2.43907 8.06372 4.20172 8.06372 6.37605L8.06372 8.62675L6.37622 8.62675L6.37622 10.313L5.81323 10.313C4.88086 10.313 4.12671 11.0684 4.12671 12.0021L4.12671 19.876L4.12671 19.8774C4.12671 20.8087 4.88184 21.5637 5.81299 21.5637L18.1885 21.5637L18.1912 21.5637C19.1226 21.5622 19.8762 20.806 19.8748 19.8747L19.8748 12.0007C19.8748 11.0698 19.1194 10.313 18.1885 10.313L18.1885 10.313L17.627 10.313ZM8.06372 8.62675L15.9377 8.62675L15.9377 8.62677L8.06372 8.62677L8.06372 8.62675ZM12.001 18.4699C11.5352 18.4699 11.1577 18.0924 11.1577 17.6267L11.1577 17.6267L11.1577 14.2514L11.1577 14.2514C11.1577 13.7857 11.5352 13.4082 12.001 13.4082C12.4666 13.4082 12.844 13.7857 12.844 14.2514L12.844 17.6267C12.844 18.0922 12.4678 18.4685 12.001 18.4685L12.001 18.4699L12.001 18.4699L12.001 18.4699Z" fill-rule="evenodd" fill="#B5ABAB" fill-opacity="1.000000"/>
	<defs/>
</svg>
