<svg width="20.000000" height="20.000000" viewBox="0 0 20 20" fill="none" xmlns="http://www.w3.org/2000/svg" xmlns:xlink="http://www.w3.org/1999/xlink">
	<desc>
			Created with Pixso.
	</desc>
	<path d="M15.5406 16.8465C15.0493 17.6973 14.1414 18.2215 13.159 18.2215L6.84106 18.2215C5.85858 18.2215 4.95071 17.6973 4.45947 16.8465L1.30054 11.375C0.809296 10.5241 0.809296 9.47585 1.30054 8.625L4.45947 3.15352C4.95071 2.30267 5.85858 1.77852 6.84106 1.77852L13.159 1.77852C14.1414 1.77852 15.0493 2.30267 15.5406 3.15352L18.6995 8.625C19.158 9.41913 19.1886 10.3853 18.7912 11.2023L18.6995 11.375L15.5406 16.8465ZM17.4666 10.493C17.621 10.1335 17.5989 9.71878 17.4005 9.375L14.2415 3.90352C14.0182 3.51677 13.6056 3.27852 13.159 3.27852L6.84106 3.27852C6.39447 3.27852 5.98181 3.51677 5.75851 3.90352L2.59955 9.375C2.37628 9.76175 2.37628 10.2382 2.59955 10.625L5.75851 16.0965C5.98181 16.4832 6.39447 16.7215 6.84106 16.7215L13.159 16.7215C13.6056 16.7215 14.0182 16.4832 14.2415 16.0965L17.4005 10.625L17.4666 10.493Z" fill-rule="evenodd" fill="#887E7E" fill-opacity="1.000000"/>
	<path d="M13.6302 9.97843C13.6302 11.9834 12.0049 13.6087 10 13.6087C7.99506 13.6087 6.36972 11.9834 6.36972 9.97843C6.36972 7.97348 7.99506 6.34816 10 6.34816C12.0049 6.34816 13.6302 7.97348 13.6302 9.97843ZM7.86972 9.97843C7.86972 11.1549 8.82349 12.1087 10 12.1087C11.1765 12.1087 12.1302 11.1549 12.1302 9.97843C12.1302 8.80191 11.1765 7.84816 10 7.84816C8.82349 7.84816 7.86972 8.80191 7.86972 9.97843Z" fill-rule="evenodd" fill="#887E7E" fill-opacity="1.000000"/>
	<defs/>
</svg>
