<svg width="16.000000" height="16.000000" viewBox="0 0 16 16" fill="none" xmlns="http://www.w3.org/2000/svg" xmlns:xlink="http://www.w3.org/1999/xlink">
	<desc>
			Created with Pixso.
	</desc>
	<rect width="16.000000" height="16.000000" fill="#E5E5E5"/>
	<path d="M5.03571 12.025C4.73872 12.3219 4.27202 12.3219 3.97504 12.025C3.67805 11.728 3.67805 11.2613 3.97504 10.9643L10.9643 3.97504C11.2613 3.67806 11.728 3.67806 12.025 3.97504C12.3219 4.27203 12.3219 4.73872 12.025 5.0357L5.03571 12.025Z" fill-rule="evenodd" fill="#FFFFFF"/>
	<path d="M3.97504 5.0357C3.67805 4.73872 3.67805 4.27203 3.97504 3.97504C4.27202 3.67806 4.73872 3.67806 5.03571 3.97504L12.025 10.9643C12.3219 11.2613 12.3219 11.728 12.025 12.025C11.728 12.3219 11.2613 12.3219 10.9643 12.025L3.97504 5.0357Z" fill-rule="evenodd" fill="#FFFFFF"/>
	<defs/>
</svg>
