<svg width="32.000000" height="32.000000" viewBox="0 0 32 32" fill="none" xmlns="http://www.w3.org/2000/svg" xmlns:xlink="http://www.w3.org/1999/xlink">
	<desc>
			Created with Pixso.
	</desc>
	<rect width="32.000000" height="32.000000" fill="#E5E5E5"/>
	<g filter="url(#filter_1_8710_dd)">
		<circle cx="16.000000" cy="13.752005" r="11.094675" fill="#B5ABAB"/>
		<circle cx="16.000000" cy="13.752005" r="11.094675" stroke="#FFFFFF" stroke-width="1.500000"/>
	</g>
	<path d="M13.0356 17.777C12.7388 18.0739 12.272 18.0739 11.9751 17.777C11.6781 17.48 11.6781 17.0133 11.9751 16.7163L18.9644 9.72705C19.2612 9.43006 19.728 9.43006 20.0249 9.72705C20.3219 10.024 20.3219 10.4907 20.0249 10.7877L13.0356 17.777Z" fill-rule="evenodd" fill="#FFFFFF"/>
	<path d="M11.9751 10.7877C11.6781 10.4907 11.6781 10.024 11.9751 9.72705C12.272 9.43006 12.7388 9.43006 13.0356 9.72705L20.0249 16.7163C20.3219 17.0133 20.3219 17.48 20.0249 17.777C19.728 18.0739 19.2612 18.0739 18.9644 17.777L11.9751 10.7877Z" fill-rule="evenodd" fill="#FFFFFF"/>
	<defs>
		<filter id="filter_1_8710_dd" x="0.155273" y="-0.092670" width="31.689331" height="31.689350" filterUnits="userSpaceOnUse" color-interpolation-filters="sRGB">
			<feFlood flood-opacity="0" result="BackgroundImageFix"/>
			<feColorMatrix in="SourceAlpha" type="matrix" values="0 0 0 0 0 0 0 0 0 0 0 0 0 0 0 0 0 0 127 0"/>
			<feOffset dx="0" dy="2"/>
			<feGaussianBlur stdDeviation="1.33333"/>
			<feColorMatrix type="matrix" values="0 0 0 0 0 0 0 0 0 0 0 0 0 0 0 0 0 0 0.25 0"/>
			<feBlend mode="normal" in2="BackgroundImageFix" result="effect_dropShadow_1"/>
			<feBlend mode="normal" in="SourceGraphic" in2="effect_dropShadow_1" result="shape"/>
		</filter>
	</defs>
</svg>
