<svg width="32.000000" height="32.000000" viewBox="0 0 32 32" fill="none" xmlns="http://www.w3.org/2000/svg" xmlns:xlink="http://www.w3.org/1999/xlink">
	<desc>
			Created with Pixso.
	</desc>
	<path d="M19.7397 17.4499C21.4802 16.3573 23.5396 15.8935 25.4021 16.1646C26.082 16.2639 26.6946 15.7479 26.6946 15.0687L26.6946 4.87368C26.6921 3.80912 25.8103 2.93788 24.7319 2.93788L5.92969 2.93788C4.854 2.93788 3.97046 3.80977 3.97046 4.87368L3.97046 27.1263C3.97046 28.1909 4.85156 29.0621 5.92969 29.0621L17.6216 29.0621C18.5583 29.0621 19.0649 28.0041 18.4968 27.2693C16.8315 25.1121 16.3357 22.0445 17.8784 19.5784L17.8784 19.579C18.3682 18.8057 18.9546 17.9345 19.7397 17.4499ZM22.5356 6.70956C23.0405 6.70956 23.5042 7.03612 23.6238 7.52007C23.7935 8.20517 23.2476 8.83804 22.5769 8.83804L7.73242 8.83804C7.22803 8.83804 6.7644 8.51148 6.64502 8.02753C6.47827 7.34177 7.021 6.70956 7.69189 6.70956L22.5356 6.70956ZM22.5762 11.9344C23.1626 11.9344 23.6531 12.4177 23.6531 12.9977C23.554 13.5783 23.1633 14.0622 22.5769 14.0622L7.73242 14.0622C7.22803 14.0622 6.7644 13.7357 6.64502 13.2517C6.47827 12.566 7.021 11.9338 7.69189 11.9338L7.69189 11.9344L22.5762 11.9344ZM12.4895 19.2864L7.93091 19.2864C7.42603 19.2864 6.9624 18.9599 6.84277 18.4759C6.67358 17.7908 7.21631 17.1579 7.88965 17.1579L12.3523 17.1579C12.9644 17.1579 13.4888 17.6569 13.4692 18.2663C13.4517 18.8286 13.0637 19.2864 12.4895 19.2864ZM24.6587 28.509C27.7615 28.509 30.2769 26.132 30.2769 23.2009C30.2769 20.2694 27.7615 17.8928 24.6587 17.8928C21.8335 17.8928 19.4951 19.8637 19.0996 22.4288L25.699 22.4288L23.9553 20.6851C23.6538 20.3836 23.6538 19.8948 23.9553 19.5932C24.2568 19.2917 24.7456 19.2917 25.0471 19.5932L28.1089 22.655C28.4104 22.9565 28.4104 23.4453 28.1089 23.7468L25.0471 26.8085C24.7456 27.11 24.2568 27.11 23.9553 26.8085C23.6538 26.507 23.6538 26.0182 23.9553 25.7167L25.699 23.9729L19.0999 23.9729C19.4958 26.5387 21.8337 28.5083 24.6587 28.5083L24.6587 28.509Z" fill-rule="evenodd" fill="#FFFFFF" fill-opacity="1.000000"/>
	<defs/>
</svg>
