<svg width="16.000000" height="16.000000" viewBox="0 0 16 16" fill="none" xmlns="http://www.w3.org/2000/svg" xmlns:xlink="http://www.w3.org/1999/xlink">
	<desc>
			Created with Pixso.
	</desc>
	<path d="M5.03107 12.0296L12.0296 5.03106C12.3225 4.73817 12.3225 4.2633 12.0296 3.9704C11.7367 3.67751 11.2618 3.67751 10.9689 3.9704L3.9704 10.9689C3.67751 11.2618 3.67751 11.7367 3.9704 12.0296C4.26329 12.3225 4.73817 12.3225 5.03107 12.0296Z" fill-rule="evenodd" fill="#332929"/>
	<path d="M3.9704 5.03106L10.9689 12.0296C11.2618 12.3225 11.7367 12.3225 12.0296 12.0296C12.3225 11.7367 12.3225 11.2618 12.0296 10.9689L5.03107 3.9704C4.73817 3.67751 4.26329 3.67751 3.9704 3.9704C3.67751 4.2633 3.67751 4.73817 3.9704 5.03106Z" fill-rule="evenodd" fill="#332929"/>
	<defs/>
</svg>
