<svg width="20.000000" height="20.000000" viewBox="0 0 20 20" fill="none" xmlns="http://www.w3.org/2000/svg" xmlns:xlink="http://www.w3.org/1999/xlink">
	<desc>
			Created with Pixso.
	</desc>
	<path d="M1.5 10.5L17.8521 10.5C18.1282 10.5 18.3521 10.2761 18.3521 10C18.3521 9.72388 18.1282 9.5 17.8521 9.5L1.5 9.5C1.22386 9.5 1 9.72388 1 10C1 10.2761 1.22386 10.5 1.5 10.5Z" fill-rule="evenodd" fill="#424250"/>
	<path d="M9.6626 8.40015L3.28687 2.57019C2.95012 2.26227 3.16797 1.7012 3.62427 1.7012L16.3757 1.7012C16.832 1.7012 17.0499 2.26227 16.7131 2.57019L10.3374 8.40015C10.1464 8.57477 9.85362 8.57477 9.6626 8.40015ZM4.91202 2.7012L10 7.35364L15.088 2.7012L4.91202 2.7012Z" fill-rule="evenodd" fill="#424250" fill-opacity="1.000000"/>
	<path d="M10.3374 11.5999L16.7131 17.4298C17.0499 17.7377 16.832 18.2988 16.3757 18.2988L3.62427 18.2988C3.16795 18.2988 2.9501 17.7377 3.28687 17.4298L9.6626 11.5999C9.85362 11.4252 10.1464 11.4252 10.3374 11.5999ZM15.088 17.2988L10 12.6464L4.91202 17.2988L15.088 17.2988Z" fill-rule="evenodd" fill="#424250" fill-opacity="1.000000"/>
	<defs/>
</svg>
