<svg width="28.000000" height="28.000000" viewBox="0 0 28 28" fill="none" xmlns="http://www.w3.org/2000/svg" xmlns:xlink="http://www.w3.org/1999/xlink">
	<desc>
			Created with Pixso.
	</desc>
	<path d="M23.7207 4.31873C23.7153 2.60082 22.3196 1.21187 20.6018 1.21494L5.01904 1.21497L5.00366 1.21493C3.28955 1.21493 1.8999 2.60455 1.8999 4.31872L1.8999 23.0358L1.8999 23.0525C1.90845 24.7667 3.30469 26.1494 5.01904 26.141L16.897 26.141C15.563 24.9111 14.7231 23.1566 14.7231 21.2063C14.719 19.029 15.7842 16.9883 17.573 15.7469C17.5127 15.5783 17.4819 15.4006 17.4819 15.2215C17.4824 14.3606 18.1807 13.663 19.0415 13.6634C19.687 13.6634 20.2271 14.0521 20.467 14.6073C20.7668 14.5615 21.082 14.5476 21.3972 14.5476C22.1907 14.5482 22.9775 14.6906 23.7207 14.9682L23.7207 4.31873ZM5.01904 5.89285C5.01514 5.033 5.7041 4.33029 6.56396 4.31736L19.0569 4.31736C19.9138 4.33106 20.5981 5.0358 20.5864 5.89285L20.5864 8.98276C20.5896 9.84154 19.9016 10.5432 19.043 10.5569L6.56396 10.5569C5.70874 10.5569 5.01904 9.86698 5.01904 8.98276L5.01904 5.89285ZM5.00439 15.2216C5.00439 14.3603 5.70264 13.662 6.56396 13.662C7.41895 13.662 8.12402 14.3519 8.12402 15.2209C8.12402 16.0912 7.43433 16.7811 6.56396 16.7811C5.70264 16.7811 5.00439 16.0829 5.00439 15.2216ZM12.8035 13.662C11.9421 13.662 11.2439 14.3603 11.2439 15.2216C11.2439 16.0829 11.9421 16.7811 12.8035 16.7811C13.6724 16.7811 14.3623 16.0912 14.3623 15.2209C14.3623 14.3519 13.6584 13.662 12.8035 13.662ZM21.3513 15.7178C24.4055 15.7155 26.8833 18.1895 26.8857 21.2438L26.8857 21.2522C26.8872 24.3064 24.4124 26.7836 21.3582 26.7851L21.3513 26.7851C18.2971 26.7874 15.8191 24.3133 15.8169 21.2591L15.8169 21.2522L15.8169 21.2521C15.8147 18.1979 18.2886 15.7201 21.3428 15.7178L21.3511 15.7178L21.3513 15.7178ZM21.3513 18.0567C20.9236 18.0537 20.5742 18.3979 20.5713 18.8257L20.5713 20.472L18.9375 20.472C18.5098 20.4689 18.1604 20.8132 18.1572 21.241L18.1572 21.2521C18.1572 21.6866 18.5015 22.0309 18.9375 22.0309L20.5713 22.0309L20.5713 23.666C20.5713 24.1005 20.9167 24.4461 21.3513 24.4461C21.7791 24.4492 22.1284 24.1049 22.1313 23.6772L22.1313 22.0309L23.7666 22.0309C24.196 22.0286 24.5437 21.6815 24.5466 21.2521C24.5498 20.8244 24.2056 20.4751 23.7778 20.472L22.1313 20.472L22.1313 18.8368C22.1345 18.4091 21.7903 18.0598 21.3625 18.0567L21.3513 18.0567ZM5.00513 21.4617C5.00513 20.6008 5.70312 19.9029 6.56396 19.9029L6.56396 19.9015C7.42529 19.9015 8.12354 20.5997 8.12354 21.461C8.12354 22.3223 7.42529 23.0206 6.56396 23.0206C5.70288 23.0206 5.00513 22.3227 5.00513 21.4617ZM12.8035 19.9029C11.9426 19.9029 11.2446 20.6008 11.2446 21.4617C11.2446 22.3227 11.9426 23.0206 12.8035 23.0206C13.6648 23.0206 14.363 22.3223 14.363 21.461C14.363 20.5997 13.6648 19.9015 12.8035 19.9015L12.8035 19.9029Z" fill-rule="evenodd" fill="#FFFFFF" fill-opacity="1.000000"/>
	<defs/>
</svg>
