<svg width="16.000000" height="16.000000" viewBox="0 0 16 16" fill="none" xmlns="http://www.w3.org/2000/svg" xmlns:xlink="http://www.w3.org/1999/xlink">
	<desc>
			Created with Pixso.
	</desc>
	<path d="M0.372662 8.46899C0.28038 8.31152 0.27301 8.11841 0.353031 7.95435C2.16438 4.24658 4.69657 2.34692 7.90923 2.34692C11.1208 2.34692 13.6661 4.24438 15.508 7.95117C15.5895 8.11597 15.5825 8.31055 15.4894 8.46899C13.629 11.6382 11.0946 13.2522 7.93105 13.2522C4.76854 13.2522 2.23309 11.6382 0.372662 8.46899ZM14.3967 8.17041C12.7424 4.98828 10.5919 3.4375 7.90814 3.4375C5.22656 3.4375 3.09023 4.98608 1.46427 8.16919C3.1175 10.8496 5.25927 12.1616 7.93105 12.1616C10.6028 12.1616 12.7435 10.8496 14.3967 8.17041ZM7.93105 10.5259C6.42535 10.5259 5.20475 9.30518 5.20475 7.79956C5.20475 6.29395 6.42535 5.07324 7.93105 5.07324C9.43674 5.07324 10.6573 6.29395 10.6573 7.79956C10.6573 9.30518 9.43674 10.5259 7.93105 10.5259ZM7.93105 9.4353C8.83446 9.4353 9.56682 8.70288 9.56682 7.79956C9.56682 6.896 8.83446 6.16382 7.93105 6.16382C7.02763 6.16382 6.29527 6.896 6.29527 7.79956C6.29527 8.70288 7.02763 9.4353 7.93105 9.4353Z" fill-rule="evenodd" fill="#FFFFFF" fill-opacity="1.000000"/>
	<defs/>
</svg>
