<svg width="16.000000" height="16.000000" viewBox="0 0 16 16" fill="none" xmlns="http://www.w3.org/2000/svg" xmlns:xlink="http://www.w3.org/1999/xlink">
	<desc>
			Created with Pixso.
	</desc>
	<rect width="16.000000" height="16.000000" fill="#E5E5E5"/>
	<path d="M13.0713 9.94604L4.73869 9.94604L3.58328 1.52002C3.54933 1.27246 3.33781 1.08789 3.08792 1.08789L0.855415 1.08789C0.579273 1.08789 0.355415 1.31177 0.355415 1.58789C0.355415 1.86401 0.579273 2.08789 0.855415 2.08789L2.6518 2.08789L3.80721 10.5139C3.84116 10.7617 4.05268 10.946 4.30257 10.946L13.4702 10.946C13.7036 10.946 13.9059 10.7847 13.9577 10.5571L15.6319 3.20703C15.7032 2.89404 15.4653 2.59595 15.1444 2.59595L5.81691 2.59595C5.54077 2.59595 5.31691 2.81982 5.31691 3.09595C5.31691 3.37207 5.54077 3.59595 5.81691 3.59595L14.5177 3.59595L13.0713 9.94604ZM5.66782 13.3721C5.66782 14.2224 4.97836 14.9119 4.12787 14.9119C3.27737 14.9119 2.58792 14.2224 2.58792 13.3721C2.58792 12.5215 3.27737 11.832 4.12787 11.832C4.97836 11.832 5.66782 12.5215 5.66782 13.3721ZM3.58792 13.3721C3.58792 13.6702 3.82966 13.9119 4.12787 13.9119C4.42608 13.9119 4.66782 13.6702 4.66782 13.3721C4.66782 13.0737 4.42608 12.832 4.12787 12.832C3.82966 12.832 3.58792 13.0737 3.58792 13.3721ZM15.6444 13.3721C15.6444 14.2224 14.9549 14.9119 14.1044 14.9119C13.2539 14.9119 12.5645 14.2224 12.5645 13.3721C12.5645 12.5215 13.2539 11.832 14.1044 11.832C14.9549 11.832 15.6444 12.5215 15.6444 13.3721ZM13.5645 13.3721C13.5645 13.6702 13.8062 13.9119 14.1044 13.9119C14.4026 13.9119 14.6444 13.6702 14.6444 13.3721C14.6444 13.0737 14.4026 12.832 14.1044 12.832C13.8062 12.832 13.5645 13.0737 13.5645 13.3721Z" fill-rule="evenodd" fill="#7F8081" fill-opacity="1.000000"/>
	<defs/>
</svg>
