<svg width="20.000000" height="20.000000" viewBox="0 0 20 20" fill="none" xmlns="http://www.w3.org/2000/svg" xmlns:xlink="http://www.w3.org/1999/xlink">
	<desc>
			Created with Pixso.
	</desc>
	<path d="M3.16339 7.23478L10 3.28766L16.8366 7.23478L16.8366 16.7087L12.4414 16.7087C12.0272 16.7087 11.6914 17.0445 11.6914 17.4587C11.6914 17.873 12.0272 18.2087 12.4414 18.2087L17.0866 18.2087C17.777 18.2087 18.3366 17.6491 18.3366 16.9587L18.3366 7.09044C18.3366 6.64386 18.0984 6.2312 17.7116 6.00791L10.625 1.91645C10.2383 1.69316 9.76175 1.69316 9.375 1.91645L2.28839 6.00791C1.90164 6.2312 1.66339 6.64386 1.66339 7.09044L1.66339 10.5698C1.66339 10.984 1.99918 11.3198 2.41339 11.3198C2.82761 11.3198 3.16339 10.984 3.16339 10.5698L3.16339 7.23478Z" fill-rule="evenodd" fill="#887E7E"/>
	<path d="M6.49542 16.9284C6.20255 17.2213 6.20255 17.6962 6.49542 17.9891C6.78833 18.282 7.26318 18.282 7.55609 17.9891L10.5303 15.0148C10.8232 14.7219 10.8232 14.2471 10.5303 13.9542L7.55609 10.9799C7.26318 10.6871 6.78833 10.6871 6.49542 10.9799C6.20255 11.2728 6.20255 11.7477 6.49542 12.0406L8.93933 14.4845L6.49542 16.9284Z" fill-rule="evenodd" fill="#887E7E"/>
	<path d="M9.02145 13.7345L2.41339 13.7345C1.99918 13.7345 1.66339 14.0703 1.66339 14.4845C1.66339 14.8987 1.99918 15.2345 2.41339 15.2345L9.02145 15.2345C9.43567 15.2345 9.77145 14.8987 9.77145 14.4845C9.77145 14.0703 9.43567 13.7345 9.02145 13.7345Z" fill-rule="evenodd" fill="#887E7E"/>
	<defs/>
</svg>
