<svg width="28.000000" height="28.000000" viewBox="0 0 28 28" fill="none" xmlns="http://www.w3.org/2000/svg" xmlns:xlink="http://www.w3.org/1999/xlink">
	<desc>
			Created with Pixso.
	</desc>
	<path d="M19.0679 22.0004C19.0679 23.125 19.9834 24.0405 21.1082 24.0405C22.2327 24.0405 23.147 23.1249 23.147 22.0004C23.147 20.8758 22.2324 19.9614 21.1082 19.9614C19.9834 19.9614 19.0679 20.8759 19.0679 22.0004ZM7.62524 22.0004C7.62524 23.125 8.53955 24.0405 9.66406 24.0405C10.7886 24.0405 11.7036 23.1249 11.7036 22.0004C11.7036 20.8758 10.7888 19.9614 9.66406 19.9614C8.53955 19.9614 7.62524 20.8759 7.62524 22.0004ZM16.5542 4.82461C16.5542 4.37808 16.1907 4.01512 15.7446 4.01512L1.90063 4.01512C1.4541 4.01512 1.09106 4.37808 1.09106 4.82461L1.09106 15.0193C1.09106 15.4652 1.4541 15.8288 1.90063 15.8288L15.7446 15.8288C16.1907 15.8288 16.5542 15.4652 16.5542 15.0193L16.5542 15.0193L16.5542 4.82461ZM22.772 9.16498C22.3652 8.70478 21.4692 8.30125 20.8562 8.30125L18.0884 8.30125L18.0884 15.2697C18.0884 16.3782 17.1868 17.28 16.0781 17.28L3.40674 17.28L3.40674 20.2751C3.40674 20.7313 3.77808 21.1032 4.23462 21.1032L6.27954 21.1032C6.67432 19.6559 8 18.5882 9.57104 18.5882C11.1421 18.5882 12.468 19.6559 12.863 21.1032L17.8257 21.1032C18.2209 19.6559 19.5469 18.5882 21.1184 18.5882C22.689 18.5882 24.0146 19.6559 24.4099 21.1032L26.0789 21.1032C26.5349 21.1032 26.907 20.7313 26.907 20.2751L26.907 16.7684C26.9309 14.5088 26.7646 13.7329 26.4507 13.308L26.4504 13.308L22.772 9.16498Z" fill-rule="evenodd" fill="#FFFFFF" fill-opacity="1.000000"/>
	<defs/>
</svg>
