<svg width="20.000000" height="20.000000" viewBox="0 0 20 20" fill="none" xmlns="http://www.w3.org/2000/svg" xmlns:xlink="http://www.w3.org/1999/xlink">
	<desc>
			Created with Pixso.
	</desc>
	<rect width="20.000000" height="20.000000" fill="#E5E5E5"/>
	<path d="M18.5596 15.746L6.26738 15.746C5.43895 15.746 4.76738 15.0743 4.76738 14.246L4.76738 1.95374C4.76738 1.67761 4.54352 1.45374 4.26738 1.45374C3.99124 1.45374 3.76738 1.67761 3.76738 1.95374L3.76738 14.246C3.76738 15.6266 4.88667 16.746 6.26738 16.746L18.5596 16.746C18.8357 16.746 19.0596 16.5221 19.0596 16.246C19.0596 15.9697 18.8357 15.746 18.5596 15.746Z" fill-rule="evenodd" fill="#424250"/>
	<path d="M5.76738 5.56995L13.4433 5.56995C14.2717 5.56995 14.9433 6.24158 14.9433 7.06995L14.9433 14.7458L15.9433 14.7458L15.9433 7.06995C15.9433 5.68921 14.824 4.56995 13.4433 4.56995L5.76738 4.56995L5.76738 5.56995Z" fill-rule="evenodd" fill="#424250"/>
	<path d="M4.26738 4.56995L2.46701 4.56995C2.19087 4.56995 1.96701 4.79382 1.96701 5.06995C1.96701 5.34607 2.19087 5.56995 2.46701 5.56995L4.26738 5.56995C4.54352 5.56995 4.76738 5.34607 4.76738 5.06995C4.76738 4.79382 4.54352 4.56995 4.26738 4.56995Z" fill-rule="evenodd" fill="#424250"/>
	<path d="M14.9433 16.2458L14.9433 18.0463C14.9433 18.3224 15.1671 18.5463 15.4433 18.5463C15.7194 18.5463 15.9433 18.3224 15.9433 18.0463L15.9433 16.2458C15.9433 15.9697 15.7194 15.7458 15.4433 15.7458C15.1671 15.7458 14.9433 15.9697 14.9433 16.2458Z" fill-rule="evenodd" fill="#424250"/>
	<defs/>
</svg>
