<svg width="20.000000" height="20.000000" viewBox="0 0 20 20" fill="none" xmlns="http://www.w3.org/2000/svg" xmlns:xlink="http://www.w3.org/1999/xlink">
	<desc>
			Created with Pixso.
	</desc>
	<path d="M10.5 18.176L10.5 1.82397C10.5 1.54785 10.2761 1.32397 10 1.32397C9.72386 1.32397 9.5 1.54785 9.5 1.82397L9.5 18.176C9.5 18.4521 9.72386 18.676 10 18.676C10.2761 18.676 10.5 18.4521 10.5 18.176Z" fill-rule="evenodd" fill="#424250"/>
	<path d="M8.4001 10.0134L2.57018 16.3892C2.26225 16.726 1.70117 16.5081 1.70117 16.0518L1.70117 3.30029C1.70117 2.84399 2.26225 2.62622 2.57018 2.96289L8.4001 9.33862C8.57478 9.52966 8.57478 9.82239 8.4001 10.0134ZM2.70117 14.764L7.35359 9.67603L2.70117 4.58813L2.70117 14.764Z" fill-rule="evenodd" fill="#424250" fill-opacity="1.000000"/>
	<path d="M11.5999 9.33862L17.4298 2.96289C17.7377 2.6261 18.2988 2.84399 18.2988 3.30029L18.2988 16.0518C18.2988 16.5081 17.7377 16.7258 17.4298 16.3892L11.5999 10.0134C11.4252 9.82239 11.4252 9.52966 11.5999 9.33862ZM17.2988 4.58801L12.6464 9.67603L17.2988 14.7639L17.2988 4.58801Z" fill-rule="evenodd" fill="#424250" fill-opacity="1.000000"/>
	<defs/>
</svg>
