<svg width="20.000000" height="20.000000" viewBox="0 0 20 20" fill="none" xmlns="http://www.w3.org/2000/svg" xmlns:xlink="http://www.w3.org/1999/xlink">
	<desc>
			Created with Pixso.
	</desc>
	<rect width="20.000000" height="20.000000" fill="#E5E5E5"/>
	<path d="M18.5596 15.7459L6.26738 15.7459C5.43895 15.7459 4.76738 15.0743 4.76738 14.2459L4.76738 1.95374C4.76738 1.67761 4.54352 1.45374 4.26738 1.45374C3.99124 1.45374 3.76738 1.67761 3.76738 1.95374L3.76738 14.2459C3.76738 15.6266 4.88667 16.7459 6.26738 16.7459L18.5596 16.7459C18.8357 16.7459 19.0596 16.5221 19.0596 16.2459C19.0596 15.9698 18.8357 15.7459 18.5596 15.7459Z" fill-rule="evenodd" fill="#27BA9B"/>
	<path d="M5.76738 5.57001L13.4433 5.57001C14.2717 5.57001 14.9433 6.24158 14.9433 7.07001L14.9433 14.7459L15.9433 14.7459L15.9433 7.07001C15.9433 5.68927 14.824 4.57001 13.4433 4.57001L5.76738 4.57001L5.76738 5.57001Z" fill-rule="evenodd" fill="#27BA9B"/>
	<path d="M4.26738 4.57001L2.46701 4.57001C2.19087 4.57001 1.96701 4.79388 1.96701 5.07001C1.96701 5.34613 2.19087 5.57001 2.46701 5.57001L4.26738 5.57001C4.54352 5.57001 4.76738 5.34613 4.76738 5.07001C4.76738 4.79388 4.54352 4.57001 4.26738 4.57001Z" fill-rule="evenodd" fill="#27BA9B"/>
	<path d="M14.9433 16.2459L14.9433 18.0463C14.9433 18.3224 15.1671 18.5463 15.4433 18.5463C15.7194 18.5463 15.9433 18.3224 15.9433 18.0463L15.9433 16.2459C15.9433 15.9698 15.7194 15.7459 15.4433 15.7459C15.1671 15.7459 14.9433 15.9698 14.9433 16.2459Z" fill-rule="evenodd" fill="#27BA9B"/>
	<defs/>
</svg>
