<svg width="28.000000" height="28.000000" viewBox="0 0 28 28" fill="none" xmlns="http://www.w3.org/2000/svg" xmlns:xlink="http://www.w3.org/1999/xlink">
	<desc>
			Created with Pixso.
	</desc>
	<path d="M25.6299 14.311L17.1003 19.2345C17.0947 19.2261 17.092 19.2177 17.0864 19.2093C16.4807 18.1627 15.5039 17.4119 14.3372 17.0993C13.5249 16.8816 12.6848 16.8927 11.8977 17.1244L5.83008 6.61604L2.02026 5.78151C1.36426 5.63917 0.716797 6.05224 0.574463 6.70815C0.432129 7.36404 0.845215 8.01157 1.50098 8.15392L4.26147 8.75679L9.83252 18.4055C8.52905 19.8234 8.23022 21.9809 9.24341 23.7364C10.0808 25.1878 11.6074 26 13.1733 26C13.9409 26 14.7195 25.8046 15.4285 25.3943C16.4751 24.7887 17.2258 23.8118 17.5386 22.6451C17.6223 22.3325 17.6726 22.0144 17.6892 21.699L26.8467 16.4127C27.4272 16.0805 27.6255 15.3353 27.2905 14.7548C26.9556 14.1742 26.2131 13.9733 25.6299 14.311ZM14.2144 23.2955C13.2124 23.8732 11.9258 23.5299 11.3479 22.5279C10.7703 21.5259 11.1135 20.2392 12.1155 19.6615C12.4392 19.4745 12.7966 19.3796 13.1621 19.3796C13.3435 19.3796 13.5278 19.4047 13.7092 19.4522C14.2507 19.5973 14.7029 19.9434 14.9846 20.429C15.2639 20.9119 15.3364 21.4785 15.1912 22.0199C15.0461 22.5614 14.7 23.0136 14.2144 23.2955ZM12.3975 9.6918L17.1785 6.93143C17.7061 6.6272 17.8875 5.95177 17.5833 5.42146L15.9253 2.55225C15.6211 2.02473 14.9456 1.84332 14.4153 2.14754L9.63428 4.90791C9.10669 5.21213 8.92529 5.88757 9.22949 6.41787L10.8875 9.28709L10.8875 9.28709C11.1917 9.8146 11.8672 9.99602 12.3975 9.6918ZM14.876 16.195C15.1802 16.7225 15.8555 16.9039 16.3857 16.5997L23.7988 12.321C24.3264 12.0168 24.5078 11.3413 24.2036 10.811L21.968 6.93701C21.6638 6.4095 20.9883 6.22808 20.458 6.53231L13.0449 10.811C12.5173 11.118 12.3359 11.7935 12.6401 12.321L14.876 16.195Z" fill-rule="evenodd" fill="#FFFFFF" fill-opacity="1.000000"/>
	<defs/>
</svg>
