<svg width="16.000000" height="16.000000" viewBox="0 0 16 16" fill="none" xmlns="http://www.w3.org/2000/svg" xmlns:xlink="http://www.w3.org/1999/xlink">
	<desc>
			Created with Pixso.
	</desc>
	<rect width="16.000000" height="16.000000" fill="#E5E5E5"/>
	<path d="M14.616 1.88403L14.616 14.116C14.616 14.3921 14.3921 14.616 14.116 14.616L1.88403 14.616C1.60789 14.616 1.38403 14.3921 1.38403 14.116L1.38403 1.88403C1.38403 1.60791 1.60789 1.38403 1.88403 1.38403L14.116 1.38403C14.3921 1.38403 14.616 1.60791 14.616 1.88403ZM2.38403 2.38403L2.38403 13.616L13.616 13.616L13.616 2.38403L2.38403 2.38403ZM9.35914 6.94055C9.35914 7.21667 9.583 7.44055 9.85914 7.44055C10.1353 7.44055 10.3591 7.21667 10.3591 6.94055L10.3591 6.49963L11.2932 6.49963C11.5694 6.49963 11.7932 6.27576 11.7932 5.99963C11.7932 5.72351 11.5694 5.49963 11.2932 5.49963L10.3591 5.49963L10.3591 5.12122C10.3591 4.84509 10.1353 4.62122 9.85914 4.62122C9.583 4.62122 9.35914 4.84509 9.35914 5.12122L9.35914 5.49963L4.70679 5.49963C4.43064 5.49963 4.20679 5.72351 4.20679 5.99963C4.20679 6.27576 4.43064 6.49963 4.70679 6.49963L9.35914 6.49963L9.35914 6.94055ZM6.05274 11.3848C5.7766 11.3848 5.55274 11.1609 5.55274 10.8848L5.55274 10.4438L4.70679 10.4438C4.43064 10.4438 4.20679 10.22 4.20679 9.94385C4.20679 9.66772 4.43064 9.44385 4.70679 9.44385L5.55274 9.44385L5.55274 9.06543C5.55274 8.78931 5.7766 8.56543 6.05274 8.56543C6.32888 8.56543 6.55274 8.78931 6.55274 9.06543L6.55274 9.44385L11.2932 9.44385C11.5694 9.44385 11.7932 9.66772 11.7932 9.94385C11.7932 10.22 11.5694 10.4438 11.2932 10.4438L6.55274 10.4438L6.55274 10.8848C6.55274 11.1609 6.32888 11.3848 6.05274 11.3848Z" fill-rule="evenodd" fill="#7F8081" fill-opacity="1.000000"/>
	<defs/>
</svg>
