<svg width="20.000000" height="20.000000" viewBox="0 0 20 20" fill="none" xmlns="http://www.w3.org/2000/svg" xmlns:xlink="http://www.w3.org/1999/xlink">
	<desc>
			Created with Pixso.
	</desc>
	<rect width="20.000000" height="20.000000" fill="#E5E5E5"/>
	<path d="M15.8313 16.3501C15.1614 17.5103 13.9234 18.2251 12.5837 18.2251L7.41632 18.2251C6.07657 18.2251 4.83859 17.5103 4.1687 16.3501L1.58502 11.875C0.915161 10.7147 0.915161 9.28525 1.58502 8.125L4.1687 3.64993C4.83859 2.48967 6.07657 1.77493 7.41632 1.77493L12.5837 1.77493C13.9234 1.77493 15.1614 2.48967 15.8313 3.64993L18.4149 8.125C19.0848 9.28525 19.0848 10.7147 18.4149 11.875L15.8313 16.3501ZM17.1159 8.875L14.5322 4.39993C14.1303 3.70378 13.3875 3.27493 12.5837 3.27493L7.41632 3.27493C6.61246 3.27493 5.86966 3.70378 5.46774 4.39993L2.88406 8.875C2.48215 9.57115 2.48215 10.4288 2.88406 11.125L5.46774 15.6001C5.86966 16.2962 6.61246 16.7251 7.41632 16.7251L12.5837 16.7251C13.3875 16.7251 14.1303 16.2962 14.5322 15.6001L17.1159 11.125C17.5179 10.4288 17.5179 9.57115 17.1159 8.875Z" fill-rule="evenodd" fill="#FFB200" fill-opacity="1.000000"/>
	<path d="M17.7654 11.5L15.1818 15.9751C14.6459 16.9033 13.6555 17.4751 12.5837 17.4751L7.41632 17.4751C6.34451 17.4751 5.35413 16.9033 4.81824 15.9751L2.23456 11.5C1.69867 10.5718 1.69867 9.4282 2.23456 8.5L4.81824 4.02493C5.35413 3.09673 6.34451 2.52493 7.41632 2.52493L12.5837 2.52493C13.6555 2.52493 14.6459 3.09673 15.1818 4.02493L17.7654 8.5C18.3013 9.4282 18.3013 10.5718 17.7654 11.5Z" fill-rule="evenodd" fill="#FFB200"/>
	<path d="M13.6317 9.97841C13.6317 11.9841 12.0057 13.6101 10 13.6101C7.99429 13.6101 6.36835 11.9841 6.36835 9.97841C6.36835 7.97271 7.99429 6.34676 10 6.34676C12.0057 6.34676 13.6317 7.97271 13.6317 9.97841ZM7.86835 9.97841C7.86835 11.1557 8.82272 12.1101 10 12.1101C11.1773 12.1101 12.1317 11.1557 12.1317 9.97841C12.1317 8.80113 11.1773 7.84676 10 7.84676C8.82272 7.84676 7.86835 8.80113 7.86835 9.97841Z" fill-rule="evenodd" fill="#FFFFFF" fill-opacity="1.000000"/>
	<defs/>
</svg>
