<svg width="14.000000" height="17.000000" viewBox="0 0 14 17" fill="none" xmlns="http://www.w3.org/2000/svg" xmlns:xlink="http://www.w3.org/1999/xlink">
	<desc>
			Created with Pixso.
	</desc>
	<path d="M1.12537 0.553583L1.12537 0.553583C0.914673 0.553112 0.713013 0.639406 0.567749 0.792248L0.567749 0.792248C0.422363 0.942736 0.337524 1.14165 0.329468 1.3509L0.329468 15.7027L0.329468 15.7027C0.328979 15.9138 0.415161 16.1158 0.567749 16.2614L0.567749 16.2614C0.714111 16.4126 0.915039 16.4985 1.12537 16.5L12.7986 16.5L12.7986 16.5C13.0093 16.5005 13.2109 16.4142 13.3562 16.2614L13.3562 16.2614C13.5072 16.1146 13.593 15.9134 13.5945 15.7027L13.5945 5.07174L9.08435 0.553583L1.12537 0.553583Z" fill-rule="evenodd" fill="#5ACC9B"/>
	<path d="M13.5945 5.06702L9.88403 5.06702L9.88403 5.06702C9.44897 5.05768 9.09839 4.70655 9.08911 4.27065L9.08911 0.553581L13.5945 5.06702Z" fill-rule="evenodd" fill="#BDEBD7"/>
	<path d="M6.33752 8.94354L4.48779 6.35597L5.7655 6.35597L6.97583 8.20895L8.23962 6.35597L9.47754 6.35597L7.58813 8.94354L9.57251 11.6954L8.2821 11.6954L6.94983 9.73501L5.61743 11.7081L4.35144 11.7081L6.33752 8.94354Z" fill-rule="evenodd" fill="#FFFFFF"/>
	<defs/>
</svg>
