<svg width="18.000000" height="18.000000" viewBox="0 0 18 18" fill="none" xmlns="http://www.w3.org/2000/svg" xmlns:xlink="http://www.w3.org/1999/xlink">
	<desc>
			Created with Pixso.
	</desc>
	<path d="M14.5062 7.41006L14.5062 14.8545C14.5062 15.4124 14.0538 15.8648 13.4958 15.8648L4.40344 15.8648C3.84552 15.8648 3.39319 15.4124 3.39319 14.8545L3.39319 7.41006L3.39319 7.41006L14.5062 7.41006Z" fill-rule="evenodd" fill="#D8D8D8"/>
	<path d="M14.2125 7.23328L14.2125 14.6777C14.2125 14.9595 13.9841 15.188 13.7022 15.188L4.6098 15.188C4.328 15.188 4.09955 14.9595 4.09955 14.6777L4.09955 7.23328L3.09955 7.23328L3.09955 14.6777C3.09955 15.5118 3.7757 16.188 4.6098 16.188L13.7022 16.188C14.5363 16.188 15.2125 15.5118 15.2125 14.6777L15.2125 7.23328L14.2125 7.23328Z" fill-rule="evenodd" fill="#424250"/>
	<path d="M10.5964 8.76965L10.5964 12.8753C10.5964 13.1515 10.8203 13.3753 11.0964 13.3753C11.3725 13.3753 11.5964 13.1515 11.5964 12.8753L11.5964 8.76965C11.5964 8.4935 11.3725 8.26965 11.0964 8.26965C10.8203 8.26965 10.5964 8.4935 10.5964 8.76965Z" fill-rule="evenodd" fill="#424250"/>
	<path d="M6.6355 8.76965L6.6355 12.8753C6.6355 13.1515 6.85938 13.3753 7.1355 13.3753C7.41162 13.3753 7.6355 13.1515 7.6355 12.8753L7.6355 8.76965C7.6355 8.4935 7.41162 8.26965 7.1355 8.26965C6.85938 8.26965 6.6355 8.4935 6.6355 8.76965Z" fill-rule="evenodd" fill="#424250"/>
	<path d="M2.08411 5.8428L15.9158 5.8428C16.192 5.8428 16.4158 5.61896 16.4158 5.3428C16.4158 5.06665 16.192 4.8428 15.9158 4.8428L2.08411 4.8428C1.80798 4.8428 1.58411 5.06665 1.58411 5.3428C1.58411 5.61896 1.80798 5.8428 2.08411 5.8428Z" fill-rule="evenodd" fill="#424250"/>
	<path d="M13.3783 3.31201L13.3783 5.3428C13.3783 5.61896 13.1544 5.8428 12.8783 5.8428L5.43372 5.8428C5.15759 5.8428 4.93372 5.61896 4.93372 5.3428L4.93372 3.31201C4.93372 2.48358 5.60529 1.81201 6.43372 1.81201L11.8783 1.81201C12.7067 1.81201 13.3783 2.48358 13.3783 3.31201ZM11.8783 2.81201L6.43372 2.81201C6.15759 2.81201 5.93372 3.03586 5.93372 3.31201L5.93372 4.8428L12.3783 4.8428L12.3783 3.31201C12.3783 3.03586 12.1544 2.81201 11.8783 2.81201Z" fill-rule="evenodd" fill="#424250" fill-opacity="1.000000"/>
	<defs/>
</svg>
