<svg width="20.000000" height="20.000000" viewBox="0 0 20 20" fill="none" xmlns="http://www.w3.org/2000/svg" xmlns:xlink="http://www.w3.org/1999/xlink">
	<desc>
			Created with Pixso.
	</desc>
	<rect width="20.000000" height="20.000000" fill="#E5E5E5"/>
	<path d="M9.05359 3.46021L9.05359 9.98169C9.05359 10.534 8.60588 10.9817 8.05359 10.9817L3.33313 10.9817C2.78084 10.9817 2.33313 10.534 2.33313 9.98169L2.33313 3.46021C2.33313 2.90792 2.78084 2.46021 3.33313 2.46021L8.05359 2.46021C8.60588 2.46021 9.05359 2.90792 9.05359 3.46021ZM3.83313 3.96021L3.83313 9.48169L7.55359 9.48169L7.55359 3.96021L3.83313 3.96021Z" fill-rule="evenodd" fill="#887E7E" fill-opacity="1.000000"/>
	<path d="M10.9464 16.5398L10.9464 10.0183C10.9464 9.46603 11.3941 9.01831 11.9464 9.01831L16.6669 9.01831C17.2192 9.01831 17.6669 9.46603 17.6669 10.0183L17.6669 16.5398C17.6669 17.0921 17.2192 17.5398 16.6669 17.5398L11.9464 17.5398C11.3941 17.5398 10.9464 17.0921 10.9464 16.5398ZM16.1669 10.5183L12.4464 10.5183L12.4464 16.0398L16.1669 16.0398L16.1669 10.5183Z" fill-rule="evenodd" fill="#887E7E" fill-opacity="1.000000"/>
	<path d="M9.05359 13.6643L9.05359 16.5398C9.05359 17.0921 8.60588 17.5398 8.05359 17.5398L3.33313 17.5398C2.78084 17.5398 2.33313 17.0921 2.33313 16.5398L2.33313 13.6643C2.33313 13.112 2.78084 12.6643 3.33313 12.6643L8.05359 12.6643C8.60588 12.6643 9.05359 13.112 9.05359 13.6643ZM3.83313 14.1643L3.83313 16.0398L7.55359 16.0398L7.55359 14.1643L3.83313 14.1643Z" fill-rule="evenodd" fill="#887E7E" fill-opacity="1.000000"/>
	<path d="M10.9464 6.33569L10.9464 3.46021C10.9464 2.90792 11.3941 2.46021 11.9464 2.46021L16.6669 2.46021C17.2192 2.46021 17.6669 2.90792 17.6669 3.46021L17.6669 6.33569C17.6669 6.88798 17.2192 7.33569 16.6669 7.33569L11.9464 7.33569C11.3941 7.33569 10.9464 6.88798 10.9464 6.33569ZM16.1669 5.83569L16.1669 3.96021L12.4464 3.96021L12.4464 5.83569L16.1669 5.83569Z" fill-rule="evenodd" fill="#887E7E" fill-opacity="1.000000"/>
	<defs/>
</svg>
