<svg width="16.000000" height="16.000000" viewBox="0 0 16 16" fill="none" xmlns="http://www.w3.org/2000/svg" xmlns:xlink="http://www.w3.org/1999/xlink">
	<desc>
			Created with Pixso.
	</desc>
	<path d="M11.182 8L7.46967 11.7123C7.17678 12.0052 7.17677 12.4801 7.46967 12.773C7.76257 13.0659 8.23743 13.0659 8.53033 12.773L12.773 8.53033C13.0659 8.23744 13.0659 7.76257 12.773 7.46967L8.53033 3.22703C8.23743 2.93414 7.76257 2.93414 7.46967 3.22703C7.17677 3.51992 7.17677 3.9948 7.46967 4.28769L11.182 8Z" fill-rule="evenodd" fill="#887E7E"/>
	<path d="M11.3604 7.25L3.85303 7.25C3.43881 7.25 3.10303 7.58578 3.10303 8C3.10303 8.41422 3.43881 8.75 3.85303 8.75L11.3604 8.75C11.7746 8.75 12.1104 8.41422 12.1104 8C12.1104 7.58578 11.7746 7.25 11.3604 7.25Z" fill-rule="evenodd" fill="#887E7E"/>
	<defs/>
</svg>
