<svg width="28.000000" height="28.000000" viewBox="0 0 28 28" fill="none" xmlns="http://www.w3.org/2000/svg" xmlns:xlink="http://www.w3.org/1999/xlink">
	<desc>
			Created with Pixso.
	</desc>
	<rect width="28.000000" height="28.000000" fill="#E5E5E5"/>
	<path d="M23.7349 4.31873C23.7295 2.60082 22.3337 1.21187 20.616 1.21494L5.0332 1.21497L5.01782 1.21493C3.30371 1.21493 1.91406 2.60455 1.91406 4.31872L1.91406 23.0358L1.91406 23.0525C1.92261 24.7667 3.31885 26.1494 5.0332 26.141L16.9111 26.141C15.5771 24.9111 14.7373 23.1566 14.7373 21.2063C14.7332 19.029 15.7983 16.9883 17.5872 15.7469C17.5269 15.5783 17.4961 15.4006 17.4961 15.2215C17.4966 14.3606 18.1948 13.663 19.0557 13.6634C19.7012 13.6634 20.2412 14.0521 20.4812 14.6073C20.781 14.5615 21.0962 14.5476 21.4114 14.5476C22.2048 14.5482 22.9917 14.6906 23.7349 14.9682L23.7349 4.31873ZM5.0332 5.89285C5.0293 5.033 5.71826 4.33029 6.57812 4.31736L19.071 4.31736C19.928 4.33106 20.6123 5.0358 20.6006 5.89285L20.6006 8.98276C20.6038 9.84154 19.9158 10.5432 19.0571 10.5569L6.57812 10.5569C5.7229 10.5569 5.0332 9.86698 5.0332 8.98276L5.0332 5.89285ZM5.01855 15.2216C5.01855 14.3603 5.7168 13.662 6.57812 13.662C7.43311 13.662 8.13818 14.3519 8.13818 15.2209C8.13818 16.0912 7.44849 16.7811 6.57812 16.7811C5.7168 16.7811 5.01855 16.0829 5.01855 15.2216ZM12.8176 13.662C11.9563 13.662 11.2581 14.3603 11.2581 15.2216C11.2581 16.0829 11.9563 16.7811 12.8176 16.7811C13.6865 16.7811 14.3765 16.0912 14.3765 15.2209C14.3765 14.3519 13.6726 13.662 12.8176 13.662ZM21.3655 15.7178C24.4197 15.7155 26.8975 18.1895 26.8999 21.2438L26.8999 21.2522C26.9014 24.3064 24.4265 26.7836 21.3723 26.7851L21.3655 26.7851C18.3113 26.7874 15.8333 24.3133 15.8311 21.2591L15.8311 21.2522L15.8311 21.2521C15.8289 18.1979 18.3027 15.7201 21.3569 15.7178L21.3652 15.7178L21.3655 15.7178ZM21.3655 18.0567C20.9377 18.0537 20.5884 18.3979 20.5854 18.8257L20.5854 20.472L18.9517 20.472C18.5239 20.4689 18.1746 20.8132 18.1714 21.241L18.1714 21.2521C18.1714 21.6866 18.5156 22.0309 18.9517 22.0309L20.5854 22.0309L20.5854 23.666C20.5854 24.1005 20.9309 24.4461 21.3655 24.4461C21.7932 24.4492 22.1426 24.1049 22.1455 23.6772L22.1455 22.0309L23.7808 22.0309C24.2102 22.0286 24.5579 21.6815 24.5608 21.2521C24.564 20.8244 24.2197 20.4751 23.792 20.472L22.1455 20.472L22.1455 18.8368C22.1487 18.4091 21.8044 18.0598 21.3767 18.0567L21.3655 18.0567ZM5.01929 21.4617C5.01929 20.6008 5.71729 19.9029 6.57812 19.9029L6.57812 19.9015C7.43945 19.9015 8.1377 20.5997 8.1377 21.461C8.1377 22.3223 7.43945 23.0206 6.57812 23.0206C5.71704 23.0206 5.01929 22.3227 5.01929 21.4617ZM12.8176 19.9029C11.9568 19.9029 11.2588 20.6008 11.2588 21.4617C11.2588 22.3227 11.9568 23.0206 12.8176 23.0206C13.679 23.0206 14.3772 22.3223 14.3772 21.461C14.3772 20.5997 13.679 19.9015 12.8176 19.9015L12.8176 19.9029Z" fill-rule="evenodd" fill="#FFFFFF" fill-opacity="1.000000"/>
	<defs/>
</svg>
