<svg width="28.000000" height="28.000000" viewBox="0 0 28 28" fill="none" xmlns="http://www.w3.org/2000/svg" xmlns:xlink="http://www.w3.org/1999/xlink">
	<desc>
			Created with Pixso.
	</desc>
	<rect width="28.000000" height="28.000000" fill="#E5E5E5"/>
	<path d="M7.38184 4.10345C9.19531 4.10345 10.6809 5.58699 10.6809 7.40267C10.6809 9.21613 9.19751 10.7019 7.38184 10.7019C5.56836 10.7019 4.08252 9.21613 4.08252 7.40267C4.08252 5.5892 5.56616 4.10345 7.38184 4.10345ZM23.9177 7.40267C23.9177 5.5892 22.4341 4.10345 20.6184 4.10345C18.8049 4.10345 17.3193 5.58699 17.3193 7.40267C17.3193 9.21613 18.783 10.7019 20.6184 10.7019C22.4319 10.7019 23.9177 9.21835 23.9177 7.40267ZM17.3193 15.6507L17.3193 16.9704L14 18.8879L10.7009 16.9704L10.7009 15.6507C10.7009 13.8373 9.21729 12.3515 7.40161 12.3515C5.58594 12.3515 4.10254 13.835 4.10254 15.6507L4.10254 23.0729C4.10254 23.5268 4.47437 23.8966 4.92603 23.8966L9.875 23.8966C10.3289 23.8966 10.6987 23.5246 10.6987 23.0729L10.6987 18.8879L13.5439 20.5375C13.564 20.5375 13.564 20.5575 13.5859 20.5575C13.834 20.7014 14.1418 20.7235 14.4097 20.5575L17.3171 18.8658L17.3171 23.0729C17.3171 23.5268 17.689 23.8966 18.1406 23.8966L23.0896 23.8966C23.5435 23.8966 23.9133 23.5246 23.9133 23.0729L23.9133 15.6485C23.9177 13.835 22.4341 12.3515 20.6184 12.3515L20.6184 12.3515C18.8049 12.3515 17.3193 13.835 17.3193 15.6507Z" fill-rule="evenodd" fill="#FFFFFF" fill-opacity="1.000000"/>
	<defs/>
</svg>
