<svg width="28.000000" height="28.000000" viewBox="0 0 28 28" fill="none" xmlns="http://www.w3.org/2000/svg" xmlns:xlink="http://www.w3.org/1999/xlink">
	<desc>
			Created with Pixso.
	</desc>
	<path d="M18.5981 2.52332L4.81152 2.52332C3.5354 2.52332 2.52344 3.54999 2.52344 4.81132L2.52344 18.598C2.52344 19.214 2.77271 19.786 3.198 20.226C3.62354 20.6513 4.21021 20.9007 4.82617 20.9007L18.6128 20.9007C19.2288 20.9007 19.8008 20.6513 20.2407 20.226C20.666 19.8007 20.9155 19.214 20.9155 18.598L20.9155 7.06999L23.1741 7.06999L23.1741 7.05532L20.9155 7.05532L20.9155 4.81132C20.9153 4.80153 20.915 4.79176 20.9146 4.78199L23.1741 4.78199C23.79 4.78199 24.3767 5.03132 24.8022 5.45666C25.2275 5.89666 25.4768 6.46866 25.4768 7.08466L25.4768 7.06999C25.4768 6.45399 25.2275 5.88199 24.8022 5.44199C24.3767 5.01665 23.79 4.76732 23.1741 4.76732L20.9141 4.76732C20.8889 4.16812 20.6414 3.61318 20.2261 3.19799C19.8008 2.77265 19.2141 2.52332 18.5981 2.52332ZM25.4768 23.1593C25.4768 23.7753 25.2275 24.362 24.8022 24.7873C24.3621 25.2127 23.79 25.462 23.1741 25.462L9.38745 25.462C8.77148 25.462 8.18481 25.2127 7.75952 24.7873C7.33423 24.3473 7.08472 23.7753 7.08472 23.1593L7.08472 23.174C7.08472 23.79 7.33423 24.362 7.75952 24.802C8.18481 25.2273 8.77148 25.4767 9.38745 25.4767L23.1741 25.4767C23.79 25.4767 24.3621 25.2273 24.8022 24.802C25.2275 24.3767 25.4768 23.79 25.4768 23.174L25.4768 23.1593ZM20.9141 4.76732C20.9143 4.77221 20.9143 4.7771 20.9146 4.78199L20.8862 4.78199L20.8862 4.76732L20.9141 4.76732ZM20.9155 7.05532L20.9155 7.06999L20.8862 7.06999L20.8862 7.05532L20.9155 7.05532ZM10.2183 13.5762L10.2183 10.1704L9.27905 11.1191C8.99438 11.4037 8.52002 11.4037 8.22583 11.1191C7.94141 10.8345 7.94141 10.3601 8.22583 10.066L10.4553 7.8366C10.5977 7.69429 10.7778 7.6184 10.9771 7.6184C11.1763 7.6184 11.366 7.69429 11.4988 7.8366L13.7283 10.066C13.918 10.2558 13.9844 10.5309 13.918 10.787C13.8516 11.0432 13.6523 11.2424 13.3962 11.3088C13.1401 11.3752 12.865 11.3088 12.6753 11.1191L11.717 10.1799L11.717 13.5857C11.717 13.9936 12.0396 14.3256 12.457 14.3256L14.6865 14.3256C15.0945 14.3256 15.4265 14.6577 15.4265 15.0656C15.4265 15.4736 15.085 15.8056 14.677 15.8056L12.4475 15.8056C11.2239 15.8056 10.2183 14.8095 10.2183 13.5762Z" fill-rule="evenodd" fill="#FFFFFF" fill-opacity="1.000000"/>
	<defs/>
</svg>
