<svg width="32.000000" height="32.000000" viewBox="0 0 32 32" fill="none" xmlns="http://www.w3.org/2000/svg" xmlns:xlink="http://www.w3.org/1999/xlink">
	<desc>
			Created with Pixso.
	</desc>
	<path d="M19.8323 17.5749C21.5728 16.4823 23.6321 16.0186 25.4946 16.2896C26.1746 16.3889 26.7871 15.8729 26.7871 15.1937L26.7871 4.9987C26.7847 3.93413 25.9028 3.06289 24.8245 3.06289L6.02222 3.06289C4.94653 3.06289 4.06299 3.93479 4.06299 4.9987L4.06299 27.2513C4.06299 28.3159 4.94409 29.1871 6.02222 29.1871L17.7141 29.1871C18.6509 29.1871 19.1575 28.1291 18.5894 27.3944C16.9241 25.2371 16.4282 22.1695 17.9709 19.7034L17.9709 19.704C18.4607 18.9308 19.0471 18.0595 19.8323 17.5749ZM22.6282 6.83457C23.1331 6.83457 23.5967 7.16113 23.7163 7.64508C23.886 8.33018 23.3401 8.96305 22.6694 8.96305L7.82495 8.96305C7.3208 8.96305 6.85693 8.63649 6.73755 8.15254C6.5708 7.46678 7.11353 6.83457 7.78442 6.83457L22.6282 6.83457ZM22.6687 12.0594C23.2551 12.0594 23.7456 12.5427 23.7456 13.1227C23.6465 13.7033 23.2559 14.1872 22.6694 14.1872L7.82495 14.1872C7.3208 14.1872 6.85693 13.8607 6.73755 13.3767C6.5708 12.691 7.11353 12.0588 7.78442 12.0588L7.78442 12.0594L22.6687 12.0594ZM12.582 19.4114L8.02344 19.4114C7.51855 19.4114 7.05493 19.0849 6.9353 18.6009C6.76611 17.9158 7.30884 17.283 7.98218 17.283L12.4448 17.283C13.0569 17.283 13.5813 17.7819 13.5618 18.3913C13.5442 18.9536 13.1562 19.4114 12.582 19.4114ZM28.3506 25.9915C29.3303 24.4436 29.6243 22.3145 28.3506 20.3794C27.9595 19.7994 27.3704 19.3148 26.8806 19.0235C22.0828 16.2191 16.988 21.4433 20.0242 26.1835C20.3181 26.6675 21.2 27.3441 21.6897 27.7314C23.4512 28.6999 25.5103 28.408 26.9766 27.4401L28.446 28.8919C28.6421 29.0846 28.9358 29.1839 29.1318 29.1839C29.3276 29.1839 29.6216 29.0872 29.8176 28.8919C30.3101 28.4113 30.3101 27.828 29.8203 27.4433L28.3506 25.9915ZM21.2024 23.0878C21.2024 21.4433 22.4766 20.1841 24.1389 20.1841C25.8042 20.1841 27.0759 21.4407 27.0759 23.0878C27.0784 24.7349 25.8042 25.9915 24.1389 25.9915C22.4734 25.9915 21.2024 24.7349 21.2024 23.0878Z" fill-rule="evenodd" fill="#FFFFFF" fill-opacity="1.000000"/>
	<defs/>
</svg>
