<svg width="31.689331" height="31.689350" viewBox="0 0 31.6893 31.6894" fill="none" xmlns="http://www.w3.org/2000/svg" xmlns:xlink="http://www.w3.org/1999/xlink">
	<desc>
			Created with Pixso.
	</desc>
	<g filter="url(#filter_1_8710_dd)">
		<circle cx="15.844727" cy="13.844675" r="11.094675" fill="#B5ABAB"/>
		<circle cx="15.844727" cy="13.844675" r="11.094675" stroke="#FFFFFF" stroke-width="1.500000"/>
	</g>
	<path d="M12.8804 17.8696C12.5835 18.1666 12.1167 18.1666 11.8198 17.8696C11.5228 17.5726 11.5228 17.106 11.8198 16.809L18.8091 9.81972C19.106 9.52273 19.5728 9.52273 19.8696 9.81972C20.1666 10.1167 20.1666 10.5834 19.8696 10.8804L12.8804 17.8696Z" fill-rule="evenodd" fill="#FFFFFF"/>
	<path d="M11.8198 10.8804C11.5228 10.5834 11.5228 10.1167 11.8198 9.81972C12.1167 9.52273 12.5835 9.52273 12.8804 9.81972L19.8696 16.809C20.1666 17.106 20.1666 17.5726 19.8696 17.8696C19.5728 18.1666 19.106 18.1666 18.8091 17.8696L11.8198 10.8804Z" fill-rule="evenodd" fill="#FFFFFF"/>
	<defs>
		<filter id="filter_1_8710_dd" x="0.000000" y="0.000000" width="31.689331" height="31.689350" filterUnits="userSpaceOnUse" color-interpolation-filters="sRGB">
			<feFlood flood-opacity="0" result="BackgroundImageFix"/>
			<feColorMatrix in="SourceAlpha" type="matrix" values="0 0 0 0 0 0 0 0 0 0 0 0 0 0 0 0 0 0 127 0"/>
			<feOffset dx="0" dy="2"/>
			<feGaussianBlur stdDeviation="1.33333"/>
			<feColorMatrix type="matrix" values="0 0 0 0 0 0 0 0 0 0 0 0 0 0 0 0 0 0 0.25 0"/>
			<feBlend mode="normal" in2="BackgroundImageFix" result="effect_dropShadow_1"/>
			<feBlend mode="normal" in="SourceGraphic" in2="effect_dropShadow_1" result="shape"/>
		</filter>
	</defs>
</svg>
