<svg width="28.000000" height="28.000000" viewBox="0 0 28 28" fill="none" xmlns="http://www.w3.org/2000/svg" xmlns:xlink="http://www.w3.org/1999/xlink">
	<desc>
			Created with Pixso.
	</desc>
	<rect width="28.000000" height="28.000000" fill="#E5E5E5"/>
	<path d="M19.0679 21.9725C19.0679 23.0972 19.9834 24.0127 21.1082 24.0127C22.2327 24.0127 23.147 23.0971 23.147 21.9725C23.147 20.848 22.2324 19.9336 21.1082 19.9336C19.9834 19.9336 19.0679 20.8481 19.0679 21.9725ZM7.62524 21.9725C7.62524 23.0972 8.53955 24.0127 9.66406 24.0127C10.7886 24.0127 11.7036 23.0971 11.7036 21.9725C11.7036 20.848 10.7888 19.9336 9.66406 19.9336C8.53955 19.9336 7.62524 20.8481 7.62524 21.9725ZM16.5542 4.7968C16.5542 4.35028 16.1907 3.98731 15.7446 3.98731L1.90063 3.98731C1.4541 3.98731 1.09106 4.35028 1.09106 4.7968L1.09106 14.9915C1.09106 15.4374 1.4541 15.801 1.90063 15.801L15.7446 15.801C16.1907 15.801 16.5542 15.4374 16.5542 14.9915L16.5542 14.9915L16.5542 4.7968ZM22.772 9.13717C22.3652 8.67698 21.4692 8.27345 20.8562 8.27345L18.0884 8.27345L18.0884 15.2418C18.0884 16.3504 17.1868 17.2522 16.0781 17.2522L3.40674 17.2522L3.40674 20.2473C3.40674 20.7035 3.77808 21.0754 4.23462 21.0754L6.27954 21.0754C6.67432 19.6281 8 18.5604 9.57104 18.5604C11.1421 18.5604 12.468 19.6281 12.863 21.0754L17.8257 21.0754C18.2209 19.6281 19.5469 18.5604 21.1184 18.5604C22.689 18.5604 24.0146 19.6281 24.4099 21.0754L26.0789 21.0754C26.5349 21.0754 26.907 20.7035 26.907 20.2473L26.907 16.7406C26.9309 14.481 26.7646 13.7051 26.4507 13.2802L26.4504 13.2802L22.772 9.13717Z" fill-rule="evenodd" fill="#FFFFFF" fill-opacity="1.000000"/>
	<defs/>
</svg>
