<svg width="20.000000" height="20.000000" viewBox="0 0 20 20" fill="none" xmlns="http://www.w3.org/2000/svg" xmlns:xlink="http://www.w3.org/1999/xlink">
	<desc>
			Created with Pixso.
	</desc>
	<path d="M18.1279 3.07959C18.1279 3.35571 17.9041 3.57959 17.6279 3.57959L2.37207 3.57959C2.09593 3.57959 1.87207 3.35571 1.87207 3.07959C1.87207 2.80347 2.09593 2.57959 2.37207 2.57959L17.6279 2.57959C17.9041 2.57959 18.1279 2.80347 18.1279 3.07959ZM6.61891 9.26746C6.89505 9.26746 7.11891 9.0437 7.11891 8.76746L7.11891 5.54456C7.11891 5.26843 6.89505 5.04456 6.61891 5.04456L3.20804 5.04456C2.93188 5.04456 2.70804 5.26843 2.70804 5.54456L2.70804 8.76746C2.70804 9.0437 2.93188 9.26746 3.20804 9.26746L6.61891 9.26746ZM11.7054 9.26746C11.9816 9.26746 12.2054 9.0437 12.2054 8.76746L12.2054 5.54456C12.2054 5.26843 11.9816 5.04456 11.7054 5.04456L8.29456 5.04456C8.01842 5.04456 7.79456 5.26843 7.79456 5.54456L7.79456 8.76746C7.79456 9.0437 8.01842 9.26746 8.29456 9.26746L11.7054 9.26746ZM16.792 9.26746C17.0681 9.26746 17.292 9.0437 17.292 8.76746L17.292 5.54456C17.292 5.26843 17.0681 5.04456 16.792 5.04456L13.3811 5.04456C13.1049 5.04456 12.8811 5.26843 12.8811 5.54456L12.8811 8.76746C12.8811 9.0437 13.1049 9.26746 13.3811 9.26746L16.792 9.26746ZM6.11891 6.04456L6.11891 8.26746L3.70804 8.26746L3.70804 6.04456L6.11891 6.04456ZM11.2054 6.04456L11.2054 8.26746L8.79456 8.26746L8.79456 6.04456L11.2054 6.04456ZM16.292 6.04456L16.292 8.26746L13.8811 8.26746L13.8811 6.04456L16.292 6.04456ZM18.1279 11.2324C18.1279 11.5085 17.9041 11.7324 17.6279 11.7324L2.37207 11.7324C2.09593 11.7324 1.87207 11.5085 1.87207 11.2324C1.87207 10.9563 2.09593 10.7324 2.37207 10.7324L17.6279 10.7324C17.9041 10.7324 18.1279 10.9563 18.1279 11.2324ZM6.61891 17.4204C6.89505 17.4204 7.11891 17.1965 7.11891 16.9204L7.11891 13.6974C7.11891 13.4213 6.89505 13.1974 6.61891 13.1974L3.20804 13.1974C2.93188 13.1974 2.70804 13.4213 2.70804 13.6974L2.70804 16.9204C2.70804 17.1965 2.93188 17.4204 3.20804 17.4204L6.61891 17.4204ZM11.7054 17.4204C11.9816 17.4204 12.2054 17.1965 12.2054 16.9204L12.2054 13.6974C12.2054 13.4213 11.9816 13.1974 11.7054 13.1974L8.29456 13.1974C8.01842 13.1974 7.79456 13.4213 7.79456 13.6974L7.79456 16.9204C7.79456 17.1965 8.01842 17.4204 8.29456 17.4204L11.7054 17.4204ZM16.792 17.4204C17.0681 17.4204 17.292 17.1965 17.292 16.9204L17.292 13.6974C17.292 13.4213 17.0681 13.1974 16.792 13.1974L13.3811 13.1974C13.1049 13.1974 12.8811 13.4213 12.8811 13.6974L12.8811 16.9204C12.8811 17.1965 13.1049 17.4204 13.3811 17.4204L16.792 17.4204ZM6.11891 14.1974L6.11891 16.4204L3.70804 16.4204L3.70804 14.1974L6.11891 14.1974ZM11.2054 14.1974L11.2054 16.4204L8.79456 16.4204L8.79456 14.1974L11.2054 14.1974Z" fill-rule="evenodd" fill="#27BA9B" fill-opacity="1.000000"/>
	<defs/>
</svg>
