<svg width="16.000000" height="16.000000" viewBox="0 0 16 16" fill="none" xmlns="http://www.w3.org/2000/svg" xmlns:xlink="http://www.w3.org/1999/xlink">
	<desc>
			Created with Pixso.
	</desc>
	<rect width="16.000000" height="16.000000" fill="#E5E5E5"/>
	<path d="M2.54427 13.0503C2.2659 13.0503 2.04065 12.8252 2.04065 12.5466L2.04065 9.50977C2.04605 9.63403 2.0973 9.75659 2.19407 9.8501C2.39179 10.0427 2.7115 10.0388 2.90627 9.83813L3.0479 9.69189L3.0479 12.043L12.9526 12.043L12.9526 11.2007C13.0085 11.2209 13.0672 11.2312 13.1257 11.2312C13.2674 11.2312 13.408 11.1716 13.5083 11.0549C13.6894 10.844 13.6648 10.5256 13.4532 10.3447L12.9526 9.91577L12.9526 3.95679L3.0479 3.95679L3.0479 8.2439L2.18227 9.1377C2.09292 9.22974 2.04581 9.34717 2.04065 9.46582L2.04065 3.45312C2.04065 3.1748 2.2659 2.94946 2.54427 2.94946L13.4562 2.94946C13.7346 2.94946 13.9598 3.1748 13.9598 3.45312L13.9598 12.5466C13.9598 12.8252 13.7346 13.0503 13.4562 13.0503L2.54427 13.0503ZM3.0479 8.2439L5.07329 6.15234L8.40894 9.74072L10.8495 8.11377L12.9526 9.91577L12.9526 11.2007C12.8974 11.1804 12.845 11.1504 12.7981 11.1101L10.7738 9.37476L8.25451 11.054L5.05856 7.61597L3.0479 9.69189L3.0479 8.2439ZM2.04065 9.46582L2.04065 9.50977C2.04001 9.49512 2.04001 9.48047 2.04065 9.46582ZM6.79375 6.13989C6.79375 5.14453 7.60429 4.33447 8.59977 4.33447C9.59528 4.33447 10.4049 5.14453 10.4049 6.13989C10.4049 7.13599 9.59528 7.94604 8.59977 7.94604C7.60429 7.94604 6.79375 7.13599 6.79375 6.13989ZM7.80106 6.13989C7.80106 6.58032 8.16008 6.93872 8.59977 6.93872C9.03946 6.93872 9.39753 6.58032 9.39753 6.13989C9.39753 5.69995 9.03949 5.3418 8.59977 5.3418C8.16008 5.3418 7.80106 5.69995 7.80106 6.13989Z" fill-rule="evenodd" fill="#27BA9B" fill-opacity="1.000000"/>
	<defs/>
</svg>
