<svg width="16.000000" height="16.000000" viewBox="0 0 16 16" fill="none" xmlns="http://www.w3.org/2000/svg" xmlns:xlink="http://www.w3.org/1999/xlink">
	<desc>
			Created with Pixso.
	</desc>
	<path d="M11.6069 13.5708L4.60686 13.5708C3.77843 13.5708 3.10686 12.8994 3.10686 12.0708L3.10686 4.4458L13.1069 4.4458L13.1069 12.0708C13.1069 12.8994 12.4353 13.5708 11.6069 13.5708ZM4.10686 5.4458L4.10686 12.0708C4.10686 12.3472 4.33072 12.5708 4.60686 12.5708L11.6069 12.5708C11.883 12.5708 12.1069 12.3472 12.1069 12.0708L12.1069 5.4458L4.10686 5.4458Z" fill-rule="evenodd" fill="#887E7E" fill-opacity="1.000000"/>
	<path d="M2.44614 5.43555L13.7676 5.43555C14.0437 5.43555 14.2676 5.21191 14.2676 4.93555C14.2676 4.65918 14.0437 4.43555 13.7676 4.43555L2.44614 4.43555C2.17 4.43555 1.94614 4.65918 1.94614 4.93555C1.94614 5.21191 2.17 5.43555 2.44614 5.43555Z" fill-rule="evenodd" fill="#887E7E"/>
	<path d="M10.5088 3.20117L10.5088 5.43555L5.70493 5.43555L5.70493 3.20117C5.70493 2.37256 6.37651 1.70117 7.20493 1.70117L9.00879 1.70117C9.83722 1.70117 10.5088 2.37256 10.5088 3.20117ZM9.00879 2.70117L7.20493 2.70117C6.92879 2.70117 6.70493 2.9248 6.70493 3.20117L6.70493 4.43555L9.50879 4.43555L9.50879 3.20117C9.50879 2.9248 9.28493 2.70117 9.00879 2.70117Z" fill-rule="evenodd" fill="#887E7E" fill-opacity="1.000000"/>
	<defs/>
</svg>
