<svg width="16.000000" height="16.000000" viewBox="0 0 16 16" fill="none" xmlns="http://www.w3.org/2000/svg" xmlns:xlink="http://www.w3.org/1999/xlink">
	<desc>
			Created with Pixso.
	</desc>
	<path d="M5.03571 12.025L12.025 5.0357C12.3179 4.74281 12.3179 4.26793 12.025 3.97504C11.7321 3.68215 11.2572 3.68215 10.9643 3.97504L3.97504 10.9643C3.68214 11.2572 3.68214 11.7321 3.97504 12.025C4.26793 12.3179 4.74281 12.3179 5.03571 12.025Z" fill-rule="evenodd" fill="#887E7E"/>
	<path d="M3.97504 5.0357L10.9643 12.025C11.2572 12.3179 11.7321 12.3179 12.025 12.025C12.3179 11.7321 12.3179 11.2572 12.025 10.9643L5.03571 3.97504C4.74281 3.68215 4.26793 3.68215 3.97504 3.97504C3.68214 4.26793 3.68214 4.74281 3.97504 5.0357Z" fill-rule="evenodd" fill="#887E7E"/>
	<defs/>
</svg>
