<svg width="16.000000" height="16.000000" viewBox="0 0 16 16" fill="none" xmlns="http://www.w3.org/2000/svg" xmlns:xlink="http://www.w3.org/1999/xlink">
	<desc>
			Created with Pixso.
	</desc>
	<rect width="16.000000" height="16.000000" fill="#E5E5E5"/>
	<path d="M4.81802 7.99999L8.53033 4.28769C8.82323 3.9948 8.82323 3.51992 8.53034 3.22703C8.23745 2.93414 7.76257 2.93414 7.46968 3.22703L3.22703 7.46966C2.93414 7.76255 2.93414 8.23743 3.22703 8.53032L7.46967 12.773C7.76256 13.0659 8.23743 13.0659 8.53033 12.773C8.82322 12.4801 8.82322 12.0052 8.53033 11.7123L4.81802 7.99999Z" fill-rule="evenodd" fill="#887E7E"/>
	<path d="M4.63965 8.75L12.147 8.75C12.5612 8.75 12.897 8.41422 12.897 8C12.897 7.58578 12.5612 7.25 12.147 7.25L4.63965 7.25C4.22543 7.25 3.88965 7.58578 3.88965 8C3.88965 8.41422 4.22543 8.75 4.63965 8.75Z" fill-rule="evenodd" fill="#887E7E"/>
	<defs/>
</svg>
