<svg width="160.000000" height="160.000000" viewBox="0 0 160 160" fill="none" xmlns="http://www.w3.org/2000/svg" xmlns:xlink="http://www.w3.org/1999/xlink">
	<desc>
			Created with Pixso.
	</desc>
	<circle cx="80.000000" cy="80.992950" r="78.000000" fill="#FFF9ED"/>
	<path d="M37.8 60.1736L84.6001 50.7153L84.6001 115.069L37.8 116.528L37.8 60.1736Z" fill-rule="evenodd" fill="url(#paint_linear_1_8772_0)"/>
	<path d="M123 60.1736L84.6001 50.7153L84.6001 115.069L123 116.528L123 60.1736Z" fill-rule="evenodd" fill="url(#paint_linear_1_8773_0)"/>
	<path d="M37.8 60.1736L81 72.2153L81 130.569L37.8 116.528L37.8 60.1736Z" fill-rule="evenodd" fill="url(#paint_linear_1_8774_0)"/>
	<path d="M109.305 27.5535L109.291 27.5678Q108.965 27.8981 108.652 28.2304L110.106 29.603Q110.404 29.2871 110.714 28.9729L110.728 28.9586L111.431 28.247L110.008 26.8419L109.305 27.5535ZM106.115 31.213Q105.513 32.0067 104.983 32.8051L106.649 33.9115Q107.144 33.1656 107.708 32.4221L106.115 31.213ZM103.067 36.2023Q102.618 37.1694 102.285 38.1256L104.174 38.7829Q104.474 37.9207 104.881 37.0439L103.067 36.2023ZM108.829 40.1297Q108.418 40.1729 107.962 40.279L108.416 42.2269Q108.75 42.1489 109.038 42.1187Q109.519 42.0682 109.962 42.074L109.989 40.0741Q109.427 40.0668 108.829 40.1297ZM101.414 42.0574Q101.324 43.0841 101.393 44.0513L102.827 43.9487L103.456 44.7815Q104.227 44.1994 105.008 43.723L103.966 42.0156Q103.679 42.1906 103.394 42.3779Q103.4 42.3052 103.406 42.232L101.414 42.0574ZM115.452 43.448Q115.011 42.3025 114.1 41.498L112.777 42.9978Q113.321 43.4778 113.585 44.1656L115.452 43.448ZM99.1245 46.0082Q98.4248 46.7547 97.7717 47.5662L99.3298 48.8201Q99.9355 48.0674 100.584 47.376L99.1245 46.0082ZM102.594 48.1381Q103.158 49.1035 103.948 49.8349L105.307 48.3676Q104.735 47.8379 104.321 47.1287L102.594 48.1381ZM113.883 49.8425Q114.746 49.0144 115.244 47.932L113.427 47.0955Q113.088 47.8336 112.498 48.3992L113.883 49.8425ZM107.887 51.6509Q108.438 51.7215 109.011 51.7152Q109.485 51.71 109.939 51.6545L109.697 49.6692Q109.352 49.7114 108.989 49.7153Q108.555 49.7201 108.141 49.6671L107.887 51.6509ZM95.3684 51.0448Q94.8679 51.8916 94.4148 52.7813L96.197 53.6889Q96.6216 52.8552 97.0901 52.0624L95.3684 51.0448ZM92.7312 56.6845Q92.5413 57.2128 92.366 57.7518Q92.2251 58.1845 92.0969 58.6967L94.0371 59.1825Q94.1484 58.7373 94.2678 58.3702Q94.4336 57.8609 94.613 57.3619L92.7312 56.6845ZM91.3894 62.8783Q91.2754 63.8644 91.1804 64.9807L93.1731 65.1504Q93.2656 64.0642 93.3762 63.1082L91.3894 62.8783ZM90.9133 69.1411L90.833 71.1587L92.8315 71.2382L92.9116 69.2205L92.9136 69.1839L90.9158 69.0904L90.9133 69.1411ZM90.7415 75.3111L90.7268 77.3854L92.7268 77.3995L92.7415 75.3252L90.7415 75.3111ZM90.7712 82.4211L90.7708 82.407L90.771 82.407L90.7527 81.4596L92.7522 81.4212L92.7708 82.3797L92.7708 82.3826L92.7959 83.3764L90.7964 83.4267L90.7712 82.4211Z" fill-rule="evenodd" fill="#424250"/>
	<path d="M123 60.1736L81 72.2153L81 130.569L123 116.528L123 60.1736Z" fill-rule="evenodd" fill="url(#paint_linear_1_8776_0)"/>
	<path d="M30.7881 74.9792L74.3074 87.7367L81 72.2153L37.8 60.1736L30.7881 74.9792Z" fill-rule="evenodd" fill="url(#paint_linear_1_8777_0)"/>
	<path d="M81 72.2153L86.738 87.7367L129.481 75.1539L123 60.1736L81 72.2153Z" fill-rule="evenodd" fill="url(#paint_linear_1_8778_0)"/>
	<path d="M117.639 13.5259C117.639 13.5259 114.987 10.0708 115.342 7.1152C115.697 4.15957 119.128 1.92227 119.128 1.92227C119.128 1.92227 121.931 4.45322 121.533 7.87385C121.136 11.2945 117.639 13.5259 117.639 13.5259Z" fill-rule="evenodd" fill="#FFF9ED"/>
	<path d="M115.342 7.1152C115.697 4.15957 119.128 1.92227 119.128 1.92227C119.128 1.92227 121.931 4.45322 121.533 7.87385C121.136 11.2945 117.639 13.5259 117.639 13.5259C117.639 13.5259 114.987 10.0708 115.342 7.1152Z" stroke="#424250" stroke-width="2.000000" stroke-linejoin="round"/>
	<ellipse cx="119.821045" cy="18.434834" rx="10.820957" ry="8.160385" fill="#FFD700"/>
	<ellipse cx="119.821045" cy="18.434834" rx="10.820957" ry="8.160385" stroke="#424250" stroke-width="2.000000"/>
	<path d="M115.28 11.8071L115.253 11.8158C114.754 11.562 114.561 10.9703 114.815 10.4712C115.069 9.97202 115.66 9.77929 116.159 10.0332L116.168 10.0601L115.724 10.9336Q122.259 14.2626 122.259 18.3679Q122.259 22.4732 115.724 25.8023L116.168 26.6758L116.159 26.7027C115.66 26.9566 115.069 26.7639 114.815 26.2647C114.561 25.7656 114.754 25.1739 115.253 24.92L115.28 24.9288L115.706 25.7673L115.706 10.9686L115.28 11.8071Z" fill-rule="evenodd" fill="#FFD700"/>
	<path d="M115.253 11.8158L115.253 11.8158C114.754 11.562 114.561 10.9703 114.815 10.4712C115.069 9.97202 115.66 9.77929 116.159 10.0332L116.159 10.0332L116.159 10.0332Q123.259 13.6437 123.259 18.3679Q123.259 23.0922 116.159 26.7027C115.66 26.9566 115.069 26.7639 114.815 26.2647C114.561 25.7656 114.754 25.1739 115.253 24.92Q118.358 23.3406 119.87 21.6235Q121.259 20.0459 121.259 18.3679Q121.259 16.6899 119.87 15.1124Q118.358 13.3953 115.253 11.8158Z" fill-rule="evenodd" fill="#424250"/>
	<ellipse cx="115.705811" cy="18.166893" rx="1.484731" ry="1.510389" fill="#424250"/>
	<path d="M118.112 11.9271C118.112 11.9271 117.66 7.59199 119.678 5.27346C121.697 2.95493 126.124 2.87616 126.124 2.87616C126.124 2.87616 127.243 6.50741 124.919 9.19762C122.595 11.8878 118.112 11.9271 118.112 11.9271Z" fill-rule="evenodd" fill="#FFFFFF"/>
	<path d="M119.678 5.27346C121.697 2.95493 126.124 2.87616 126.124 2.87616C126.124 2.87616 127.243 6.50741 124.919 9.19762C122.595 11.8878 118.112 11.9271 118.112 11.9271C118.112 11.9271 117.66 7.59199 119.678 5.27346Z" stroke="#424250" stroke-width="2.000000" stroke-linejoin="round"/>
	<path d="M130.642 20.4835L135.876 18.3668L130.642 16.2523L130.642 20.4835Z" fill-rule="evenodd" fill="#424250"/>
	<path d="M135.876 18.3668L130.642 16.2523L130.642 20.4835L135.876 18.3668Z" stroke="#424250" stroke-width="2.000000" stroke-linejoin="round"/>
	<defs>
		<linearGradient id="paint_linear_1_8772_0" x1="70.194427" y1="54.882809" x2="70.194427" y2="99.977951" gradientUnits="userSpaceOnUse">
			<stop stop-color="#FFD574"/>
			<stop offset="1.000000" stop-color="#FFE9B7"/>
		</linearGradient>
		<linearGradient id="paint_linear_1_8773_0" x1="96.419998" y1="54.882809" x2="96.419998" y2="99.977951" gradientUnits="userSpaceOnUse">
			<stop stop-color="#FFC233"/>
			<stop offset="1.000000" stop-color="#FFE5A9"/>
		</linearGradient>
		<linearGradient id="paint_linear_1_8774_0" x1="67.702545" y1="64.631378" x2="67.702545" y2="112.867058" gradientUnits="userSpaceOnUse">
			<stop stop-color="#FFDA85"/>
			<stop offset="1.000000" stop-color="#FFF2D4"/>
		</linearGradient>
		<linearGradient id="paint_linear_1_8776_0" x1="93.928116" y1="64.631378" x2="93.928116" y2="112.867065" gradientUnits="userSpaceOnUse">
			<stop stop-color="#FFCB54"/>
			<stop offset="1.000000" stop-color="#FFE5A9"/>
		</linearGradient>
		<linearGradient id="paint_linear_1_8777_0" x1="65.544136" y1="61.919029" x2="57.675777" y2="79.894539" gradientUnits="userSpaceOnUse">
			<stop stop-color="#FFF1D2"/>
			<stop offset="1.000000" stop-color="#FFDE92"/>
		</linearGradient>
		<linearGradient id="paint_linear_1_8778_0" x1="114.557983" y1="61.919029" x2="114.557983" y2="80.805450" gradientUnits="userSpaceOnUse">
			<stop stop-color="#FFCB54"/>
			<stop offset="1.000000" stop-color="#FFE5A9"/>
		</linearGradient>
	</defs>
</svg>
