<svg width="426.000000" height="148.000000" viewBox="0 0 426 148" fill="none" xmlns="http://www.w3.org/2000/svg" xmlns:xlink="http://www.w3.org/1999/xlink">
	<desc>
			Created with Pixso.
	</desc>
	<rect width="426.000000" height="148.000000" fill="#E5E5E5"/>
	<g opacity="0.163202">
		<path d="M47.803 -31.124L62.3604 -5.91004L47.8552 19.2133L62.3604 44.3366L48.0159 69.1818L62.3604 94.0271L46.8809 120.838L15.9221 120.838L0.442871 94.0271L14.7874 69.1818L0.442871 44.3366L14.9478 19.2133L0.442871 -5.91004L15.0002 -31.124L0.442871 -56.3379L15.9221 -83.1489L46.8809 -83.1489L62.3604 -56.3379L47.803 -31.124ZM146.225 -58.2225L175.15 -58.2225L189.541 -83.1489L220.5 -83.1489L235.979 -56.3379L221.422 -31.124L235.979 -5.91004L221.474 19.2133L234.891 42.452L261.959 42.452L275.376 19.2133L260.871 -5.91004L276.35 -32.7211L307.309 -32.7211L322.788 -5.91004L308.283 19.2133L322.788 44.3366L308.444 69.1818L322.788 94.0271L308.496 118.782L322.788 143.536L308.345 168.553L322.788 193.57L308.382 218.522L322.788 243.473L308.458 268.294L322.788 293.114L307.309 319.925L278.385 319.925L263.993 344.851L233.035 344.851L217.555 318.04L231.885 293.22L217.555 268.4L231.961 243.448L217.555 218.497L233.035 191.686L261.959 191.686L275.314 168.553L262.157 145.764L234.692 145.764L220.5 170.347L189.541 170.347L174.062 143.536L189.541 116.725L218.842 116.725L231.9 94.1082L218.643 71.1476L191.575 71.1476L177.184 96.074L146.225 96.074L130.746 69.263L145.251 44.1397L130.746 19.0164L145.303 -6.19759L130.746 -31.4115L146.225 -58.2225ZM18.0508 -79.462L44.7522 -79.462L58.103 -56.3379L44.7522 -33.2138L18.0508 -33.2138L4.7002 -56.3379L18.0508 -79.462ZM191.669 -79.462L218.371 -79.462L231.722 -56.3379L218.371 -33.2138L191.669 -33.2138L178.319 -56.3379L191.669 -79.462ZM148.354 -54.5356L135.003 -31.4115L148.354 -8.28742L175.055 -8.28742L188.406 -31.4115L175.055 -54.5356L148.354 -54.5356ZM347.68 -5.91004L363.159 20.901L394.118 20.901L409.597 -5.91004L394.118 -32.7211L363.159 -32.7211L347.68 -5.91004ZM4.7002 -5.91004L18.0508 -29.0342L44.7522 -29.0342L58.103 -5.91004L44.7522 17.2141L18.0508 17.2141L4.7002 -5.91004ZM218.371 -29.0342L191.669 -29.0342L178.319 -5.91004L191.669 17.2141L218.371 17.2141L231.722 -5.91004L218.371 -29.0342ZM305.18 -29.0342L278.479 -29.0342L265.128 -5.91004L278.479 17.2141L305.18 17.2141L318.531 -5.91004L305.18 -29.0342ZM351.938 -5.91004L365.288 -29.0342L391.99 -29.0342L405.34 -5.91004L391.99 17.2141L365.288 17.2141L351.938 -5.91004ZM148.354 -4.10776L175.055 -4.10776L188.406 19.0164L175.055 42.1405L148.354 42.1405L135.003 19.0164L148.354 -4.10776ZM44.8936 67.2161L17.9097 67.2161L4.7002 44.3366L18.0508 21.2125L44.7522 21.2125L58.103 44.3366L44.8936 67.2161ZM178.319 44.3366L191.669 21.2125L218.371 21.2125L231.722 44.3366L218.371 67.4607L191.669 67.4607L178.319 44.3366ZM318.531 44.3366L305.322 67.2161L278.338 67.2161L265.128 44.3366L278.479 21.2125L305.18 21.2125L318.531 44.3366ZM148.354 46.1389L135.003 69.263L148.354 92.3871L175.055 92.3871L188.406 69.263L175.055 46.1389L148.354 46.1389ZM235.022 92.1425L261.959 92.1425L275.192 69.2223L261.865 46.1389L235.163 46.1389L221.812 69.263L235.022 92.1425ZM361.972 118.782L347.68 94.0271L363.159 67.2161L394.118 67.2161L409.597 94.0271L395.305 118.782L409.597 143.536L395.154 168.553L408.51 191.686L437.612 191.686L453.091 218.497L438.686 243.448L453.091 268.4L438.761 293.22L453.091 318.04L437.612 344.851L406.653 344.851L392.262 319.925L363.159 319.925L347.68 293.114L362.01 268.294L347.68 243.473L362.086 218.522L347.68 193.57L362.124 168.553L347.68 143.536L361.972 118.782ZM435.654 291.229L408.612 291.229L395.431 268.4L408.763 245.308L435.502 245.308L448.834 268.4L435.654 291.229ZM408.612 295.211L395.431 318.04L408.782 341.164L435.483 341.164L448.834 318.04L435.654 295.211L408.612 295.211ZM392.235 116.725L365.042 116.725L351.938 94.0271L365.288 70.903L391.99 70.903L405.34 94.0271L392.235 116.725ZM17.9097 71.1476L4.7002 94.0271L18.0508 117.151L44.7522 117.151L58.103 94.0271L44.8936 71.1476L17.9097 71.1476ZM265.152 94.0678L278.385 71.1476L305.322 71.1476L318.531 94.0271L305.426 116.725L278.233 116.725L265.152 94.0678ZM221.812 118.953L235.022 96.074L262.006 96.074L275.14 118.822L261.713 142.078L235.163 142.078L221.812 118.953ZM191.669 120.412L178.319 143.536L191.669 166.66L218.371 166.66L231.722 143.536L218.371 120.412L191.669 120.412ZM278.385 120.838L265.204 143.668L278.479 166.66L305.18 166.66L318.531 143.536L305.426 120.838L278.385 120.838ZM365.042 120.838L351.938 143.536L365.288 166.66L391.99 166.66L405.34 143.536L392.235 120.838L365.042 120.838ZM14.8486 218.522L0.442871 193.57L15.9221 166.759L46.8809 166.759L62.3604 193.57L47.9546 218.522L62.3604 243.473L48.0303 268.294L62.3604 293.114L46.8809 319.925L15.9221 319.925L0.442871 293.114L14.7727 268.294L0.442871 243.473L14.8486 218.522ZM44.7708 216.662L18.0325 216.662L4.7002 193.57L18.0508 170.446L44.7522 170.446L58.103 193.57L44.7708 216.662ZM305.199 216.662L278.46 216.662L265.128 193.57L278.479 170.446L305.18 170.446L318.531 193.57L305.199 216.662ZM392.008 216.662L365.27 216.662L351.938 193.57L365.288 170.446L391.99 170.446L405.34 193.57L392.008 216.662ZM235.145 241.589L261.883 241.589L275.215 218.497L261.865 195.373L235.163 195.373L221.812 218.497L235.145 241.589ZM448.834 218.497L435.502 241.589L408.763 241.589L395.431 218.497L408.782 195.373L435.483 195.373L448.834 218.497ZM58.103 243.473L44.9226 266.303L17.8806 266.303L4.7002 243.473L18.0325 220.381L44.7708 220.381L58.103 243.473ZM318.531 243.473L305.351 266.303L278.309 266.303L265.128 243.473L278.46 220.381L305.199 220.381L318.531 243.473ZM405.34 243.473L392.16 266.303L365.118 266.303L351.938 243.473L365.27 220.381L392.008 220.381L405.34 243.473ZM261.959 291.229L275.177 268.334L261.883 245.308L235.145 245.308L221.812 268.4L234.993 291.229L261.959 291.229ZM87.2522 293.114L102.731 319.925L133.69 319.925L149.17 293.114L133.69 266.303L102.731 266.303L87.2522 293.114ZM91.5095 293.114L104.86 269.99L131.562 269.99L144.912 293.114L131.562 316.238L104.86 316.238L91.5095 293.114ZM44.9226 270.285L17.8806 270.285L4.7002 293.114L18.0508 316.238L44.7522 316.238L58.103 293.114L44.9226 270.285ZM278.385 270.285L265.166 293.179L278.479 316.238L305.18 316.238L318.531 293.114L305.351 270.285L278.385 270.285ZM392.16 270.285L365.118 270.285L351.938 293.114L365.288 316.238L391.99 316.238L405.34 293.114L392.16 270.285ZM234.993 295.211L262.035 295.211L275.215 318.04L261.865 341.164L235.163 341.164L221.812 318.04L234.993 295.211Z" fill-rule="evenodd" fill="#FFFFFF" fill-opacity="1.000000"/>
	</g>
	<mask id="mask1_8979" mask-type="alpha" maskUnits="userSpaceOnUse" x="0.442871" y="-83.148933" width="452.648438" height="428.000000">
		<path d="M47.803 -31.124L62.3604 -5.91004L47.8552 19.2133L62.3604 44.3366L48.0159 69.1818L62.3604 94.0271L46.8809 120.838L15.9221 120.838L0.442871 94.0271L14.7874 69.1818L0.442871 44.3366L14.9478 19.2133L0.442871 -5.91004L15.0002 -31.124L0.442871 -56.3379L15.9221 -83.1489L46.8809 -83.1489L62.3604 -56.3379L47.803 -31.124ZM146.225 -58.2225L175.15 -58.2225L189.541 -83.1489L220.5 -83.1489L235.979 -56.3379L221.422 -31.124L235.979 -5.91004L221.474 19.2133L234.891 42.452L261.959 42.452L275.376 19.2133L260.871 -5.91004L276.35 -32.7211L307.309 -32.7211L322.788 -5.91004L308.283 19.2133L322.788 44.3366L308.444 69.1818L322.788 94.0271L308.496 118.782L322.788 143.536L308.345 168.553L322.788 193.57L308.382 218.522L322.788 243.473L308.458 268.294L322.788 293.114L307.309 319.925L278.385 319.925L263.993 344.851L233.035 344.851L217.555 318.04L231.885 293.22L217.555 268.4L231.961 243.448L217.555 218.497L233.035 191.686L261.959 191.686L275.314 168.553L262.157 145.764L234.692 145.764L220.5 170.347L189.541 170.347L174.062 143.536L189.541 116.725L218.842 116.725L231.9 94.1082L218.643 71.1476L191.575 71.1476L177.184 96.074L146.225 96.074L130.746 69.263L145.251 44.1397L130.746 19.0164L145.303 -6.19759L130.746 -31.4115L146.225 -58.2225ZM18.0508 -79.462L44.7522 -79.462L58.103 -56.3379L44.7522 -33.2138L18.0508 -33.2138L4.7002 -56.3379L18.0508 -79.462ZM191.669 -79.462L218.371 -79.462L231.722 -56.3379L218.371 -33.2138L191.669 -33.2138L178.319 -56.3379L191.669 -79.462ZM148.354 -54.5356L135.003 -31.4115L148.354 -8.28742L175.055 -8.28742L188.406 -31.4115L175.055 -54.5356L148.354 -54.5356ZM347.68 -5.91004L363.159 20.901L394.118 20.901L409.597 -5.91004L394.118 -32.7211L363.159 -32.7211L347.68 -5.91004ZM4.7002 -5.91004L18.0508 -29.0342L44.7522 -29.0342L58.103 -5.91004L44.7522 17.2141L18.0508 17.2141L4.7002 -5.91004ZM218.371 -29.0342L191.669 -29.0342L178.319 -5.91004L191.669 17.2141L218.371 17.2141L231.722 -5.91004L218.371 -29.0342ZM305.18 -29.0342L278.479 -29.0342L265.128 -5.91004L278.479 17.2141L305.18 17.2141L318.531 -5.91004L305.18 -29.0342ZM351.938 -5.91004L365.288 -29.0342L391.99 -29.0342L405.34 -5.91004L391.99 17.2141L365.288 17.2141L351.938 -5.91004ZM148.354 -4.10776L175.055 -4.10776L188.406 19.0164L175.055 42.1405L148.354 42.1405L135.003 19.0164L148.354 -4.10776ZM44.8936 67.2161L17.9097 67.2161L4.7002 44.3366L18.0508 21.2125L44.7522 21.2125L58.103 44.3366L44.8936 67.2161ZM178.319 44.3366L191.669 21.2125L218.371 21.2125L231.722 44.3366L218.371 67.4607L191.669 67.4607L178.319 44.3366ZM318.531 44.3366L305.322 67.2161L278.338 67.2161L265.128 44.3366L278.479 21.2125L305.18 21.2125L318.531 44.3366ZM148.354 46.1389L135.003 69.263L148.354 92.3871L175.055 92.3871L188.406 69.263L175.055 46.1389L148.354 46.1389ZM235.022 92.1425L261.959 92.1425L275.192 69.2223L261.865 46.1389L235.163 46.1389L221.812 69.263L235.022 92.1425ZM361.972 118.782L347.68 94.0271L363.159 67.2161L394.118 67.2161L409.597 94.0271L395.305 118.782L409.597 143.536L395.154 168.553L408.51 191.686L437.612 191.686L453.091 218.497L438.686 243.448L453.091 268.4L438.761 293.22L453.091 318.04L437.612 344.851L406.653 344.851L392.262 319.925L363.159 319.925L347.68 293.114L362.01 268.294L347.68 243.473L362.086 218.522L347.68 193.57L362.124 168.553L347.68 143.536L361.972 118.782ZM435.654 291.229L408.612 291.229L395.431 268.4L408.763 245.308L435.502 245.308L448.834 268.4L435.654 291.229ZM408.612 295.211L395.431 318.04L408.782 341.164L435.483 341.164L448.834 318.04L435.654 295.211L408.612 295.211ZM392.235 116.725L365.042 116.725L351.938 94.0271L365.288 70.903L391.99 70.903L405.34 94.0271L392.235 116.725ZM17.9097 71.1476L4.7002 94.0271L18.0508 117.151L44.7522 117.151L58.103 94.0271L44.8936 71.1476L17.9097 71.1476ZM265.152 94.0678L278.385 71.1476L305.322 71.1476L318.531 94.0271L305.426 116.725L278.233 116.725L265.152 94.0678ZM221.812 118.953L235.022 96.074L262.006 96.074L275.14 118.822L261.713 142.078L235.163 142.078L221.812 118.953ZM191.669 120.412L178.319 143.536L191.669 166.66L218.371 166.66L231.722 143.536L218.371 120.412L191.669 120.412ZM278.385 120.838L265.204 143.668L278.479 166.66L305.18 166.66L318.531 143.536L305.426 120.838L278.385 120.838ZM365.042 120.838L351.938 143.536L365.288 166.66L391.99 166.66L405.34 143.536L392.235 120.838L365.042 120.838ZM14.8486 218.522L0.442871 193.57L15.9221 166.759L46.8809 166.759L62.3604 193.57L47.9546 218.522L62.3604 243.473L48.0303 268.294L62.3604 293.114L46.8809 319.925L15.9221 319.925L0.442871 293.114L14.7727 268.294L0.442871 243.473L14.8486 218.522ZM44.7708 216.662L18.0325 216.662L4.7002 193.57L18.0508 170.446L44.7522 170.446L58.103 193.57L44.7708 216.662ZM305.199 216.662L278.46 216.662L265.128 193.57L278.479 170.446L305.18 170.446L318.531 193.57L305.199 216.662ZM392.008 216.662L365.27 216.662L351.938 193.57L365.288 170.446L391.99 170.446L405.34 193.57L392.008 216.662ZM235.145 241.589L261.883 241.589L275.215 218.497L261.865 195.373L235.163 195.373L221.812 218.497L235.145 241.589ZM448.834 218.497L435.502 241.589L408.763 241.589L395.431 218.497L408.782 195.373L435.483 195.373L448.834 218.497ZM58.103 243.473L44.9226 266.303L17.8806 266.303L4.7002 243.473L18.0325 220.381L44.7708 220.381L58.103 243.473ZM318.531 243.473L305.351 266.303L278.309 266.303L265.128 243.473L278.46 220.381L305.199 220.381L318.531 243.473ZM405.34 243.473L392.16 266.303L365.118 266.303L351.938 243.473L365.27 220.381L392.008 220.381L405.34 243.473ZM261.959 291.229L275.177 268.334L261.883 245.308L235.145 245.308L221.812 268.4L234.993 291.229L261.959 291.229ZM87.2522 293.114L102.731 319.925L133.69 319.925L149.17 293.114L133.69 266.303L102.731 266.303L87.2522 293.114ZM91.5095 293.114L104.86 269.99L131.562 269.99L144.912 293.114L131.562 316.238L104.86 316.238L91.5095 293.114ZM44.9226 270.285L17.8806 270.285L4.7002 293.114L18.0508 316.238L44.7522 316.238L58.103 293.114L44.9226 270.285ZM278.385 270.285L265.166 293.179L278.479 316.238L305.18 316.238L318.531 293.114L305.351 270.285L278.385 270.285ZM392.16 270.285L365.118 270.285L351.938 293.114L365.288 316.238L391.99 316.238L405.34 293.114L392.16 270.285ZM234.993 295.211L262.035 295.211L275.215 318.04L261.865 341.164L235.163 341.164L221.812 318.04L234.993 295.211Z" fill-rule="evenodd" fill="#C4C4C4" fill-opacity="1.000000"/>
	</mask>
	<defs/>
</svg>
