<svg width="453.648438" height="428.000000" viewBox="0 0 453.648 428" fill="none" xmlns="http://www.w3.org/2000/svg" xmlns:xlink="http://www.w3.org/1999/xlink">
	<desc>
			Created with Pixso.
	</desc>
	<g opacity="0.163202">
		<path d="M48.3601 52.025L62.9175 77.2389L48.4124 102.362L62.9175 127.486L48.573 152.331L62.9175 177.176L47.438 203.987L16.4792 203.987L1 177.176L15.3445 152.331L1 127.486L15.5049 102.362L1 77.2389L15.5574 52.025L1 26.811L16.4792 0L47.438 0L62.9175 26.811L48.3601 52.025ZM146.782 24.9264L175.707 24.9264L190.098 0L221.057 0L236.536 26.811L221.979 52.025L236.536 77.2389L222.031 102.362L235.448 125.601L262.516 125.601L275.933 102.362L261.428 77.2389L276.907 50.4279L307.866 50.4279L323.345 77.2389L308.84 102.362L323.345 127.486L309.001 152.331L323.345 177.176L309.053 201.931L323.345 226.685L308.902 251.702L323.345 276.719L308.939 301.671L323.345 326.622L309.015 351.443L323.345 376.263L307.866 403.074L278.942 403.074L264.55 428L233.592 428L218.112 401.189L232.442 376.369L218.112 351.549L232.518 326.597L218.112 301.646L233.592 274.835L262.516 274.835L275.872 251.702L262.714 228.913L235.25 228.913L221.057 253.496L190.098 253.496L174.619 226.685L190.098 199.874L219.399 199.874L232.457 177.257L219.2 154.297L192.132 154.297L177.741 179.223L146.782 179.223L131.303 152.412L145.808 127.289L131.303 102.165L145.86 76.9513L131.303 51.7374L146.782 24.9264ZM18.6079 3.6869L45.3093 3.6869L58.6602 26.811L45.3093 49.9351L18.6079 49.9351L5.25732 26.811L18.6079 3.6869ZM192.227 3.6869L218.928 3.6869L232.279 26.811L218.928 49.9351L192.227 49.9351L178.876 26.811L192.227 3.6869ZM148.911 28.6133L135.56 51.7374L148.911 74.8615L175.612 74.8615L188.963 51.7374L175.612 28.6133L148.911 28.6133ZM348.237 77.2389L363.717 104.05L394.675 104.05L410.155 77.2389L394.675 50.4279L363.717 50.4279L348.237 77.2389ZM5.25732 77.2389L18.6079 54.1148L45.3093 54.1148L58.6602 77.2389L45.3093 100.363L18.6079 100.363L5.25732 77.2389ZM218.928 54.1148L192.227 54.1148L178.876 77.2389L192.227 100.363L218.928 100.363L232.279 77.2389L218.928 54.1148ZM305.737 54.1148L279.036 54.1148L265.685 77.2389L279.036 100.363L305.737 100.363L319.088 77.2389L305.737 54.1148ZM352.495 77.2389L365.845 54.1148L392.547 54.1148L405.897 77.2389L392.547 100.363L365.845 100.363L352.495 77.2389ZM148.911 79.0412L175.612 79.0412L188.963 102.165L175.612 125.289L148.911 125.289L135.56 102.165L148.911 79.0412ZM45.4507 150.365L18.4668 150.365L5.25732 127.486L18.6079 104.361L45.3093 104.361L58.6602 127.486L45.4507 150.365ZM178.876 127.486L192.227 104.361L218.928 104.361L232.279 127.486L218.928 150.61L192.227 150.61L178.876 127.486ZM319.088 127.486L305.879 150.365L278.895 150.365L265.685 127.486L279.036 104.361L305.737 104.361L319.088 127.486ZM148.911 129.288L135.56 152.412L148.911 175.536L175.612 175.536L188.963 152.412L175.612 129.288L148.911 129.288ZM235.579 175.291L262.516 175.291L275.749 152.371L262.422 129.288L235.72 129.288L222.37 152.412L235.579 175.291ZM362.529 201.931L348.237 177.176L363.717 150.365L394.675 150.365L410.155 177.176L395.863 201.931L410.155 226.685L395.711 251.702L409.067 274.835L438.169 274.835L453.648 301.646L439.243 326.597L453.648 351.549L439.318 376.369L453.648 401.189L438.169 428L407.21 428L392.819 403.074L363.717 403.074L348.237 376.263L362.567 351.443L348.237 326.622L362.643 301.671L348.237 276.719L362.681 251.702L348.237 226.685L362.529 201.931ZM436.211 374.378L409.169 374.378L395.988 351.549L409.32 328.457L436.059 328.457L449.391 351.549L436.211 374.378ZM409.169 378.36L395.988 401.189L409.339 424.313L436.04 424.313L449.391 401.189L436.211 378.36L409.169 378.36ZM392.792 199.874L365.599 199.874L352.495 177.176L365.845 154.052L392.547 154.052L405.897 177.176L392.792 199.874ZM18.4668 154.297L5.25732 177.176L18.6079 200.3L45.3093 200.3L58.6602 177.176L45.4507 154.297L18.4668 154.297ZM265.709 177.217L278.942 154.297L305.879 154.297L319.088 177.176L305.983 199.874L278.79 199.874L265.709 177.217ZM222.37 202.102L235.579 179.223L262.563 179.223L275.697 201.971L262.27 225.227L235.72 225.227L222.37 202.102ZM192.227 203.561L178.876 226.685L192.227 249.809L218.928 249.809L232.279 226.685L218.928 203.561L192.227 203.561ZM278.942 203.987L265.761 226.817L279.036 249.809L305.737 249.809L319.088 226.685L305.983 203.987L278.942 203.987ZM365.599 203.987L352.495 226.685L365.845 249.809L392.547 249.809L405.897 226.685L392.792 203.987L365.599 203.987ZM15.4058 301.671L1 276.719L16.4792 249.908L47.438 249.908L62.9175 276.719L48.5117 301.671L62.9175 326.622L48.5874 351.443L62.9175 376.263L47.438 403.074L16.4792 403.074L1 376.263L15.3298 351.443L1 326.622L15.4058 301.671ZM45.3279 299.811L18.5896 299.811L5.25732 276.719L18.6079 253.595L45.3093 253.595L58.6602 276.719L45.3279 299.811ZM305.756 299.811L279.017 299.811L265.685 276.719L279.036 253.595L305.737 253.595L319.088 276.719L305.756 299.811ZM392.565 299.811L365.827 299.811L352.495 276.719L365.845 253.595L392.547 253.595L405.897 276.719L392.565 299.811ZM235.702 324.738L262.44 324.738L275.772 301.646L262.422 278.522L235.72 278.522L222.37 301.646L235.702 324.738ZM449.391 301.646L436.059 324.738L409.32 324.738L395.988 301.646L409.339 278.522L436.04 278.522L449.391 301.646ZM58.6602 326.622L45.4797 349.452L18.4377 349.452L5.25732 326.622L18.5896 303.53L45.3279 303.53L58.6602 326.622ZM319.088 326.622L305.908 349.452L278.866 349.452L265.685 326.622L279.017 303.53L305.756 303.53L319.088 326.622ZM405.897 326.622L392.717 349.452L365.675 349.452L352.495 326.622L365.827 303.53L392.565 303.53L405.897 326.622ZM262.516 374.378L275.734 351.483L262.44 328.457L235.702 328.457L222.37 351.549L235.55 374.378L262.516 374.378ZM87.8093 376.263L103.289 403.074L134.247 403.074L149.727 376.263L134.247 349.452L103.289 349.452L87.8093 376.263ZM92.0667 376.263L105.417 353.138L132.119 353.138L145.469 376.263L132.119 399.387L105.417 399.387L92.0667 376.263ZM45.4797 353.433L18.4377 353.433L5.25732 376.263L18.6079 399.387L45.3093 399.387L58.6602 376.263L45.4797 353.433ZM278.942 353.433L265.723 376.328L279.036 399.387L305.737 399.387L319.088 376.263L305.908 353.433L278.942 353.433ZM392.717 353.433L365.675 353.433L352.495 376.263L365.845 399.387L392.547 399.387L405.897 376.263L392.717 353.433ZM235.55 378.36L262.592 378.36L275.772 401.189L262.422 424.313L235.72 424.313L222.37 401.189L235.55 378.36Z" fill-rule="evenodd" fill="#FFFFFF" fill-opacity="1.000000"/>
	</g>
	<mask id="mask1_8979" mask-type="alpha" maskUnits="userSpaceOnUse" x="1.000000" y="0.000000" width="452.648438" height="428.000000">
		<path d="M48.3601 52.025L62.9175 77.2389L48.4124 102.362L62.9175 127.486L48.573 152.331L62.9175 177.176L47.438 203.987L16.4792 203.987L1 177.176L15.3445 152.331L1 127.486L15.5049 102.362L1 77.2389L15.5574 52.025L1 26.811L16.4792 0L47.438 0L62.9175 26.811L48.3601 52.025ZM146.782 24.9264L175.707 24.9264L190.098 0L221.057 0L236.536 26.811L221.979 52.025L236.536 77.2389L222.031 102.362L235.448 125.601L262.516 125.601L275.933 102.362L261.428 77.2389L276.907 50.4279L307.866 50.4279L323.345 77.2389L308.84 102.362L323.345 127.486L309.001 152.331L323.345 177.176L309.053 201.931L323.345 226.685L308.902 251.702L323.345 276.719L308.939 301.671L323.345 326.622L309.015 351.443L323.345 376.263L307.866 403.074L278.942 403.074L264.55 428L233.592 428L218.112 401.189L232.442 376.369L218.112 351.549L232.518 326.597L218.112 301.646L233.592 274.835L262.516 274.835L275.872 251.702L262.714 228.913L235.25 228.913L221.057 253.496L190.098 253.496L174.619 226.685L190.098 199.874L219.399 199.874L232.457 177.257L219.2 154.297L192.132 154.297L177.741 179.223L146.782 179.223L131.303 152.412L145.808 127.289L131.303 102.165L145.86 76.9513L131.303 51.7374L146.782 24.9264ZM18.6079 3.6869L45.3093 3.6869L58.6602 26.811L45.3093 49.9351L18.6079 49.9351L5.25732 26.811L18.6079 3.6869ZM192.227 3.6869L218.928 3.6869L232.279 26.811L218.928 49.9351L192.227 49.9351L178.876 26.811L192.227 3.6869ZM148.911 28.6133L135.56 51.7374L148.911 74.8615L175.612 74.8615L188.963 51.7374L175.612 28.6133L148.911 28.6133ZM348.237 77.2389L363.717 104.05L394.675 104.05L410.155 77.2389L394.675 50.4279L363.717 50.4279L348.237 77.2389ZM5.25732 77.2389L18.6079 54.1148L45.3093 54.1148L58.6602 77.2389L45.3093 100.363L18.6079 100.363L5.25732 77.2389ZM218.928 54.1148L192.227 54.1148L178.876 77.2389L192.227 100.363L218.928 100.363L232.279 77.2389L218.928 54.1148ZM305.737 54.1148L279.036 54.1148L265.685 77.2389L279.036 100.363L305.737 100.363L319.088 77.2389L305.737 54.1148ZM352.495 77.2389L365.845 54.1148L392.547 54.1148L405.897 77.2389L392.547 100.363L365.845 100.363L352.495 77.2389ZM148.911 79.0412L175.612 79.0412L188.963 102.165L175.612 125.289L148.911 125.289L135.56 102.165L148.911 79.0412ZM45.4507 150.365L18.4668 150.365L5.25732 127.486L18.6079 104.361L45.3093 104.361L58.6602 127.486L45.4507 150.365ZM178.876 127.486L192.227 104.361L218.928 104.361L232.279 127.486L218.928 150.61L192.227 150.61L178.876 127.486ZM319.088 127.486L305.879 150.365L278.895 150.365L265.685 127.486L279.036 104.361L305.737 104.361L319.088 127.486ZM148.911 129.288L135.56 152.412L148.911 175.536L175.612 175.536L188.963 152.412L175.612 129.288L148.911 129.288ZM235.579 175.291L262.516 175.291L275.749 152.371L262.422 129.288L235.72 129.288L222.37 152.412L235.579 175.291ZM362.529 201.931L348.237 177.176L363.717 150.365L394.675 150.365L410.155 177.176L395.863 201.931L410.155 226.685L395.711 251.702L409.067 274.835L438.169 274.835L453.648 301.646L439.243 326.597L453.648 351.549L439.318 376.369L453.648 401.189L438.169 428L407.21 428L392.819 403.074L363.717 403.074L348.237 376.263L362.567 351.443L348.237 326.622L362.643 301.671L348.237 276.719L362.681 251.702L348.237 226.685L362.529 201.931ZM436.211 374.378L409.169 374.378L395.988 351.549L409.32 328.457L436.059 328.457L449.391 351.549L436.211 374.378ZM409.169 378.36L395.988 401.189L409.339 424.313L436.04 424.313L449.391 401.189L436.211 378.36L409.169 378.36ZM392.792 199.874L365.599 199.874L352.495 177.176L365.845 154.052L392.547 154.052L405.897 177.176L392.792 199.874ZM18.4668 154.297L5.25732 177.176L18.6079 200.3L45.3093 200.3L58.6602 177.176L45.4507 154.297L18.4668 154.297ZM265.709 177.217L278.942 154.297L305.879 154.297L319.088 177.176L305.983 199.874L278.79 199.874L265.709 177.217ZM222.37 202.102L235.579 179.223L262.563 179.223L275.697 201.971L262.27 225.227L235.72 225.227L222.37 202.102ZM192.227 203.561L178.876 226.685L192.227 249.809L218.928 249.809L232.279 226.685L218.928 203.561L192.227 203.561ZM278.942 203.987L265.761 226.817L279.036 249.809L305.737 249.809L319.088 226.685L305.983 203.987L278.942 203.987ZM365.599 203.987L352.495 226.685L365.845 249.809L392.547 249.809L405.897 226.685L392.792 203.987L365.599 203.987ZM15.4058 301.671L1 276.719L16.4792 249.908L47.438 249.908L62.9175 276.719L48.5117 301.671L62.9175 326.622L48.5874 351.443L62.9175 376.263L47.438 403.074L16.4792 403.074L1 376.263L15.3298 351.443L1 326.622L15.4058 301.671ZM45.3279 299.811L18.5896 299.811L5.25732 276.719L18.6079 253.595L45.3093 253.595L58.6602 276.719L45.3279 299.811ZM305.756 299.811L279.017 299.811L265.685 276.719L279.036 253.595L305.737 253.595L319.088 276.719L305.756 299.811ZM392.565 299.811L365.827 299.811L352.495 276.719L365.845 253.595L392.547 253.595L405.897 276.719L392.565 299.811ZM235.702 324.738L262.44 324.738L275.772 301.646L262.422 278.522L235.72 278.522L222.37 301.646L235.702 324.738ZM449.391 301.646L436.059 324.738L409.32 324.738L395.988 301.646L409.339 278.522L436.04 278.522L449.391 301.646ZM58.6602 326.622L45.4797 349.452L18.4377 349.452L5.25732 326.622L18.5896 303.53L45.3279 303.53L58.6602 326.622ZM319.088 326.622L305.908 349.452L278.866 349.452L265.685 326.622L279.017 303.53L305.756 303.53L319.088 326.622ZM405.897 326.622L392.717 349.452L365.675 349.452L352.495 326.622L365.827 303.53L392.565 303.53L405.897 326.622ZM262.516 374.378L275.734 351.483L262.44 328.457L235.702 328.457L222.37 351.549L235.55 374.378L262.516 374.378ZM87.8093 376.263L103.289 403.074L134.247 403.074L149.727 376.263L134.247 349.452L103.289 349.452L87.8093 376.263ZM92.0667 376.263L105.417 353.138L132.119 353.138L145.469 376.263L132.119 399.387L105.417 399.387L92.0667 376.263ZM45.4797 353.433L18.4377 353.433L5.25732 376.263L18.6079 399.387L45.3093 399.387L58.6602 376.263L45.4797 353.433ZM278.942 353.433L265.723 376.328L279.036 399.387L305.737 399.387L319.088 376.263L305.908 353.433L278.942 353.433ZM392.717 353.433L365.675 353.433L352.495 376.263L365.845 399.387L392.547 399.387L405.897 376.263L392.717 353.433ZM235.55 378.36L262.592 378.36L275.772 401.189L262.422 424.313L235.72 424.313L222.37 401.189L235.55 378.36Z" fill-rule="evenodd" fill="#C4C4C4" fill-opacity="1.000000"/>
	</mask>
	<defs/>
</svg>
