<svg width="160.000000" height="160.000000" viewBox="0 0 160 160" fill="none" xmlns="http://www.w3.org/2000/svg" xmlns:xlink="http://www.w3.org/1999/xlink">
	<desc>
			Created with Pixso.
	</desc>
	<rect width="160.000000" height="160.000000" fill="#E5E5E5"/>
	<circle cx="80.000000" cy="80.492950" r="78.000000" fill="#FFF9ED"/>
	<path d="M37.8 59.6736L84.6001 50.2153L84.6001 114.569L37.8 116.028L37.8 59.6736Z" fill-rule="evenodd" fill="url(#paint_linear_1_8772_0)"/>
	<path d="M123 59.6736L84.6001 50.2153L84.6001 114.569L123 116.028L123 59.6736Z" fill-rule="evenodd" fill="url(#paint_linear_1_8773_0)"/>
	<path d="M37.8 59.6736L81 71.7153L81 130.069L37.8 116.028L37.8 59.6736Z" fill-rule="evenodd" fill="url(#paint_linear_1_8774_0)"/>
	<path d="M109.305 27.0535L109.291 27.0678Q108.965 27.3981 108.652 27.7304L110.106 29.103Q110.404 28.7871 110.714 28.4729L110.728 28.4586L111.431 27.747L110.008 26.3419L109.305 27.0535ZM106.115 30.713Q105.513 31.5067 104.983 32.3051L106.649 33.4115Q107.144 32.6656 107.708 31.9221L106.115 30.713ZM103.067 35.7023Q102.618 36.6694 102.285 37.6256L104.174 38.2829Q104.474 37.4207 104.881 36.5439L103.067 35.7023ZM108.829 39.6297Q108.418 39.6729 107.962 39.779L108.416 41.7269Q108.75 41.6489 109.038 41.6187Q109.519 41.5682 109.962 41.574L109.989 39.5741Q109.427 39.5668 108.829 39.6297ZM101.414 41.5574Q101.324 42.5841 101.393 43.5513L102.827 43.4487L103.456 44.2815Q104.227 43.6994 105.008 43.223L103.966 41.5156Q103.679 41.6906 103.394 41.8779Q103.4 41.8052 103.406 41.732L101.414 41.5574ZM115.452 42.948Q115.011 41.8025 114.1 40.998L112.777 42.4978Q113.321 42.9778 113.585 43.6656L115.452 42.948ZM99.1245 45.5082Q98.4248 46.2547 97.7717 47.0662L99.3298 48.3201Q99.9355 47.5674 100.584 46.876L99.1245 45.5082ZM102.594 47.6381Q103.158 48.6035 103.948 49.3349L105.307 47.8676Q104.735 47.3379 104.321 46.6287L102.594 47.6381ZM113.883 49.3425Q114.746 48.5144 115.244 47.432L113.427 46.5955Q113.088 47.3336 112.498 47.8992L113.883 49.3425ZM107.887 51.1509Q108.438 51.2215 109.011 51.2152Q109.485 51.21 109.939 51.1545L109.697 49.1692Q109.352 49.2114 108.989 49.2153Q108.555 49.2201 108.141 49.1671L107.887 51.1509ZM95.3684 50.5448Q94.8679 51.3916 94.4148 52.2813L96.197 53.1889Q96.6216 52.3552 97.0901 51.5624L95.3684 50.5448ZM92.7312 56.1845Q92.5413 56.7128 92.366 57.2518Q92.2251 57.6845 92.0969 58.1967L94.0371 58.6825Q94.1484 58.2373 94.2678 57.8702Q94.4336 57.3609 94.613 56.8619L92.7312 56.1845ZM91.3894 62.3783Q91.2754 63.3644 91.1804 64.4807L93.1731 64.6504Q93.2656 63.5642 93.3762 62.6082L91.3894 62.3783ZM90.9133 68.6411L90.833 70.6587L92.8315 70.7382L92.9116 68.7205L92.9136 68.6839L90.9158 68.5904L90.9133 68.6411ZM90.7415 74.8111L90.7268 76.8854L92.7268 76.8995L92.7415 74.8252L90.7415 74.8111ZM90.7712 81.9211L90.7708 81.907L90.771 81.907L90.7527 80.9596L92.7522 80.9212L92.7708 81.8797L92.7708 81.8826L92.7959 82.8764L90.7964 82.9267L90.7712 81.9211Z" fill-rule="evenodd" fill="#424250"/>
	<path d="M123 59.6736L81 71.7153L81 130.069L123 116.028L123 59.6736Z" fill-rule="evenodd" fill="url(#paint_linear_1_8776_0)"/>
	<path d="M30.7881 74.4792L74.3074 87.2367L81 71.7153L37.8 59.6736L30.7881 74.4792Z" fill-rule="evenodd" fill="url(#paint_linear_1_8777_0)"/>
	<path d="M81 71.7153L86.738 87.2367L129.481 74.6539L123 59.6736L81 71.7153Z" fill-rule="evenodd" fill="url(#paint_linear_1_8778_0)"/>
	<path d="M117.639 13.0259C117.639 13.0259 114.987 9.57082 115.342 6.6152C115.697 3.65957 119.128 1.42227 119.128 1.42227C119.128 1.42227 121.931 3.95322 121.533 7.37385C121.136 10.7945 117.639 13.0259 117.639 13.0259Z" fill-rule="evenodd" fill="#FFF9ED"/>
	<path d="M115.342 6.6152C115.697 3.65957 119.128 1.42227 119.128 1.42227C119.128 1.42227 121.931 3.95322 121.533 7.37385C121.136 10.7945 117.639 13.0259 117.639 13.0259C117.639 13.0259 114.987 9.57082 115.342 6.6152Z" stroke="#424250" stroke-width="2.000000" stroke-linejoin="round"/>
	<ellipse cx="119.821045" cy="17.934834" rx="10.820957" ry="8.160385" fill="#FFD700"/>
	<ellipse cx="119.821045" cy="17.934834" rx="10.820957" ry="8.160385" stroke="#424250" stroke-width="2.000000"/>
	<path d="M115.28 11.3071L115.253 11.3158C114.754 11.062 114.561 10.4703 114.815 9.97117C115.069 9.47202 115.66 9.27929 116.159 9.53316L116.168 9.56005L115.724 10.4336Q122.259 13.7626 122.259 17.8679Q122.259 21.9732 115.724 25.3023L116.168 26.1758L116.159 26.2027C115.66 26.4566 115.069 26.2639 114.815 25.7647C114.561 25.2656 114.754 24.6739 115.253 24.42L115.28 24.4288L115.706 25.2673L115.706 10.4686L115.28 11.3071Z" fill-rule="evenodd" fill="#FFD700"/>
	<path d="M115.253 11.3158L115.253 11.3158C114.754 11.062 114.561 10.4703 114.815 9.97117C115.069 9.47202 115.66 9.27929 116.159 9.53316L116.159 9.53316L116.159 9.53316Q123.259 13.1437 123.259 17.8679Q123.259 22.5922 116.159 26.2027C115.66 26.4566 115.069 26.2639 114.815 25.7647C114.561 25.2656 114.754 24.6739 115.253 24.42Q118.358 22.8406 119.87 21.1235Q121.259 19.5459 121.259 17.8679Q121.259 16.1899 119.87 14.6124Q118.358 12.8953 115.253 11.3158Z" fill-rule="evenodd" fill="#424250"/>
	<ellipse cx="115.705811" cy="17.666893" rx="1.484731" ry="1.510389" fill="#424250"/>
	<path d="M118.112 11.4271C118.112 11.4271 117.66 7.09199 119.678 4.77346C121.697 2.45493 126.124 2.37616 126.124 2.37616C126.124 2.37616 127.243 6.00741 124.919 8.69762C122.595 11.3878 118.112 11.4271 118.112 11.4271Z" fill-rule="evenodd" fill="#FFFFFF"/>
	<path d="M119.678 4.77346C121.697 2.45493 126.124 2.37616 126.124 2.37616C126.124 2.37616 127.243 6.00741 124.919 8.69762C122.595 11.3878 118.112 11.4271 118.112 11.4271C118.112 11.4271 117.66 7.09199 119.678 4.77346Z" stroke="#424250" stroke-width="2.000000" stroke-linejoin="round"/>
	<path d="M130.642 19.9835L135.876 17.8668L130.642 15.7523L130.642 19.9835Z" fill-rule="evenodd" fill="#424250"/>
	<path d="M135.876 17.8668L130.642 15.7523L130.642 19.9835L135.876 17.8668Z" stroke="#424250" stroke-width="2.000000" stroke-linejoin="round"/>
	<defs>
		<linearGradient id="paint_linear_1_8772_0" x1="70.194427" y1="54.382809" x2="70.194427" y2="99.477951" gradientUnits="userSpaceOnUse">
			<stop stop-color="#FFD574"/>
			<stop offset="1.000000" stop-color="#FFE9B7"/>
		</linearGradient>
		<linearGradient id="paint_linear_1_8773_0" x1="96.419998" y1="54.382809" x2="96.419998" y2="99.477951" gradientUnits="userSpaceOnUse">
			<stop stop-color="#FFC233"/>
			<stop offset="1.000000" stop-color="#FFE5A9"/>
		</linearGradient>
		<linearGradient id="paint_linear_1_8774_0" x1="67.702545" y1="64.131378" x2="67.702545" y2="112.367058" gradientUnits="userSpaceOnUse">
			<stop stop-color="#FFDA85"/>
			<stop offset="1.000000" stop-color="#FFF2D4"/>
		</linearGradient>
		<linearGradient id="paint_linear_1_8776_0" x1="93.928116" y1="64.131378" x2="93.928116" y2="112.367065" gradientUnits="userSpaceOnUse">
			<stop stop-color="#FFCB54"/>
			<stop offset="1.000000" stop-color="#FFE5A9"/>
		</linearGradient>
		<linearGradient id="paint_linear_1_8777_0" x1="65.544136" y1="61.419029" x2="57.675777" y2="79.394539" gradientUnits="userSpaceOnUse">
			<stop stop-color="#FFF1D2"/>
			<stop offset="1.000000" stop-color="#FFDE92"/>
		</linearGradient>
		<linearGradient id="paint_linear_1_8778_0" x1="114.557983" y1="61.419029" x2="114.557983" y2="80.305450" gradientUnits="userSpaceOnUse">
			<stop stop-color="#FFCB54"/>
			<stop offset="1.000000" stop-color="#FFE5A9"/>
		</linearGradient>
	</defs>
</svg>
