<svg width="16.000000" height="16.000000" viewBox="0 0 16 16" fill="none" xmlns="http://www.w3.org/2000/svg" xmlns:xlink="http://www.w3.org/1999/xlink">
	<desc>
			Created with Pixso.
	</desc>
	<path d="M12.6143 2.39697C13.7065 2.39697 14.5918 3.28247 14.5918 4.37451L14.5918 12.9438C14.5918 13.3081 14.2967 13.603 13.9327 13.603L3.38571 13.603C2.29354 13.603 1.40815 12.7178 1.40815 11.6255L1.40815 4.37451C1.40815 3.28247 2.29353 2.39697 3.38571 2.39697L12.6143 2.39697ZM12.6143 3.38574L3.38571 3.38574C2.87641 3.38574 2.45044 3.77271 2.40155 4.27954L2.39693 4.37451L2.39693 11.6255C2.39696 12.1348 2.78381 12.5608 3.29074 12.6096L3.38571 12.6143L5.66349 12.6143L5.62496 12.6665L6.41993 13.2537L6.89239 12.6143L13.6031 12.6143L13.6031 10.9751L13.7639 11.155L14.5029 10.4978L14.0025 9.9375C13.8643 9.78345 13.7311 9.63574 13.6031 9.49463L13.6031 4.37427C13.6031 3.90063 13.2671 3.49341 12.8019 3.40356L12.7097 3.39038L12.7092 3.39038L12.6143 3.38574ZM13.6031 9.49463L13.6031 10.9751L13.1186 10.4338C12.0533 9.24976 11.3164 8.47925 10.9195 8.13135C10.6559 7.8999 10.4713 7.89722 10.2248 8.1272L10.1615 8.18994L6.89239 12.6143L5.66349 12.6143L9.40406 7.5564L9.40407 7.5564C10.0751 6.8457 10.8708 6.77197 11.5721 7.3877L11.704 7.50708C12.113 7.8855 12.7437 8.54688 13.6031 9.49463ZM5.69286 5.03369C6.603 5.03369 7.34082 5.77148 7.34082 6.68164C7.34082 7.5918 6.603 8.32959 5.69286 8.32959C4.78271 8.32959 4.0449 7.5918 4.0449 6.68164C4.0449 5.77148 4.78272 5.03369 5.69286 5.03369ZM5.69286 6.02246C5.3288 6.02246 5.03368 6.31763 5.03368 6.68164C5.03368 7.04565 5.3288 7.34082 5.69286 7.34082C6.05692 7.34082 6.35204 7.04565 6.35204 6.68164C6.35204 6.31763 6.05692 6.02246 5.69286 6.02246Z" fill-rule="evenodd" fill="#CF4444" fill-opacity="1.000000"/>
	<defs/>
</svg>
