<svg width="32.000000" height="32.000000" viewBox="0 0 32 32" fill="none" xmlns="http://www.w3.org/2000/svg" xmlns:xlink="http://www.w3.org/1999/xlink">
	<desc>
			Created with Pixso.
	</desc>
	<mask id="path-1-inside-1" fill="white">
		<path d="M17.0433 6C17.2659 6 17.4606 6.08086 17.6276 6.24258C17.7944 6.40431 17.8779 6.59299 17.8779 6.80862C17.8779 7.02426 17.7944 7.21294 17.6276 7.37466L8.94751 16L17.6276 24.6253C17.7944 24.7871 17.8779 24.9802 17.8779 25.2048C17.8779 25.4295 17.7944 25.6181 17.6276 25.7709C17.4606 25.9236 17.2659 26 17.0433 26C16.8207 26 16.626 25.9281 16.459 25.7844L7.25037 16.593C7.0835 16.4133 7 16.2111 7 15.9865C7 15.7619 7.0835 15.5687 7.25037 15.407L16.459 6.21564C16.626 6.07188 16.8207 6 17.0433 6ZM24.1654 6C24.3879 6 24.5826 6.08086 24.7496 6.24258C24.9165 6.40431 25 6.59299 25 6.80862C25 7.02426 24.9165 7.21294 24.7496 7.37466L16.0696 16L24.7496 24.6253C24.9165 24.7871 25 24.9802 25 25.2048C25 25.4295 24.9165 25.6181 24.7496 25.7709C24.5826 25.9236 24.3879 26 24.1654 26C23.9429 26 23.748 25.9281 23.5812 25.7844L14.3724 16.593C14.2056 16.4133 14.1221 16.2111 14.1221 15.9865C14.1221 15.7619 14.2056 15.5687 14.3724 15.407L23.5812 6.21564C23.748 6.07188 23.9429 6 24.1654 6Z" fill-rule="evenodd" fill-opacity="0.000000"/>
	</mask>
	<path d="M17.0433 6C17.2659 6 17.4606 6.08086 17.6276 6.24258C17.7944 6.40431 17.8779 6.59299 17.8779 6.80862C17.8779 7.02426 17.7944 7.21294 17.6276 7.37466L8.94751 16L17.6276 24.6253C17.7944 24.7871 17.8779 24.9802 17.8779 25.2048C17.8779 25.4295 17.7944 25.6181 17.6276 25.7709C17.4606 25.9236 17.2659 26 17.0433 26C16.8207 26 16.626 25.9281 16.459 25.7844L7.25037 16.593C7.0835 16.4133 7 16.2111 7 15.9865C7 15.7619 7.0835 15.5687 7.25037 15.407L16.459 6.21564C16.626 6.07188 16.8207 6 17.0433 6ZM24.1654 6C24.3879 6 24.5826 6.08086 24.7496 6.24258C24.9165 6.40431 25 6.59299 25 6.80862C25 7.02426 24.9165 7.21294 24.7496 7.37466L16.0696 16L24.7496 24.6253C24.9165 24.7871 25 24.9802 25 25.2048C25 25.4295 24.9165 25.6181 24.7496 25.7709C24.5826 25.9236 24.3879 26 24.1654 26C23.9429 26 23.748 25.9281 23.5812 25.7844L14.3724 16.593C14.2056 16.4133 14.1221 16.2111 14.1221 15.9865C14.1221 15.7619 14.2056 15.5687 14.3724 15.407L23.5812 6.21564C23.748 6.07188 23.9429 6 24.1654 6Z" fill-rule="evenodd" fill="#000000" fill-opacity="1.000000"/>
	<defs/>
</svg>
