<svg width="32.000000" height="32.000000" viewBox="0 0 32 32" fill="none" xmlns="http://www.w3.org/2000/svg" xmlns:xlink="http://www.w3.org/1999/xlink">
	<desc>
			Created with Pixso.
	</desc>
	<mask id="path-1-inside-1" fill="white">
		<path d="M14.9567 6C15.1793 6 15.374 6.07188 15.541 6.21564L24.7496 15.407C24.9165 15.5687 25 15.7664 25 16C25 16.2336 24.9165 16.4313 24.7496 16.593L15.541 25.7844C15.374 25.9281 15.1793 26 14.9567 26C14.7341 26 14.5394 25.9191 14.3724 25.7574C14.2056 25.5957 14.1221 25.407 14.1221 25.1914C14.1221 24.9757 14.2056 24.787 14.3724 24.6253L23.0525 16L14.3724 7.37466C14.2056 7.21294 14.1221 7.02426 14.1221 6.80862C14.1221 6.59299 14.2056 6.39532 14.3724 6.21564C14.5394 6.07188 14.7341 6 14.9567 6ZM7.83459 6C8.05713 6 8.25195 6.07188 8.41882 6.21564L17.6276 15.407C17.7944 15.5687 17.8779 15.7664 17.8779 16C17.8779 16.2336 17.7944 16.4313 17.6276 16.593L8.41882 25.7844C8.25195 25.9281 8.05713 26 7.83459 26C7.61206 26 7.41736 25.9191 7.25037 25.7574C7.0835 25.5957 7 25.407 7 25.1914C7 24.9757 7.0835 24.787 7.25037 24.6253L15.9304 16L7.25037 7.37466C7.0835 7.21294 7 7.02426 7 6.80862C7 6.59299 7.0835 6.39532 7.25037 6.21564C7.41736 6.07188 7.61206 6 7.83459 6Z" fill-rule="evenodd" fill-opacity="0.000000"/>
	</mask>
	<path d="M14.9567 6C15.1793 6 15.374 6.07188 15.541 6.21564L24.7496 15.407C24.9165 15.5687 25 15.7664 25 16C25 16.2336 24.9165 16.4313 24.7496 16.593L15.541 25.7844C15.374 25.9281 15.1793 26 14.9567 26C14.7341 26 14.5394 25.9191 14.3724 25.7574C14.2056 25.5957 14.1221 25.407 14.1221 25.1914C14.1221 24.9757 14.2056 24.787 14.3724 24.6253L23.0525 16L14.3724 7.37466C14.2056 7.21294 14.1221 7.02426 14.1221 6.80862C14.1221 6.59299 14.2056 6.39532 14.3724 6.21564C14.5394 6.07188 14.7341 6 14.9567 6ZM7.83459 6C8.05713 6 8.25195 6.07188 8.41882 6.21564L17.6276 15.407C17.7944 15.5687 17.8779 15.7664 17.8779 16C17.8779 16.2336 17.7944 16.4313 17.6276 16.593L8.41882 25.7844C8.25195 25.9281 8.05713 26 7.83459 26C7.61206 26 7.41736 25.9191 7.25037 25.7574C7.0835 25.5957 7 25.407 7 25.1914C7 24.9757 7.0835 24.787 7.25037 24.6253L15.9304 16L7.25037 7.37466C7.0835 7.21294 7 7.02426 7 6.80862C7 6.59299 7.0835 6.39532 7.25037 6.21564C7.41736 6.07188 7.61206 6 7.83459 6Z" fill-rule="evenodd" fill="#20232A" fill-opacity="1.000000"/>
	<defs/>
</svg>
