<svg width="20.000000" height="20.000000" viewBox="0 0 20 20" xmlns="http://www.w3.org/2000/svg" xmlns:xlink="http://www.w3.org/1999/xlink">
	<desc>
			Created with Pixso.
	</desc>
	<path d="M18 4L18 16C18 17.1046 17.1046 18 16 18L4 18C2.89543 18 2 17.1046 2 16L2 4C2 2.89543 2.89543 2 4 2L16 2C17.1046 2 18 2.89543 18 4ZM4 3.5C3.72386 3.5 3.5 3.72386 3.5 4L3.5 16C3.5 16.2761 3.72386 16.5 4 16.5L16 16.5C16.2762 16.5 16.5 16.2761 16.5 16L16.5 4C16.5 3.72386 16.2762 3.5 16 3.5L4 3.5Z"/>
	<path d="M9.9812 9.01831L9.9812 14.0059C9.9812 14.4201 9.64542 14.7559 9.2312 14.7559L6 14.7559C5.58578 14.7559 5.25 14.4201 5.25 14.0059L5.25 9.01831C5.25 8.6041 5.58578 8.26831 6 8.26831L9.2312 8.26831C9.64542 8.26831 9.9812 8.6041 9.9812 9.01831ZM6.75 9.76831L6.75 13.2559L8.4812 13.2559L8.4812 9.76831L6.75 9.76831Z"/>
	<path d="M6 6.78394L14 6.78394C14.4142 6.78394 14.75 6.44815 14.75 6.03394C14.75 5.61972 14.4142 5.28394 14 5.28394L6 5.28394C5.58578 5.28394 5.25 5.61972 5.25 6.03394C5.25 6.44815 5.58578 6.78394 6 6.78394Z"/>
	<path d="M11.918 10.75L14 10.75C14.4142 10.75 14.75 10.4142 14.75 10C14.75 9.58579 14.4142 9.25 14 9.25L11.918 9.25C11.5038 9.25 11.168 9.58579 11.168 10C11.168 10.4142 11.5038 10.75 11.918 10.75Z"/>
	<path d="M11.918 14.7161L14 14.7161C14.4142 14.7161 14.75 14.3803 14.75 13.9661C14.75 13.5519 14.4142 13.2161 14 13.2161L11.918 13.2161C11.5038 13.2161 11.168 13.5519 11.168 13.9661C11.168 14.3803 11.5038 14.7161 11.918 14.7161Z"/>
	<defs/>
</svg>
