<svg width="20.000000" height="20.000000" viewBox="0 0 20 20" xmlns="http://www.w3.org/2000/svg" xmlns:xlink="http://www.w3.org/1999/xlink">
	<desc>
			Created with Pixso.
	</desc>
	<path d="M2.28836 6.00791C1.90161 6.2312 1.66336 6.64386 1.66336 7.09044L1.66336 16.3854C1.66336 17.3519 2.44687 18.1354 3.41336 18.1354L16.5866 18.1354C17.5531 18.1354 18.3366 17.3519 18.3366 16.3854L18.3366 7.09044C18.3366 6.64386 18.0984 6.2312 17.7116 6.00791L10.625 1.91645C10.2812 1.71797 9.86652 1.69592 9.50699 1.85029L9.375 1.91645L2.28836 6.00791ZM16.8366 7.23478L16.8366 16.3854C16.8366 16.5234 16.7247 16.6354 16.5866 16.6354L3.41336 16.6354C3.2753 16.6354 3.16336 16.5234 3.16336 16.3854L3.16336 7.23478L10 3.28766L16.8366 7.23478Z" />
	<path d="M13.304 9.22886L6.69598 9.22886C6.28177 9.22886 5.94598 9.56465 5.94598 9.97886C5.94598 10.3931 6.28177 10.7289 6.69598 10.7289L13.304 10.7289C13.7183 10.7289 14.054 10.3931 14.054 9.97886C14.054 9.56465 13.7183 9.22886 13.304 9.22886Z" />
	<path d="M13.304 12.2289L6.69598 12.2289C6.28177 12.2289 5.94598 12.5646 5.94598 12.9789C5.94598 13.3931 6.28177 13.7289 6.69598 13.7289L13.304 13.7289C13.7183 13.7289 14.054 13.3931 14.054 12.9789C14.054 12.5646 13.7183 12.2289 13.304 12.2289Z" />
	<defs/>
</svg>
