<svg width="20.000000" height="20.000000" viewBox="0 0 20 20" xmlns="http://www.w3.org/2000/svg" xmlns:xlink="http://www.w3.org/1999/xlink">
	<desc>
			Created with Pixso.
	</desc>
	<path d="M18.7803 6.01099L18.7803 16.385C18.7803 17.3515 17.9968 18.135 17.0303 18.135L2.96973 18.135C2.00323 18.135 1.21973 17.3515 1.21973 16.385L1.21973 6.01099C1.21973 5.04449 2.00323 4.26099 2.96973 4.26099L17.0303 4.26099C17.9968 4.26099 18.7803 5.04449 18.7803 6.01099ZM2.96973 5.76099C2.83167 5.76099 2.71973 5.87292 2.71973 6.01099L2.71973 16.385C2.71973 16.5231 2.83167 16.635 2.96973 16.635L17.0303 16.635C17.1683 16.635 17.2803 16.5231 17.2803 16.385L17.2803 6.01099C17.2803 5.87292 17.1683 5.76099 17.0303 5.76099L2.96973 5.76099Z"/>
	<path d="M14.4993 3.60107L14.4993 5.76099L5.50073 5.76099L5.50073 3.60107C5.50073 2.63458 6.28424 1.85107 7.25073 1.85107L12.7493 1.85107C13.7158 1.85107 14.4993 2.63458 14.4993 3.60107ZM12.9993 3.60107C12.9993 3.463 12.8873 3.35107 12.7493 3.35107L7.25073 3.35107C7.11267 3.35107 7.00073 3.463 7.00073 3.60107L7.00073 4.26099L12.9993 4.26099L12.9993 3.60107Z"/>
	<path d="M18.7803 6.01099L18.7803 7.78191C18.7803 8.59487 18.2204 9.30078 17.4288 9.48593L10.3917 11.1319C10.1293 11.1932 9.85623 11.1932 9.59387 11.1317L2.5705 9.48609C1.77924 9.30069 1.21973 8.59494 1.21973 7.78224L1.21973 6.01099C1.21973 5.04449 2.00323 4.26099 2.96973 4.26099L17.0303 4.26099C17.9968 4.26099 18.7803 5.04449 18.7803 6.01099ZM2.96973 5.76099C2.83167 5.76099 2.71973 5.87292 2.71973 6.01099L2.71973 7.78224C2.71973 7.89833 2.79965 7.99916 2.91269 8.02564L9.93607 9.67127C9.97354 9.68005 10.0125 9.68006 10.05 9.67129L17.0872 8.02534C17.2003 7.9989 17.2803 7.89805 17.2803 7.78191L17.2803 6.01099C17.2803 5.87292 17.1683 5.76099 17.0303 5.76099L2.96973 5.76099Z"/>
	<path d="M11.8049 11.3639L11.8049 9.48877C11.8049 8.79841 11.2453 8.23877 10.5549 8.23877L9.44507 8.23877C8.7547 8.23877 8.19507 8.79841 8.19507 9.48877L8.19507 11.3639C8.19507 12.0543 8.7547 12.6139 9.44507 12.6139L10.5549 12.6139C11.2453 12.6139 11.8049 12.0543 11.8049 11.3639ZM10.3049 11.1139L9.69507 11.1139L9.69507 9.73877L10.3049 9.73877L10.3049 11.1139Z"/>
	<rect x="9.623474" y="9.515930" rx="0.200000" width="0.753052" height="1.820830" />
	<defs/>
</svg>
