<svg width="200.000000" height="110.000000" viewBox="0 0 200 110" fill="none" xmlns="http://www.w3.org/2000/svg" xmlns:xlink="http://www.w3.org/1999/xlink">
	<desc>
			Created with Pixso.
	</desc>
	<g filter="url(#filter_1_8500_dd)">
		<path d="M38 27C36.8954 27 36 27.8954 36 29L36 57C36 58.1046 36.8954 59 38 59L162 59C163.105 59 164 58.1046 164 57L164 29C164 27.8954 163.105 27 162 27L38 27ZM100 65L95 59L105 59L100 65Z" fill-rule="evenodd" fill="#000000" fill-opacity="1.000000"/>
	</g>
	<path d="M108.764 39.481L112.951 39.481L112.951 40.0107C112.725 46.3955 112.544 48.5522 111.983 49.2393C111.676 49.6289 111.354 49.7554 110.879 49.7964C110.387 49.8545 109.591 49.8271 108.805 49.7827C108.777 49.4751 108.651 49.0547 108.456 48.7607C109.365 48.8462 110.206 48.8462 110.527 48.8462C110.808 48.8462 110.961 48.8188 111.102 48.6377C111.563 48.1455 111.775 46.0195 111.956 40.4448L108.401 40.4448C108.008 41.3848 107.574 42.2393 107.085 42.8955C106.901 42.728 106.453 42.4478 106.231 42.3076C107.167 41.0771 107.923 39.1426 108.371 37.2251L109.365 37.4644C109.198 38.1514 109.003 38.8213 108.764 39.481ZM134.552 47.9917C134.552 48.6377 134.747 48.7744 135.769 48.7744L139.508 48.7744C140.318 48.7744 140.475 48.4976 140.571 47.1646C140.81 47.3354 141.203 47.4893 141.511 47.5439C141.34 49.1948 141.005 49.687 139.549 49.687L135.755 49.687C134.063 49.687 133.571 49.335 133.571 47.9917L133.571 41.6206C133.264 42.0684 132.942 42.4888 132.607 42.8545C132.467 42.6426 132.074 42.2529 131.862 42.0684C133.011 40.9097 133.978 39.1152 134.538 37.2388L135.533 37.5054C135.393 37.9395 135.239 38.4009 135.055 38.8213L140.711 38.8213L140.711 39.3135C140.684 44.1567 140.67 45.7393 140.363 46.2007C140.164 46.522 139.915 46.6211 139.536 46.6758C139.218 46.7163 138.682 46.7035 138.116 46.69L138.093 46.6895C138.079 46.3955 137.98 45.9888 137.827 45.7256C138.373 45.7803 138.862 45.7803 139.088 45.7803C139.269 45.7803 139.382 45.7529 139.467 45.5991C139.662 45.2744 139.703 43.8628 139.717 39.7612L134.638 39.7612C134.385 40.291 134.091 40.7969 133.81 41.2583L138.473 41.2583L138.473 45.5137L134.552 45.5137L134.552 47.9917ZM102.827 39.522C103.039 38.8486 103.292 37.9121 103.387 37.2524L104.508 37.4644C104.269 38.1514 104.02 38.9204 103.78 39.522L106.104 39.522L106.104 48.6069L102.211 48.6069L102.211 49.7144L101.261 49.7144L101.261 39.522L102.827 39.522ZM126.937 38.8486L126.937 39.7476L117.695 39.7476C117.025 41.0464 116.211 42.1948 115.371 43.063C115.176 42.8818 114.701 42.5605 114.461 42.4341C115.805 41.2036 116.953 39.2827 117.626 37.2524L118.648 37.519C118.495 37.9668 118.313 38.4146 118.115 38.8486L126.937 38.8486ZM62.6623 38.2744C65.2805 38.1069 68.4147 37.7856 70.1647 37.2969L70.8244 38.1206C68.7805 38.6812 65.5881 39.0024 62.9289 39.1289C62.9152 38.8794 62.7888 38.5137 62.6623 38.2744ZM83.3683 48.231L83.3683 44.2388L84.4894 44.2388L84.4894 50.0493L83.3683 50.0493L83.3683 49.2529L73.5109 49.2529L73.5109 44.2388L74.632 44.2388L74.632 48.231L78.4122 48.231L78.4122 43.3569L74.1295 43.3569L74.1295 38.5684L75.2062 38.5684L75.2062 42.335L78.4122 42.335L78.4122 37.2969L79.5333 37.2969L79.5333 42.335L82.8214 42.335L82.8214 38.5547L83.9425 38.5547L83.9425 43.3569L79.5333 43.3569L79.5333 48.231L83.3683 48.231ZM59.8766 37.4233C60.6867 37.8711 61.8078 38.5137 62.382 38.9067L61.7805 39.7476C61.2199 39.3408 60.1125 38.6401 59.2888 38.165L59.8766 37.4233ZM129.975 37.437C130.898 37.7993 132.047 38.4316 132.621 38.9067L132.019 39.7749C131.459 39.269 130.338 38.5991 129.401 38.2061L129.975 37.437ZM55.1736 37.8711L55.1736 42.7417L57.3406 42.7417L57.3406 43.5962L53.9124 43.5962C54.8933 44.2969 55.9426 45.2197 56.5168 45.835L55.6897 46.4092C55.4368 46.1152 55.0745 45.7529 54.6677 45.3872C47.261 45.8794 46.5466 45.9204 46.0579 46.0879C46.0032 45.8931 45.8767 45.3872 45.7639 45.1377C46.0168 45.1069 46.3245 44.9805 46.6594 44.772C46.9534 44.6318 47.6951 44.1704 48.4368 43.5962L44.8547 43.5962L44.8547 42.7417L46.9978 42.7417L46.9978 37.8711L55.1736 37.8711ZM97.2691 38.8931L93.0411 38.8931L93.0411 45.3599L92.0464 45.3599L92.0464 37.9668L98.2911 37.9668L98.2911 45.3599L97.2691 45.3599L97.2691 38.8931ZM89.6812 46.7305C90.2691 46.5767 90.8878 46.3818 91.4893 46.2007L91.6295 47.1646L86.8819 48.5796L86.6597 47.5713C87.2169 47.4175 87.9175 47.25 88.6729 47.0244L88.6729 43.2168L87.022 43.2168L87.022 42.2529L88.6729 42.2529L88.6729 39.2144L86.8272 39.2144L86.8272 38.2334L91.4175 38.2334L91.4175 39.2144L89.6812 39.2144L89.6812 42.2529L91.1373 42.2529L91.1373 43.2168L89.6812 43.2168L89.6812 46.7305ZM54.1345 39.5493L54.1345 38.6401L48.0027 38.6401L48.0027 39.5493L54.1345 39.5493ZM70.4587 39.2964C69.9836 40.209 69.4094 41.2583 68.9343 41.959L68.1208 41.6069C68.5856 40.8789 69.1735 39.7168 69.5085 38.8931L70.4587 39.2964ZM66.569 39.187C66.863 39.9014 67.2116 40.8379 67.3517 41.4531L66.4289 41.7915C66.2888 41.1592 65.9538 40.1816 65.6872 39.4536L66.569 39.187ZM63.9645 39.4092C64.3713 40.0825 64.819 40.978 65.0139 41.5659L64.132 41.9453C63.9372 41.3574 63.5031 40.4175 63.1237 39.7305L63.9645 39.4092ZM96.1924 48.4258C96.1924 48.8188 96.3052 48.9146 96.6949 48.9146L97.8297 48.9146C98.3355 48.9146 98.4039 48.5386 98.4756 46.563C98.7252 46.7476 99.0464 46.9014 99.313 46.9561C99.1866 49.1538 99.0328 49.7007 97.8297 49.7007L96.5547 49.7007C95.6046 49.7007 95.2252 49.4478 95.2252 48.5249L95.2252 45.5854C94.7364 47.25 93.629 48.9146 91.3184 50.1074C91.1954 49.9092 90.8707 49.5024 90.6622 49.3486C94.1758 47.5576 94.6099 44.9258 94.6099 42.7554L94.6099 40.0688L95.5909 40.0688L95.5909 42.7827C95.5909 43.5415 95.5328 44.3242 95.338 45.1377L96.1924 45.1377L96.1924 48.4258ZM54.1345 40.2637L48.0027 40.2637L48.0027 41.0635L54.1345 41.0635L54.1345 40.2637ZM102.211 43.3877L105.151 43.3877L105.151 40.4585L102.211 40.4585L102.211 43.3877ZM125.901 40.7695L125.901 41.6514L117.585 41.6514L117.585 40.7695L125.901 40.7695ZM59.1486 41.1865C59.9758 41.5796 61.1208 42.1812 61.7087 42.5605L61.1208 43.415C60.5466 43.022 59.4152 42.3794 58.5744 41.9316L59.1486 41.1865ZM129.189 41.2583C130.085 41.6206 131.206 42.2085 131.794 42.6733L131.206 43.5415C130.645 43.0767 129.541 42.4204 128.629 42.0273L129.189 41.2583ZM54.1345 41.7744L48.0027 41.7744L48.0027 42.7417L54.1345 42.7417L54.1345 41.7744ZM67.2697 45.3872L71.0637 45.3872L71.0637 46.3545L67.2697 46.3545L67.2697 48.9727C67.2697 49.5195 67.1569 49.7554 66.7228 49.9092C66.3024 50.063 65.6735 50.063 64.7062 50.063C64.6652 49.7827 64.4977 49.4204 64.3576 49.1538C65.0685 49.1812 65.7966 49.1812 65.9948 49.1675C66.2033 49.1675 66.2614 49.1265 66.2614 48.9453L66.2614 46.3545L62.382 46.3545L62.382 45.3872L66.2614 45.3872L66.2614 44.6182C66.904 44.2251 67.632 43.6372 68.2199 43.0767L63.1647 43.0767L63.1647 42.1265L69.1291 42.1265L69.3547 42.0684L70.0246 42.6016C69.2966 43.415 68.2473 44.3242 67.2697 44.9668L67.2697 45.3872ZM137.563 44.6182L137.563 42.1538L134.552 42.1538L134.552 44.6182L137.563 44.6182ZM108.542 42.6152C109.324 43.6099 110.292 44.9531 110.739 45.7803L109.857 46.3271C109.437 45.4863 108.497 44.0986 107.728 43.0903L108.542 42.6152ZM116.184 43.6509L116.184 42.7417L124.767 42.7417C124.862 45.9341 125.242 49.041 126.335 49.041C126.599 49.041 126.684 48.313 126.698 47.1509C126.91 47.3628 127.204 47.6123 127.426 47.7524C127.34 49.4067 127.091 50.063 126.277 50.063C124.432 50.063 123.926 47.25 123.745 43.6509L116.184 43.6509ZM49.9373 43.5962C49.2913 44.1123 48.6213 44.6045 47.9207 44.9976L53.7996 44.6318C53.4373 44.3516 53.0852 44.0713 52.7366 43.8491L53.1125 43.5962L49.9373 43.5962ZM102.211 44.3105L102.211 47.6704L105.151 47.6704L105.151 44.3105L102.211 44.3105ZM62.1735 45.3325C61.4865 46.8159 60.591 48.5796 59.8356 49.8682L58.9367 49.2393C59.6374 48.1318 60.632 46.2964 61.3737 44.6865L62.1735 45.3325ZM132.508 45.3735C131.766 46.8433 130.786 48.5659 129.958 49.8818L129.107 49.1812C129.849 48.1182 130.953 46.2827 131.753 44.7036L132.508 45.3735ZM142.588 47.7114C142.588 46.5356 143.555 45.5854 144.717 45.5854C145.907 45.5854 146.857 46.5356 146.857 47.7114C146.857 48.8872 145.907 49.8545 144.717 49.8545C143.555 49.8545 142.588 48.8872 142.588 47.7114ZM50.5251 45.8213C51.2942 46.2007 52.217 46.8296 52.6511 47.3047L51.9231 47.9097C51.5027 47.4312 50.6072 46.7749 49.8381 46.3682L50.5251 45.8213ZM143.302 47.7114C143.302 48.5112 143.945 49.1401 144.717 49.1401C145.513 49.1401 146.129 48.5112 146.129 47.7114C146.129 46.9424 145.513 46.2964 144.717 46.2964C143.945 46.2964 143.302 46.9424 143.302 47.7114ZM56.4451 49.4751C56.011 48.7471 55.0198 47.6431 54.1345 46.8569L54.9617 46.4092C55.8572 47.1509 56.8655 48.2173 57.3406 48.9727L56.4451 49.4751ZM47.3875 46.8706C46.9124 47.7832 46.2834 48.8325 45.4563 49.5024L44.5471 49.0137C45.3708 48.3848 46.0715 47.3184 46.4919 46.4946L47.3875 46.8706ZM49.2502 48.5522C49.2502 48.8872 49.3904 48.959 50.1184 48.959L52.6648 48.959C53.239 48.959 53.3381 48.7915 53.3928 47.6294C53.6321 47.7832 54.0251 47.9233 54.3191 47.978C54.1926 49.4478 53.8713 49.8135 52.7502 49.8135L50.0466 49.8135C48.6077 49.8135 48.2283 49.5605 48.2283 48.5522L48.2283 46.5493L49.2502 46.5493L49.2502 48.5522Z" fill="#FFFFFF"/>
	<defs>
		<filter id="filter_1_8500_dd" x="0.000000" y="0.000000" width="200.000000" height="110.000000" filterUnits="userSpaceOnUse" color-interpolation-filters="sRGB">
			<feFlood flood-opacity="0" result="BackgroundImageFix"/>
			<feColorMatrix in="SourceAlpha" type="matrix" values="0 0 0 0 0 0 0 0 0 0 0 0 0 0 0 0 0 0 127 0"/>
			<feMorphology radius="8" in="" result="BackgroundImageFix"/>
			<feOffset dx="0" dy="9"/>
			<feGaussianBlur stdDeviation="9.33333"/>
			<feColorMatrix type="matrix" values="0 0 0 0 0 0 0 0 0 0 0 0 0 0 0 0 0 0 0.051 0"/>
			<feBlend mode="normal" in2="BackgroundImageFix" result="effect_dropShadow_1"/>
			<feColorMatrix in="SourceAlpha" type="matrix" values="0 0 0 0 0 0 0 0 0 0 0 0 0 0 0 0 0 0 127 0"/>
			<feOffset dx="0" dy="6"/>
			<feGaussianBlur stdDeviation="5.33333"/>
			<feColorMatrix type="matrix" values="0 0 0 0 0 0 0 0 0 0 0 0 0 0 0 0 0 0 0.078 0"/>
			<feBlend mode="normal" in2="effect_dropShadow_1" result="effect_dropShadow_2"/>
			<feColorMatrix in="SourceAlpha" type="matrix" values="0 0 0 0 0 0 0 0 0 0 0 0 0 0 0 0 0 0 127 0"/>
			<feMorphology radius="-4" in="" result="effect_dropShadow_2"/>
			<feOffset dx="0" dy="3"/>
			<feGaussianBlur stdDeviation="2"/>
			<feColorMatrix type="matrix" values="0 0 0 0 0 0 0 0 0 0 0 0 0 0 0 0 0 0 0.12 0"/>
			<feBlend mode="normal" in2="effect_dropShadow_2" result="effect_dropShadow_3"/>
			<feBlend mode="normal" in="SourceGraphic" in2="effect_dropShadow_3" result="shape"/>
		</filter>
		<filter id="filter_1_8501_dd" x="8.000000" y="8.000000" width="184.000000" height="88.000000" filterUnits="userSpaceOnUse" color-interpolation-filters="sRGB">
			<feFlood flood-opacity="0" result="BackgroundImageFix"/>
			<feColorMatrix in="SourceAlpha" type="matrix" values="0 0 0 0 0 0 0 0 0 0 0 0 0 0 0 0 0 0 127 0"/>
			<feOffset dx="0" dy="9"/>
			<feGaussianBlur stdDeviation="9.33333"/>
			<feColorMatrix type="matrix" values="0 0 0 0 0 0 0 0 0 0 0 0 0 0 0 0 0 0 0.051 0"/>
			<feBlend mode="normal" in2="BackgroundImageFix" result="effect_dropShadow_1"/>
			<feColorMatrix in="SourceAlpha" type="matrix" values="0 0 0 0 0 0 0 0 0 0 0 0 0 0 0 0 0 0 127 0"/>
			<feOffset dx="0" dy="6"/>
			<feGaussianBlur stdDeviation="5.33333"/>
			<feColorMatrix type="matrix" values="0 0 0 0 0 0 0 0 0 0 0 0 0 0 0 0 0 0 0.078 0"/>
			<feBlend mode="normal" in2="effect_dropShadow_1" result="effect_dropShadow_2"/>
			<feColorMatrix in="SourceAlpha" type="matrix" values="0 0 0 0 0 0 0 0 0 0 0 0 0 0 0 0 0 0 127 0"/>
			<feOffset dx="0" dy="3"/>
			<feGaussianBlur stdDeviation="2"/>
			<feColorMatrix type="matrix" values="0 0 0 0 0 0 0 0 0 0 0 0 0 0 0 0 0 0 0.12 0"/>
			<feBlend mode="normal" in2="effect_dropShadow_2" result="effect_dropShadow_3"/>
			<feBlend mode="normal" in="SourceGraphic" in2="effect_dropShadow_3" result="shape"/>
		</filter>
		<filter id="filter_1_8502_dd" x="67.000000" y="40.000000" width="66.000000" height="62.000000" filterUnits="userSpaceOnUse" color-interpolation-filters="sRGB">
			<feFlood flood-opacity="0" result="BackgroundImageFix"/>
			<feColorMatrix in="SourceAlpha" type="matrix" values="0 0 0 0 0 0 0 0 0 0 0 0 0 0 0 0 0 0 127 0"/>
			<feOffset dx="0" dy="9"/>
			<feGaussianBlur stdDeviation="9.33333"/>
			<feColorMatrix type="matrix" values="0 0 0 0 0 0 0 0 0 0 0 0 0 0 0 0 0 0 0.051 0"/>
			<feBlend mode="normal" in2="BackgroundImageFix" result="effect_dropShadow_1"/>
			<feColorMatrix in="SourceAlpha" type="matrix" values="0 0 0 0 0 0 0 0 0 0 0 0 0 0 0 0 0 0 127 0"/>
			<feOffset dx="0" dy="6"/>
			<feGaussianBlur stdDeviation="5.33333"/>
			<feColorMatrix type="matrix" values="0 0 0 0 0 0 0 0 0 0 0 0 0 0 0 0 0 0 0.078 0"/>
			<feBlend mode="normal" in2="effect_dropShadow_1" result="effect_dropShadow_2"/>
			<feColorMatrix in="SourceAlpha" type="matrix" values="0 0 0 0 0 0 0 0 0 0 0 0 0 0 0 0 0 0 127 0"/>
			<feOffset dx="0" dy="3"/>
			<feGaussianBlur stdDeviation="2"/>
			<feColorMatrix type="matrix" values="0 0 0 0 0 0 0 0 0 0 0 0 0 0 0 0 0 0 0.12 0"/>
			<feBlend mode="normal" in2="effect_dropShadow_2" result="effect_dropShadow_3"/>
			<feBlend mode="normal" in="SourceGraphic" in2="effect_dropShadow_3" result="shape"/>
		</filter>
	</defs>
</svg>
