<svg width="16.000000" height="16.000000" viewBox="0 0 16 16" fill="none" xmlns="http://www.w3.org/2000/svg" xmlns:xlink="http://www.w3.org/1999/xlink">
	<desc>
			Created with Pixso.
	</desc>
	<path d="M14.5032 4.24792L8.23343 0.937988C8.08736 0.86084 7.91264 0.86084 7.76657 0.937988L1.49677 4.24792C1.3328 4.33447 1.23019 4.50464 1.23019 4.69006L1.23019 11.3099C1.23019 11.4954 1.3328 11.6655 1.49677 11.7521L7.76657 15.062C7.91264 15.1392 8.08736 15.1392 8.23343 15.062L14.5032 11.7521C14.6672 11.6655 14.7698 11.4954 14.7698 11.3099L14.7698 4.69006C14.7698 4.50464 14.6672 4.33447 14.5032 4.24792ZM7.89681 7.38013L2.80119 4.69006L5.04294 3.50659L10.0718 6.32935L8.10003 7.38013L7.89681 7.38013ZM11.1198 5.77087L13.1733 4.67657L8 1.9455L6.09576 2.95081L11.1198 5.77087ZM8.5 8.30011L13.7698 5.49182L13.7698 11.0085L8.5 13.7905L8.5 8.30011ZM2.23019 11.0085L2.23019 5.51941L7.5 8.30145L7.5 13.7905L2.23019 11.0085Z" fill-rule="evenodd" fill="#7F8081" fill-opacity="1.000000"/>
	<defs/>
</svg>
