<svg width="20.000000" height="20.000000" viewBox="0 0 20 20" fill="none" xmlns="http://www.w3.org/2000/svg" xmlns:xlink="http://www.w3.org/1999/xlink">
	<desc>
			Created with Pixso.
	</desc>
	<rect width="20.000000" height="20.000000" fill="#E5E5E5"/>
	<path d="M12.3419 10.8982C13.4691 10.1906 14.8027 9.89032 16.0089 10.0658C16.4492 10.1301 16.846 9.796 16.846 9.35612L16.846 2.75365C16.8443 2.06422 16.2733 1.49998 15.575 1.49998L3.39828 1.49998C2.70166 1.49998 2.12939 2.06464 2.12939 2.75365L2.12939 17.1649C2.12939 17.8543 2.69998 18.4185 3.39828 18.4185L10.9702 18.4185C11.5767 18.4185 11.9049 17.7333 11.537 17.2575C10.4584 15.8605 10.1374 13.8738 11.1364 12.2767L11.1364 12.2771C11.4536 11.7763 11.8335 11.2121 12.3419 10.8982ZM14.1526 3.9426C14.4795 3.9426 14.7798 4.15408 14.8572 4.4675C14.9672 4.91119 14.6136 5.32104 14.1792 5.32104L4.56567 5.32104C4.23914 5.32104 3.93884 5.10956 3.86142 4.79614C3.75357 4.35203 4.10507 3.9426 4.53943 3.9426L14.1526 3.9426ZM14.1788 7.32631C14.5586 7.32631 14.8763 7.6393 14.8763 8.01489C14.812 8.39091 14.5591 8.70432 14.1792 8.70432L4.56567 8.70432C4.23914 8.70432 3.93884 8.49284 3.86142 8.17943C3.75357 7.73531 4.10507 7.32588 4.53943 7.32588L4.53946 7.32631L14.1788 7.32631ZM7.64655 12.0876L4.69424 12.0876C4.36728 12.0876 4.06699 11.8761 3.98959 11.5627C3.88004 11.119 4.23151 10.7092 4.6676 10.7092L7.55771 10.7092C7.95404 10.7092 8.29367 11.0323 8.28098 11.4269C8.26956 11.7911 8.01831 12.0876 7.64655 12.0876Z" fill-rule="evenodd" fill="#332929" fill-opacity="1.000000"/>
	<path d="M15.5276 18.0603C17.5369 18.0603 19.166 16.521 19.166 14.6227C19.166 12.7242 17.5369 11.1851 15.5276 11.1851C13.6978 11.1851 12.1835 12.4615 11.9273 14.1227L16.2012 14.1227L15.0719 12.9934C14.8767 12.7982 14.8767 12.4816 15.0719 12.2863C15.2672 12.0911 15.5838 12.0911 15.7791 12.2863L17.7619 14.2691C17.9571 14.4644 17.9571 14.781 17.7619 14.9762L15.7791 16.9591C15.5838 17.1543 15.2672 17.1543 15.0719 16.9591C14.8767 16.7638 14.8767 16.4472 15.0719 16.252L16.2012 15.1227L11.9274 15.1227C12.1839 16.7843 13.6981 18.0599 15.5276 18.0599L15.5276 18.0603Z" fill-rule="evenodd" fill="#332929" fill-opacity="1.000000"/>
	<defs/>
</svg>
