<svg width="20.000000" height="20.000000" viewBox="0 0 20 20" fill="none" xmlns="http://www.w3.org/2000/svg" xmlns:xlink="http://www.w3.org/1999/xlink">
	<desc>
			Created with Pixso.
	</desc>
	<rect width="20.000000" height="20.000000" fill="#E5E5E5"/>
	<path d="M16.8366 7.23478L10 3.28766L3.16336 7.23478L3.16336 16.7087L7.55859 16.7087C7.97281 16.7087 8.30859 17.0445 8.30859 17.4587C8.30859 17.873 7.97281 18.2087 7.55859 18.2087L2.91336 18.2087C2.22302 18.2087 1.66336 17.6491 1.66336 16.9587L1.66336 7.09044C1.66336 6.64386 1.90161 6.2312 2.28836 6.00791L9.375 1.91645C9.76175 1.69316 10.2383 1.69316 10.625 1.91645L17.7116 6.00791C18.0984 6.2312 18.3366 6.64386 18.3366 7.09044L18.3366 10.5698C18.3366 10.984 18.0008 11.3198 17.5866 11.3198C17.1724 11.3198 16.8366 10.984 16.8366 10.5698L16.8366 7.23478Z" fill-rule="evenodd" fill="#887E7E"/>
	<path d="M14.0821 16.9284C13.7892 17.2213 13.7892 17.6962 14.0821 17.9891C14.375 18.282 14.8498 18.282 15.1427 17.9891L18.1169 15.0148C18.4099 14.7219 18.4099 14.2471 18.1169 13.9542L15.1427 10.9799C14.8498 10.6871 14.375 10.6871 14.0821 10.9799C13.7892 11.2728 13.7892 11.7477 14.0821 12.0406L16.526 14.4845L14.0821 16.9284Z" fill-rule="evenodd" fill="#887E7E"/>
	<path d="M16.6081 13.7345L10 13.7345C9.58578 13.7345 9.25 14.0703 9.25 14.4845C9.25 14.8987 9.58578 15.2345 10 15.2345L16.6081 15.2345C17.0223 15.2345 17.3581 14.8987 17.3581 14.4845C17.3581 14.0703 17.0223 13.7345 16.6081 13.7345Z" fill-rule="evenodd" fill="#887E7E"/>
	<defs/>
</svg>
