<svg width="20.000000" height="20.000000" viewBox="0 0 20 20" fill="none" xmlns="http://www.w3.org/2000/svg" xmlns:xlink="http://www.w3.org/1999/xlink">
	<desc>
			Created with Pixso.
	</desc>
	<rect width="20.000000" height="20.000000" fill="#E5E5E5"/>
	<path d="M12.7125 10.8982C13.8397 10.1906 15.1733 9.89032 16.3795 10.0658C16.8199 10.1301 17.2166 9.796 17.2166 9.35612L17.2166 2.75365C17.2149 2.06422 16.6439 1.49998 15.9456 1.49998L3.76889 1.49998C3.07227 1.49998 2.5 2.06464 2.5 2.75365L2.5 17.1649C2.5 17.8543 3.07059 18.4185 3.76889 18.4185L11.3408 18.4185C11.9473 18.4185 12.2755 17.7333 11.9076 17.2575C10.829 15.8605 10.508 13.8738 11.507 12.2767L11.507 12.2771C11.8242 11.7763 12.2041 11.2121 12.7125 10.8982ZM14.5232 3.9426C14.8501 3.9426 15.1504 4.15408 15.2278 4.4675C15.3378 4.91119 14.9842 5.32104 14.5498 5.32104L4.93628 5.32104C4.60974 5.32104 4.30945 5.10956 4.23203 4.79614C4.12418 4.35203 4.47568 3.9426 4.91003 3.9426L14.5232 3.9426ZM14.5494 7.32631C14.9292 7.32631 15.2469 7.6393 15.2469 8.01489C15.1826 8.39091 14.9297 8.70432 14.5498 8.70432L4.93628 8.70432C4.60974 8.70432 4.30945 8.49284 4.23203 8.17943C4.12418 7.73531 4.47568 7.32588 4.91003 7.32588L4.91006 7.32631L14.5494 7.32631ZM8.01715 12.0876L5.06485 12.0876C4.73788 12.0876 4.43759 11.8761 4.3602 11.5627C4.25064 11.119 4.60211 10.7092 5.03821 10.7092L7.92831 10.7092C8.32465 10.7092 8.66428 11.0323 8.65158 11.4269C8.64017 11.7911 8.38892 12.0876 8.01715 12.0876ZM18.2292 16.349C18.8636 15.3466 19.054 13.9677 18.2292 12.7145C17.9758 12.3389 17.5943 12.025 17.2771 11.8364C14.17 10.0202 10.8705 13.4035 12.8368 16.4733C13.0272 16.7868 13.5981 17.2249 13.9154 17.4758C15.0561 18.103 16.3897 17.914 17.3393 17.2871L18.291 18.2274C18.4178 18.3521 18.6082 18.4164 18.735 18.4164C18.8619 18.4164 19.0523 18.3538 19.1792 18.2274C19.4981 17.9161 19.4981 17.5384 19.1808 17.2892L18.2292 16.349ZM13.5999 14.4685C13.5999 13.4035 14.425 12.588 15.5015 12.588C16.58 12.588 17.4036 13.4018 17.4036 14.4685C17.4052 15.5352 16.58 16.349 15.5015 16.349C14.4229 16.349 13.5999 15.5352 13.5999 14.4685Z" fill-rule="evenodd" fill="#332929" fill-opacity="1.000000"/>
	<defs/>
</svg>
