<svg width="20.000000" height="20.000000" viewBox="0 0 20 20" fill="none" xmlns="http://www.w3.org/2000/svg" xmlns:xlink="http://www.w3.org/1999/xlink">
	<desc>
			Created with Pixso.
	</desc>
	<rect width="20.000000" height="20.000000" fill="#E5E5E5"/>
	<path d="M18.1046 6.00791C18.4914 6.2312 18.7296 6.64386 18.7296 7.09044L18.7296 16.9587C18.7296 17.6491 18.17 18.2087 17.4796 18.2087L2.80637 18.2087C2.39215 18.2087 2.05637 17.873 2.05637 17.4587L2.05637 7.09044C2.05637 6.64386 2.29462 6.2312 2.68137 6.00791L9.76797 1.91645C10.1118 1.71797 10.5265 1.69592 10.886 1.85029L11.018 1.91645L18.1046 6.00791ZM3.55637 16.7087L17.2296 16.7087L17.2296 7.23478L10.393 3.28766L3.55637 7.23478L3.55637 16.7087Z" fill-rule="evenodd" fill="#FFB200" fill-opacity="1.000000"/>
	<path d="M2.80637 7.09044C2.80637 6.91181 2.90167 6.74675 3.05637 6.65743L10.143 2.56597C10.2977 2.47665 10.4883 2.47665 10.643 2.56597L17.7296 6.65743C17.8843 6.74675 17.9796 6.91181 17.9796 7.09044L17.9796 16.9587C17.9796 17.2349 17.7557 17.4587 17.4796 17.4587L2.80637 17.4587L2.80637 7.09044Z" fill-rule="evenodd" fill="#FFB200"/>
	<path d="M14.868 15.9284C14.5751 16.2213 14.5751 16.6962 14.868 16.9891C15.1609 17.282 15.6357 17.282 15.9286 16.9891L18.9029 14.0148C19.1958 13.7219 19.1958 13.2471 18.9029 12.9542L15.9286 9.97995C15.6357 9.68705 15.1609 9.68705 14.868 9.97995C14.5751 10.2728 14.5751 10.7477 14.868 11.0406L17.3119 13.4845L14.868 15.9284Z" fill-rule="evenodd" fill="#FFFFFF"/>
	<path d="M17.394 12.7345L10 12.7345C9.58578 12.7345 9.25 13.0703 9.25 13.4845C9.25 13.8987 9.58578 14.2345 10 14.2345L17.394 14.2345C17.8082 14.2345 18.144 13.8987 18.144 13.4845C18.144 13.0703 17.8082 12.7345 17.394 12.7345Z" fill-rule="evenodd" fill="#FFFFFF"/>
	<defs/>
</svg>
