<svg width="16.000000" height="16.000000" viewBox="0 0 16 16" fill="none" xmlns="http://www.w3.org/2000/svg" xmlns:xlink="http://www.w3.org/1999/xlink">
	<desc>
			Created with Pixso.
	</desc>
	<rect width="16.000000" height="16.000000" fill="#E5E5E5"/>
	<mask id="path-1-inside-1" fill="white">
		<path d="M1.87592 3.5C1.87592 3.08569 2.2117 2.75 2.62592 2.75C3.04013 2.75 3.37592 3.08569 3.37592 3.5C3.37592 3.91431 3.04013 4.25 2.62592 4.25C2.2117 4.25 1.87592 3.91431 1.87592 3.5ZM1.87592 8C1.87592 7.58569 2.2117 7.25 2.62592 7.25C3.04013 7.25 3.37592 7.58569 3.37592 8C3.37592 8.41431 3.04013 8.75 2.62592 8.75C2.2117 8.75 1.87592 8.41431 1.87592 8ZM1.87592 12.5C1.87592 12.0857 2.2117 11.75 2.62592 11.75C3.04013 11.75 3.37592 12.0857 3.37592 12.5C3.37592 12.9143 3.04013 13.25 2.62592 13.25C2.2117 13.25 1.87592 12.9143 1.87592 12.5ZM13.6241 4C13.9002 4 14.1241 3.77612 14.1241 3.5C14.1241 3.22388 13.9002 3 13.6241 3L6.15022 3C5.87408 3 5.65022 3.22388 5.65022 3.5C5.65022 3.77612 5.87408 4 6.15022 4L13.6241 4ZM13.6241 8.5C13.9002 8.5 14.1241 8.27612 14.1241 8C14.1241 7.72388 13.9002 7.5 13.6241 7.5L6.15022 7.5C5.87408 7.5 5.65022 7.72388 5.65022 8C5.65022 8.27612 5.87408 8.5 6.15022 8.5L13.6241 8.5ZM13.6241 13C13.9002 13 14.1241 12.7761 14.1241 12.5C14.1241 12.2239 13.9002 12 13.6241 12L6.15022 12C5.87408 12 5.65022 12.2239 5.65022 12.5C5.65022 12.7761 5.87408 13 6.15022 13L13.6241 13Z" fill-rule="evenodd" fill-opacity="0.000000"/>
	</mask>
	<path d="M1.87592 3.5C1.87592 3.08569 2.2117 2.75 2.62592 2.75C3.04013 2.75 3.37592 3.08569 3.37592 3.5C3.37592 3.91431 3.04013 4.25 2.62592 4.25C2.2117 4.25 1.87592 3.91431 1.87592 3.5ZM1.87592 8C1.87592 7.58569 2.2117 7.25 2.62592 7.25C3.04013 7.25 3.37592 7.58569 3.37592 8C3.37592 8.41431 3.04013 8.75 2.62592 8.75C2.2117 8.75 1.87592 8.41431 1.87592 8ZM1.87592 12.5C1.87592 12.0857 2.2117 11.75 2.62592 11.75C3.04013 11.75 3.37592 12.0857 3.37592 12.5C3.37592 12.9143 3.04013 13.25 2.62592 13.25C2.2117 13.25 1.87592 12.9143 1.87592 12.5ZM13.6241 4C13.9002 4 14.1241 3.77612 14.1241 3.5C14.1241 3.22388 13.9002 3 13.6241 3L6.15022 3C5.87408 3 5.65022 3.22388 5.65022 3.5C5.65022 3.77612 5.87408 4 6.15022 4L13.6241 4ZM13.6241 8.5C13.9002 8.5 14.1241 8.27612 14.1241 8C14.1241 7.72388 13.9002 7.5 13.6241 7.5L6.15022 7.5C5.87408 7.5 5.65022 7.72388 5.65022 8C5.65022 8.27612 5.87408 8.5 6.15022 8.5L13.6241 8.5ZM13.6241 13C13.9002 13 14.1241 12.7761 14.1241 12.5C14.1241 12.2239 13.9002 12 13.6241 12L6.15022 12C5.87408 12 5.65022 12.2239 5.65022 12.5C5.65022 12.7761 5.87408 13 6.15022 13L13.6241 13Z" fill-rule="evenodd" fill="#7F8081" fill-opacity="1.000000"/>
	<defs/>
</svg>
