<svg width="20.000000" height="20.000000" viewBox="0 0 20 20" fill="none" xmlns="http://www.w3.org/2000/svg" xmlns:xlink="http://www.w3.org/1999/xlink">
	<desc>
			Created with Pixso.
	</desc>
	<rect width="20.000000" height="20.000000" fill="#E5E5E5"/>
	<path d="M17.7116 6.00791C18.0984 6.2312 18.3366 6.64386 18.3366 7.09044L18.3366 16.9587C18.3366 17.6491 17.777 18.2087 17.0866 18.2087L2.41339 18.2087C1.99918 18.2087 1.66339 17.873 1.66339 17.4587L1.66339 7.09044C1.66339 6.64386 1.90164 6.2312 2.28839 6.00791L9.375 1.91645C9.71878 1.71797 10.1335 1.69592 10.493 1.85029L10.625 1.91645L17.7116 6.00791ZM3.16339 7.23478L3.16339 16.7087L16.8366 16.7087L16.8366 7.23478L10 3.28766L3.16339 7.23478Z" fill-rule="evenodd" fill="#FFB200" fill-opacity="1.000000"/>
	<path d="M2.41339 7.09044C2.41339 6.91181 2.5087 6.74675 2.66339 6.65743L9.75 2.56597C9.90472 2.47665 10.0953 2.47665 10.25 2.56597L17.3366 6.65743C17.4913 6.74675 17.5866 6.91181 17.5866 7.09044L17.5866 16.9587C17.5866 17.2349 17.3628 17.4587 17.0866 17.4587L2.41339 17.4587L2.41339 7.09044Z" fill-rule="evenodd" fill="#FFB200"/>
	<path d="M6.49542 15.9284C6.20255 16.2213 6.20255 16.6962 6.49542 16.9891C6.78833 17.282 7.26318 17.282 7.55609 16.9891L10.5303 14.0148C10.8232 13.7219 10.8232 13.2471 10.5303 12.9542L7.55609 9.97995C7.26318 9.68705 6.78833 9.68705 6.49542 9.97995C6.20255 10.2728 6.20255 10.7477 6.49542 11.0406L8.93933 13.4845L6.49542 15.9284Z" fill-rule="evenodd" fill="#FFFFFF"/>
	<path d="M9.02142 12.7345L1.62744 12.7345L1.62744 14.2345L9.02142 14.2345L9.02142 12.7345Z" fill-rule="evenodd" fill="#FFFFFF"/>
	<defs/>
</svg>
