<svg width="16.000000" height="16.000000" viewBox="0 0 16 16" fill="none" xmlns="http://www.w3.org/2000/svg" xmlns:xlink="http://www.w3.org/1999/xlink">
	<desc>
			Created with Pixso.
	</desc>
	<path d="M15.4678 3L15.4678 13C15.4678 13.8284 14.7963 14.5 13.9678 14.5L2.03217 14.5C1.20374 14.5 0.532166 13.8284 0.532166 13L0.532166 3C0.532166 2.17157 1.20374 1.5 2.03217 1.5L13.9678 1.5C14.7963 1.5 15.4678 2.17157 15.4678 3ZM2.03217 2.5C1.75602 2.5 1.53217 2.72385 1.53217 3L1.53217 13C1.53217 13.2762 1.75602 13.5 2.03217 13.5L13.9678 13.5C14.244 13.5 14.4678 13.2762 14.4678 13L14.4678 3C14.4678 2.72385 14.244 2.5 13.9678 2.5L2.03217 2.5ZM10.8624 8.43869L6.28539 10.9417C5.95219 11.1239 5.54549 10.8828 5.54549 10.503L5.54549 5.49701C5.54549 5.11722 5.95219 4.8761 6.28539 5.05832L10.8624 7.56131C11.2092 7.75098 11.2092 8.24902 10.8624 8.43869ZM6.54549 9.6597L9.58039 8L6.54549 6.3403L6.54549 9.6597Z" fill-rule="evenodd" fill="#7F8081" fill-opacity="1.000000"/>
	<defs/>
</svg>
