<svg width="16.000000" height="16.000000" viewBox="0 0 16 16" fill="none" xmlns="http://www.w3.org/2000/svg" xmlns:xlink="http://www.w3.org/1999/xlink">
	<desc>
			Created with Pixso.
	</desc>
	<g opacity="0.000000">
		<rect width="16.000000" height="16.000000" fill="#000000"/>
	</g>
	<mask id="path-1-inside-1" fill="white">
		<path d="M1 8C1 11.8657 4.13438 15 8 15C11.8656 15 15 11.8657 15 8C15 4.13428 11.8656 1 8 1C4.13438 1 1 4.13428 1 8ZM7.73281 10.2766C7.53437 10.5532 7.12344 10.5532 6.925 10.2766L4.97656 7.57666C4.91719 7.49365 4.97656 7.37817 5.07812 7.37817L5.81094 7.37817C5.97031 7.37817 6.12188 7.45459 6.21563 7.58594L7.32812 9.12964L9.78437 5.72339C9.87812 5.59375 10.0281 5.51562 10.1891 5.51562L10.9219 5.51562C11.0234 5.51562 11.0828 5.63135 11.0234 5.71411L7.73281 10.2766Z" fill-rule="evenodd" fill-opacity="0.000000"/>
	</mask>
	<path d="M1 8C1 11.8657 4.13438 15 8 15C11.8656 15 15 11.8657 15 8C15 4.13428 11.8656 1 8 1C4.13438 1 1 4.13428 1 8ZM7.73281 10.2766C7.53437 10.5532 7.12344 10.5532 6.925 10.2766L4.97656 7.57666C4.91719 7.49365 4.97656 7.37817 5.07812 7.37817L5.81094 7.37817C5.97031 7.37817 6.12188 7.45459 6.21563 7.58594L7.32812 9.12964L9.78437 5.72339C9.87812 5.59375 10.0281 5.51562 10.1891 5.51562L10.9219 5.51562C11.0234 5.51562 11.0828 5.63135 11.0234 5.71411L7.73281 10.2766Z" fill-rule="evenodd" fill="#00BE76" fill-opacity="1.000000"/>
	<defs/>
</svg>
