<svg width="16.000000" height="16.000000" viewBox="0 0 16 16" fill="none" xmlns="http://www.w3.org/2000/svg" xmlns:xlink="http://www.w3.org/1999/xlink">
	<desc>
			Created with Pixso.
	</desc>
	<g opacity="0.000000">
		<rect width="16.000000" height="16.000000" fill="#000000"/>
	</g>
	<mask id="path-1-inside-1" fill="white">
		<path d="M1 8C1 11.8656 4.13438 15 8 15C11.8656 15 15 11.8656 15 8C15 4.13437 11.8656 1 8 1C4.13438 1 1 4.13437 1 8ZM9.55312 10.6547L8 8.80313L6.44844 10.6531L5.41563 10.6578C5.34687 10.6578 5.29063 10.6031 5.29063 10.5328C5.29063 10.5031 5.30156 10.475 5.32031 10.4516L7.35313 8.02969L5.32031 5.60938C5.30156 5.58594 5.29063 5.5578 5.29063 5.52814C5.29063 5.45938 5.34687 5.40314 5.41563 5.40314L6.44844 5.40781L8 7.25937L9.55156 5.40936L10.5828 5.40469C10.6516 5.40469 10.7078 5.45938 10.7078 5.52969C10.7078 5.55939 10.6969 5.58749 10.6781 5.61093L8.64844 8.03125L10.6797 10.4531C10.6984 10.4766 10.7094 10.5047 10.7094 10.5344C10.7094 10.6031 10.6531 10.6594 10.5844 10.6594L9.55312 10.6547Z" fill-rule="evenodd" fill-opacity="0.000000"/>
	</mask>
	<path d="M1 8C1 11.8656 4.13438 15 8 15C11.8656 15 15 11.8656 15 8C15 4.13437 11.8656 1 8 1C4.13438 1 1 4.13437 1 8ZM9.55312 10.6547L8 8.80313L6.44844 10.6531L5.41563 10.6578C5.34687 10.6578 5.29063 10.6031 5.29063 10.5328C5.29063 10.5031 5.30156 10.475 5.32031 10.4516L7.35313 8.02969L5.32031 5.60938C5.30156 5.58594 5.29063 5.5578 5.29063 5.52814C5.29063 5.45938 5.34687 5.40314 5.41563 5.40314L6.44844 5.40781L8 7.25937L9.55156 5.40936L10.5828 5.40469C10.6516 5.40469 10.7078 5.45938 10.7078 5.52969C10.7078 5.55939 10.6969 5.58749 10.6781 5.61093L8.64844 8.03125L10.6797 10.4531C10.6984 10.4766 10.7094 10.5047 10.7094 10.5344C10.7094 10.6031 10.6531 10.6594 10.5844 10.6594L9.55312 10.6547Z" fill-rule="evenodd" fill="#000000" fill-opacity="1.000000"/>
	<defs/>
</svg>
