<svg width="16.000000" height="16.000000" viewBox="0 0 16 16" fill="none" xmlns="http://www.w3.org/2000/svg" xmlns:xlink="http://www.w3.org/1999/xlink">
	<desc>
			Created with Pixso.
	</desc>
	<g opacity="0.000000">
		<rect width="16.000000" height="16.000000" fill="#000000"/>
	</g>
	<mask id="path-1-inside-1" fill="white">
		<path d="M1 8C1 11.8657 4.13438 15 8 15C11.8656 15 15 11.8657 15 8C15 4.13428 11.8656 1 8 1C4.13438 1 1 4.13428 1 8ZM8.375 4.5C8.44375 4.5 8.5 4.55615 8.5 4.625L8.5 8.875C8.5 8.94385 8.44375 9 8.375 9L7.625 9C7.55625 9 7.5 8.94385 7.5 8.875L7.5 4.625C7.5 4.55615 7.55625 4.5 7.625 4.5L8.375 4.5ZM7.25 10.75C7.25 10.3359 7.58594 10 8 10C8.41406 10 8.75 10.3359 8.75 10.75C8.75 11.1641 8.41406 11.5 8 11.5C7.58594 11.5 7.25 11.1641 7.25 10.75Z" fill-rule="evenodd" fill-opacity="0.000000"/>
	</mask>
	<path d="M1 8C1 11.8657 4.13438 15 8 15C11.8656 15 15 11.8657 15 8C15 4.13428 11.8656 1 8 1C4.13438 1 1 4.13428 1 8ZM8.375 4.5C8.44375 4.5 8.5 4.55615 8.5 4.625L8.5 8.875C8.5 8.94385 8.44375 9 8.375 9L7.625 9C7.55625 9 7.5 8.94385 7.5 8.875L7.5 4.625C7.5 4.55615 7.55625 4.5 7.625 4.5L8.375 4.5ZM7.25 10.75C7.25 10.3359 7.58594 10 8 10C8.41406 10 8.75 10.3359 8.75 10.75C8.75 11.1641 8.41406 11.5 8 11.5C7.58594 11.5 7.25 11.1641 7.25 10.75Z" fill-rule="evenodd" fill="#FF4D4F" fill-opacity="1.000000"/>
	<defs/>
</svg>
